G04 #@! TF.GenerationSoftware,KiCad,Pcbnew,9.0.7*
G04 #@! TF.CreationDate,2026-02-16T06:45:07+09:00*
G04 #@! TF.ProjectId,Y8960_Cartridge,59383936-305f-4436-9172-747269646765,rev?*
G04 #@! TF.SameCoordinates,Original*
G04 #@! TF.FileFunction,Copper,L2,Bot*
G04 #@! TF.FilePolarity,Positive*
%FSLAX46Y46*%
G04 Gerber Fmt 4.6, Leading zero omitted, Abs format (unit mm)*
G04 Created by KiCad (PCBNEW 9.0.7) date 2026-02-16 06:45:07*
%MOMM*%
%LPD*%
G01*
G04 APERTURE LIST*
G04 Aperture macros list*
%AMFreePoly0*
4,1,21,0.153073,0.369552,0.243505,0.317341,0.317341,0.243505,0.369552,0.153073,0.396578,0.052210,0.400000,0.000000,0.400000,-1.500000,0.850000,-1.500000,0.850000,-10.500000,-0.850000,-10.500000,-0.850000,-1.500000,-0.400000,-1.500000,-0.400000,0.000000,-0.396578,0.052210,-0.369552,0.153073,-0.317341,0.243505,-0.243505,0.317341,-0.153073,0.369552,-0.052210,0.396578,0.052210,0.396578,
0.153073,0.369552,0.153073,0.369552,$1*%
G04 Aperture macros list end*
G04 #@! TA.AperFunction,ComponentPad*
%ADD10R,1.700000X1.700000*%
G04 #@! TD*
G04 #@! TA.AperFunction,ComponentPad*
%ADD11C,2.000000*%
G04 #@! TD*
G04 #@! TA.AperFunction,ComponentPad*
%ADD12C,1.700000*%
G04 #@! TD*
G04 #@! TA.AperFunction,SMDPad,CuDef*
%ADD13FreePoly0,0.000000*%
G04 #@! TD*
G04 #@! TA.AperFunction,ViaPad*
%ADD14C,0.609600*%
G04 #@! TD*
G04 #@! TA.AperFunction,Conductor*
%ADD15C,0.800000*%
G04 #@! TD*
G04 #@! TA.AperFunction,Conductor*
%ADD16C,0.152400*%
G04 #@! TD*
G04 #@! TA.AperFunction,Conductor*
%ADD17C,0.400000*%
G04 #@! TD*
G04 #@! TA.AperFunction,Conductor*
%ADD18C,0.600000*%
G04 #@! TD*
G04 APERTURE END LIST*
D10*
X71000000Y-71100000D03*
D11*
X96500000Y-72095000D03*
X96500000Y-74635000D03*
X96500000Y-77175000D03*
D10*
X150940000Y-71700000D03*
D12*
X148400000Y-71700000D03*
X150940000Y-74240000D03*
X148400000Y-74240000D03*
X150940000Y-76780000D03*
X148400000Y-76780000D03*
X150940000Y-79320000D03*
X148400000Y-79320000D03*
X150940000Y-81860000D03*
X148400000Y-81860000D03*
X150940000Y-84400000D03*
X148400000Y-84400000D03*
D10*
X79300000Y-88500000D03*
D12*
X79300000Y-85960000D03*
X79300000Y-83420000D03*
X79300000Y-80880000D03*
X79300000Y-78340000D03*
X79300000Y-75800000D03*
D11*
X142900000Y-71695000D03*
X142900000Y-74235000D03*
X142900000Y-76775000D03*
D13*
X143734600Y-122050600D03*
X141194600Y-122050600D03*
X138654600Y-122050600D03*
X136114600Y-122050600D03*
X133574600Y-122050600D03*
X131034600Y-122050600D03*
X128494600Y-122050600D03*
X125954600Y-122050600D03*
X123414600Y-122050600D03*
X120874600Y-122050600D03*
X118334600Y-122050600D03*
X115794600Y-122050600D03*
X113254600Y-122050600D03*
X110714600Y-122050600D03*
X108174600Y-122050600D03*
X105634600Y-122050600D03*
X103094600Y-122050600D03*
X100554600Y-122050600D03*
X98014600Y-122050600D03*
X95474600Y-122050600D03*
X92934600Y-122050600D03*
X90394600Y-122050600D03*
X87854600Y-122050600D03*
X85314600Y-122050600D03*
X82774600Y-122050600D03*
D10*
X66300000Y-71100000D03*
D14*
X96825000Y-121100000D03*
X132225000Y-121050000D03*
X101850000Y-121100000D03*
X112225000Y-121100000D03*
X134750000Y-121050000D03*
X68750000Y-100125000D03*
X120375000Y-72475000D03*
X153800000Y-75075000D03*
X86850000Y-120575000D03*
X63900000Y-68875000D03*
X91025000Y-91750000D03*
X124075000Y-68700000D03*
X127325000Y-71700000D03*
X132225000Y-98950000D03*
X63925000Y-92900000D03*
X68725000Y-104850000D03*
X74050000Y-84625000D03*
X153275000Y-86200000D03*
X138800000Y-86700000D03*
X104325000Y-121100000D03*
X109450000Y-115925000D03*
X97225000Y-79625000D03*
X157100000Y-99700000D03*
X145050000Y-121050000D03*
X157125000Y-110350000D03*
X103950000Y-68725000D03*
X119500000Y-94900000D03*
X68750000Y-92925000D03*
X145025000Y-114900000D03*
X81300000Y-109450000D03*
X81500000Y-76400000D03*
X89175000Y-109450000D03*
X94500000Y-101850000D03*
X116725000Y-83275000D03*
X156200000Y-75075000D03*
X68750000Y-68850000D03*
X63925000Y-85550000D03*
X97225000Y-88525000D03*
X63925000Y-100125000D03*
X102950000Y-106300000D03*
X90350000Y-104600000D03*
X81275000Y-121150000D03*
X68700000Y-78075000D03*
X100425000Y-72975000D03*
X151025000Y-110325000D03*
X140375000Y-83650000D03*
X146625000Y-104025000D03*
X103950000Y-114200000D03*
X89125000Y-120575000D03*
X84075000Y-121125000D03*
X153850000Y-80225000D03*
X116875000Y-98850000D03*
X82700000Y-94875000D03*
X150125000Y-120000000D03*
X154150000Y-88950000D03*
X95850000Y-114825000D03*
X81275000Y-114925000D03*
X68725000Y-85550000D03*
X133275000Y-86700000D03*
X91925000Y-104050000D03*
X93550000Y-72100000D03*
X142450000Y-121050000D03*
X92175000Y-114800000D03*
X81500000Y-81225000D03*
X74475000Y-105850000D03*
X145675000Y-68625000D03*
X128975000Y-115700000D03*
X104600000Y-85575000D03*
X94175000Y-121100000D03*
X140350000Y-91450000D03*
X114950000Y-68675000D03*
X110850000Y-82025000D03*
X63975000Y-107050000D03*
X133050000Y-106200000D03*
X82725000Y-102850000D03*
X80050000Y-71100000D03*
X87800000Y-96975000D03*
X63925000Y-78075000D03*
X94075000Y-109450000D03*
X74425000Y-109425000D03*
X124650000Y-121100000D03*
X85975000Y-106200000D03*
X82700000Y-97025000D03*
X157100000Y-105225000D03*
X70125000Y-120000000D03*
X139400000Y-68650000D03*
X157150000Y-120075000D03*
X104700000Y-93875000D03*
X130650000Y-94975000D03*
X97225000Y-82375000D03*
X117250000Y-91250000D03*
X91050000Y-97950000D03*
X73925000Y-92950000D03*
X157100000Y-114900000D03*
X104575000Y-82925000D03*
X73900000Y-99275000D03*
X126250000Y-111925000D03*
X108000000Y-106275000D03*
X109650000Y-96325000D03*
X151025000Y-114900000D03*
X140900000Y-88925000D03*
X74450000Y-114925000D03*
X151800000Y-91025000D03*
X107800000Y-80625000D03*
X97275000Y-91725000D03*
X119850000Y-106250000D03*
X156725000Y-68700000D03*
X72375000Y-117500000D03*
X156200000Y-80225000D03*
X156850000Y-86950000D03*
X124025000Y-91250000D03*
X87675000Y-105725000D03*
X76200000Y-68875000D03*
X145000000Y-88925000D03*
X129625000Y-121050000D03*
X91600000Y-121125000D03*
X109325000Y-72475000D03*
X82700000Y-100850000D03*
X105050000Y-72925000D03*
X127125000Y-121075000D03*
X138850000Y-111950000D03*
X151000000Y-99700000D03*
X103400000Y-72925000D03*
X102975000Y-104600000D03*
X75725000Y-90500000D03*
X127900000Y-100900000D03*
X140775000Y-100925000D03*
X145000000Y-90900000D03*
X107800000Y-78375000D03*
X115900000Y-100875000D03*
X107800000Y-79525000D03*
X140775000Y-109700000D03*
X131025000Y-106175000D03*
X115975000Y-109700000D03*
X127800000Y-109700000D03*
X72800000Y-105950000D03*
X147050000Y-106275000D03*
X144250000Y-81800000D03*
X103950000Y-109800000D03*
X110850000Y-83800000D03*
X92975000Y-76000000D03*
X109625000Y-89950000D03*
X91675000Y-90075000D03*
X107575000Y-86175000D03*
X91800000Y-86175000D03*
X92950000Y-78100000D03*
X107575000Y-83875000D03*
X92400000Y-89500000D03*
X110225000Y-84250000D03*
X92975000Y-80200000D03*
X109625000Y-88825000D03*
X108175000Y-87075000D03*
X92975000Y-87075000D03*
X108175000Y-84675000D03*
X92975000Y-82275000D03*
X83000000Y-83500000D03*
X87275000Y-85550000D03*
X85675000Y-83100000D03*
X82300000Y-119600000D03*
X126200000Y-78250000D03*
X142675000Y-79275000D03*
X126200000Y-77275000D03*
X119000000Y-78450000D03*
X119000000Y-77550000D03*
X145150000Y-79300000D03*
X126200000Y-79300000D03*
X146125000Y-79300000D03*
X125550000Y-80025000D03*
X142300000Y-111625000D03*
X145425000Y-100600000D03*
X135050000Y-119925000D03*
X134925000Y-90425000D03*
X122075000Y-90425000D03*
X119345198Y-81000000D03*
X155725000Y-89825000D03*
X96500000Y-115925000D03*
X97150000Y-118975000D03*
X97800000Y-116575000D03*
X98314500Y-119810500D03*
X99100000Y-117150000D03*
X99125000Y-120475000D03*
X97125000Y-115375000D03*
X98450000Y-115925000D03*
X99750000Y-116575000D03*
X96425000Y-118275000D03*
X136500000Y-75080000D03*
X136475000Y-78775000D03*
X134900000Y-78775000D03*
X134875000Y-75625000D03*
X131350000Y-74175000D03*
X131250000Y-77125000D03*
X129625000Y-77700000D03*
X129800000Y-73925000D03*
X128575000Y-77700000D03*
X128500000Y-73550000D03*
X127450000Y-76275000D03*
X127450000Y-77700000D03*
X111050000Y-76675000D03*
X141425000Y-81781000D03*
X119000000Y-79325000D03*
X137550000Y-96775000D03*
X115150000Y-84550000D03*
X101625000Y-80175000D03*
X100400000Y-100800000D03*
X138200000Y-97375000D03*
X115137500Y-85662500D03*
X125600000Y-98350000D03*
X114475000Y-80425000D03*
X99850000Y-78525000D03*
X98450000Y-100100000D03*
X113775000Y-79880000D03*
X124950000Y-98950000D03*
X121700000Y-95475000D03*
X116100000Y-74500000D03*
X119200000Y-74275000D03*
X124950000Y-79294000D03*
X109650000Y-92150000D03*
X125625000Y-92150000D03*
X136250000Y-92150000D03*
X102300000Y-75600000D03*
X107500000Y-75475000D03*
X113825000Y-96625000D03*
X136900000Y-96175000D03*
X115150000Y-83250000D03*
X109250000Y-100800000D03*
X103425000Y-81825000D03*
X99100000Y-100800000D03*
X100475000Y-79075000D03*
X113800000Y-99800000D03*
X104525000Y-77125000D03*
X117850000Y-76350000D03*
X123625000Y-94900000D03*
X98525000Y-77450000D03*
X97150000Y-100100000D03*
X124300000Y-95475000D03*
X118400000Y-76925000D03*
X113825000Y-95575000D03*
X104500000Y-75761000D03*
X116725000Y-75150000D03*
X122350000Y-94900000D03*
X97800000Y-100800000D03*
X99175000Y-77975000D03*
X101050000Y-79625000D03*
X99750000Y-100100000D03*
X109650000Y-92950000D03*
X135600000Y-92950000D03*
X125625000Y-92950000D03*
X101075000Y-74950000D03*
X117275000Y-75750000D03*
X123000000Y-95475000D03*
X103000000Y-100800000D03*
X106625000Y-91250000D03*
X106150000Y-100125000D03*
X108175000Y-81875000D03*
X101050000Y-100100000D03*
X102200000Y-80725000D03*
X113800000Y-97700000D03*
X105125000Y-76275000D03*
X134950000Y-93750000D03*
X125625000Y-93750000D03*
X99675000Y-74250000D03*
X109650000Y-93750000D03*
X115550000Y-73875000D03*
X121050000Y-94900000D03*
X102775000Y-81275000D03*
X101700000Y-100800000D03*
X107475000Y-76775000D03*
X113800000Y-98750000D03*
X104025000Y-82375000D03*
X109900000Y-100100000D03*
X105231580Y-77693420D03*
X113800000Y-100800000D03*
X109450000Y-117600000D03*
X109450000Y-119900000D03*
X125950000Y-119900000D03*
X106725000Y-119900000D03*
X136975000Y-119200000D03*
X130975000Y-112225000D03*
X108600000Y-112175000D03*
X121925000Y-119900000D03*
X116925000Y-119900000D03*
X113550000Y-114450000D03*
X110550000Y-113875000D03*
X110725000Y-117050000D03*
X118325000Y-119900000D03*
X132075000Y-112900000D03*
X109900000Y-113300000D03*
X114225000Y-119900000D03*
X127725000Y-119925000D03*
X111325000Y-116400000D03*
X111325000Y-119900000D03*
X136975000Y-117831000D03*
X133175000Y-112225000D03*
X111850000Y-113875000D03*
X119525000Y-119900000D03*
X108174600Y-118200000D03*
X109250000Y-113875000D03*
X130275000Y-113850000D03*
X112500000Y-112175000D03*
X111200000Y-113300000D03*
X131050000Y-114675000D03*
X131050000Y-119925000D03*
D15*
X80050000Y-71100000D02*
X89725000Y-71100000D01*
D16*
X104575000Y-85550000D02*
X104575000Y-82925000D01*
D15*
X107217676Y-71330705D02*
X108080705Y-71330705D01*
X140675000Y-71700000D02*
X140680000Y-71695000D01*
X148400000Y-71700000D02*
X140675000Y-71700000D01*
X90725000Y-72100000D02*
X96495000Y-72100000D01*
X96500000Y-72075000D02*
X96500000Y-72095000D01*
X140680000Y-71695000D02*
X142900000Y-71695000D01*
X120375000Y-72475000D02*
X109325000Y-72475000D01*
D17*
X95850000Y-114825000D02*
X96500000Y-114175000D01*
D16*
X104600000Y-85575000D02*
X104600000Y-93775000D01*
D15*
X140675000Y-71700000D02*
X127325000Y-71700000D01*
X126550000Y-72475000D02*
X120375000Y-72475000D01*
X109200000Y-72475000D02*
X109175000Y-72450000D01*
D18*
X90394600Y-122050600D02*
X92934600Y-122050600D01*
D16*
X110850000Y-82025000D02*
X109450000Y-80625000D01*
D17*
X96550000Y-114175000D02*
X103925000Y-114175000D01*
D18*
X92934600Y-122050600D02*
X92934600Y-117740400D01*
X92934600Y-117740400D02*
X95850000Y-114825000D01*
D15*
X89725000Y-71100000D02*
X90725000Y-72100000D01*
D17*
X96500000Y-114175000D02*
X96550000Y-114175000D01*
D15*
X109325000Y-72475000D02*
X109200000Y-72475000D01*
D17*
X103925000Y-114175000D02*
X103950000Y-114200000D01*
D15*
X150940000Y-71700000D02*
X148400000Y-71700000D01*
D16*
X104600000Y-93775000D02*
X104700000Y-93875000D01*
D15*
X108825000Y-72075000D02*
X108825000Y-72100000D01*
D16*
X104600000Y-85575000D02*
X104575000Y-85550000D01*
D15*
X97250000Y-71325000D02*
X107211971Y-71325000D01*
X96500000Y-72075000D02*
X97250000Y-71325000D01*
X108825000Y-72100000D02*
X109175000Y-72450000D01*
X108080705Y-71330705D02*
X108825000Y-72075000D01*
D16*
X107800000Y-80625000D02*
X107775000Y-80625000D01*
X109450000Y-80625000D02*
X107800000Y-80625000D01*
D15*
X96495000Y-72100000D02*
X96500000Y-72095000D01*
X127325000Y-71700000D02*
X126550000Y-72475000D01*
X107211971Y-71325000D02*
X107217676Y-71330705D01*
X71000000Y-71100000D02*
X80050000Y-71100000D01*
X142250000Y-99450000D02*
X140775000Y-100925000D01*
X145000000Y-98725000D02*
X144275000Y-99450000D01*
D17*
X105150000Y-78925000D02*
X103400000Y-77175000D01*
D15*
X145000000Y-90900000D02*
X145000000Y-98725000D01*
D18*
X115925000Y-103250000D02*
X127850000Y-103250000D01*
X127850000Y-103250000D02*
X140750000Y-103250000D01*
D17*
X140750000Y-103250000D02*
X140775000Y-103275000D01*
X127900000Y-100900000D02*
X127900000Y-100875000D01*
D18*
X127900000Y-103250000D02*
X127900000Y-100900000D01*
D17*
X127850000Y-103250000D02*
X127875000Y-103275000D01*
D15*
X79300000Y-75800000D02*
X79275000Y-75825000D01*
D17*
X140775000Y-100925000D02*
X140750000Y-100900000D01*
D15*
X77150000Y-75825000D02*
X75725000Y-77250000D01*
D18*
X102975000Y-104600000D02*
X114575000Y-104600000D01*
X115925000Y-103250000D02*
X115925000Y-100900000D01*
D17*
X127875000Y-103275000D02*
X127900000Y-103250000D01*
X107800000Y-78375000D02*
X107800000Y-78925000D01*
D15*
X75725000Y-77250000D02*
X75725000Y-90500000D01*
D17*
X107800000Y-78925000D02*
X105150000Y-78925000D01*
D18*
X140775000Y-103275000D02*
X140775000Y-100925000D01*
D15*
X144275000Y-99450000D02*
X142250000Y-99450000D01*
D18*
X114575000Y-104600000D02*
X115925000Y-103250000D01*
D17*
X115925000Y-100900000D02*
X115900000Y-100875000D01*
D15*
X79275000Y-75825000D02*
X77150000Y-75825000D01*
D17*
X103400000Y-77175000D02*
X103400000Y-72925000D01*
X107800000Y-78925000D02*
X107800000Y-79525000D01*
D15*
X91629200Y-112800000D02*
X85314600Y-119114600D01*
X83300000Y-117100000D02*
X85314600Y-119114600D01*
X147050000Y-106275000D02*
X156925000Y-96400000D01*
D16*
X104050000Y-109700000D02*
X103950000Y-109800000D01*
D15*
X115975000Y-109700000D02*
X104050000Y-109700000D01*
X131025000Y-106175000D02*
X131025000Y-106500000D01*
X156925000Y-96400000D02*
X156925000Y-89075000D01*
X127800000Y-109700000D02*
X115975000Y-109700000D01*
X85314600Y-122050600D02*
X87854600Y-122050600D01*
X72800000Y-105950000D02*
X72800000Y-115600000D01*
X74300000Y-117100000D02*
X83300000Y-117100000D01*
X103950000Y-109800000D02*
X100950000Y-112800000D01*
X131025000Y-106500000D02*
X127825000Y-109700000D01*
X100950000Y-112800000D02*
X91629200Y-112800000D01*
X155525000Y-87675000D02*
X148075000Y-87675000D01*
X72800000Y-115600000D02*
X74300000Y-117100000D01*
X156925000Y-89075000D02*
X155525000Y-87675000D01*
X140775000Y-109700000D02*
X127825000Y-109700000D01*
X148075000Y-87675000D02*
X144250000Y-83850000D01*
X144250000Y-83850000D02*
X144250000Y-81800000D01*
X85314600Y-119114600D02*
X85314600Y-122050600D01*
D16*
X92975000Y-76000000D02*
X91225000Y-77750000D01*
X91225000Y-89625000D02*
X91675000Y-90075000D01*
X109625000Y-89950000D02*
X110850000Y-88725000D01*
X91225000Y-77750000D02*
X91225000Y-89625000D01*
X110850000Y-88725000D02*
X110850000Y-83800000D01*
X91800000Y-79250000D02*
X92950000Y-78100000D01*
X107575000Y-83875000D02*
X107575000Y-86175000D01*
X91800000Y-86175000D02*
X91800000Y-79250000D01*
X110182917Y-88267083D02*
X109625000Y-88825000D01*
X110182917Y-84292083D02*
X110182917Y-88267083D01*
X92400000Y-89500000D02*
X92400000Y-80775000D01*
X110225000Y-84250000D02*
X110182917Y-84292083D01*
X92400000Y-80775000D02*
X92975000Y-80200000D01*
X92975000Y-82275000D02*
X92975000Y-87075000D01*
X108175000Y-84675000D02*
X108175000Y-87075000D01*
X81760000Y-83500000D02*
X83000000Y-83500000D01*
X79300000Y-85960000D02*
X81760000Y-83500000D01*
X87275000Y-83600000D02*
X85950000Y-82275000D01*
X80695000Y-82275000D02*
X79300000Y-80880000D01*
X85950000Y-82275000D02*
X80695000Y-82275000D01*
X87275000Y-85550000D02*
X87275000Y-83600000D01*
X85675000Y-83100000D02*
X80275000Y-88500000D01*
X80275000Y-88500000D02*
X79300000Y-88500000D01*
D15*
X82300000Y-119600000D02*
X82800000Y-120100000D01*
X82800000Y-122025200D02*
X82774600Y-122050600D01*
X82800000Y-120100000D02*
X82800000Y-122025200D01*
D16*
X126200000Y-78250000D02*
X126625000Y-78250000D01*
X137225000Y-79675000D02*
X137650000Y-79250000D01*
X133775000Y-79250000D02*
X134200000Y-79675000D01*
X126625000Y-78250000D02*
X127625000Y-79250000D01*
X142650000Y-79250000D02*
X142675000Y-79275000D01*
X137650000Y-79250000D02*
X142650000Y-79250000D01*
X127625000Y-79250000D02*
X133775000Y-79250000D01*
X134200000Y-79675000D02*
X137225000Y-79675000D01*
X133725000Y-78725000D02*
X134350000Y-79350000D01*
X134350000Y-79350000D02*
X137000000Y-79350000D01*
X137625000Y-78725000D02*
X146455000Y-78725000D01*
X126200000Y-77275000D02*
X127650000Y-78725000D01*
X146455000Y-78725000D02*
X148400000Y-76780000D01*
X127650000Y-78725000D02*
X133725000Y-78725000D01*
X137000000Y-79350000D02*
X137625000Y-78725000D01*
X147450000Y-80600000D02*
X149660000Y-80600000D01*
X121650000Y-81100000D02*
X146950000Y-81100000D01*
X119000000Y-78450000D02*
X121650000Y-81100000D01*
X146950000Y-81100000D02*
X147450000Y-80600000D01*
X149660000Y-80600000D02*
X150940000Y-79320000D01*
X147750000Y-78050000D02*
X149670000Y-78050000D01*
X146725000Y-80775000D02*
X147100000Y-80400000D01*
X119150000Y-77550000D02*
X122375000Y-80775000D01*
X149670000Y-78050000D02*
X150940000Y-76780000D01*
X119000000Y-77550000D02*
X119150000Y-77550000D01*
X122375000Y-80775000D02*
X146725000Y-80775000D01*
X147100000Y-78700000D02*
X147750000Y-78050000D01*
X147100000Y-80400000D02*
X147100000Y-78700000D01*
X126900000Y-80000000D02*
X144450000Y-80000000D01*
X144450000Y-80000000D02*
X145150000Y-79300000D01*
X126200000Y-79300000D02*
X126900000Y-80000000D01*
X125550000Y-80025000D02*
X125900000Y-80375000D01*
X145050000Y-80375000D02*
X146125000Y-79300000D01*
X125900000Y-80375000D02*
X145050000Y-80375000D01*
X142350000Y-111625000D02*
X145425000Y-108550000D01*
X145425000Y-108550000D02*
X145425000Y-100600000D01*
X142300000Y-111625000D02*
X142350000Y-111625000D01*
X135050000Y-119925000D02*
X136114600Y-120989600D01*
X136114600Y-120989600D02*
X136114600Y-122050600D01*
X122075000Y-90425000D02*
X134925000Y-90425000D01*
X155725000Y-89825000D02*
X127950000Y-89825000D01*
X119345198Y-81220198D02*
X119345198Y-81000000D01*
X127950000Y-89825000D02*
X119345198Y-81220198D01*
X97150000Y-118975000D02*
X97150000Y-116575000D01*
X97150000Y-116575000D02*
X96500000Y-115925000D01*
X97800000Y-116575000D02*
X97800000Y-119296000D01*
X97800000Y-119296000D02*
X98314500Y-119810500D01*
X99125000Y-117175000D02*
X99125000Y-120475000D01*
X99100000Y-117150000D02*
X99125000Y-117175000D01*
X102575000Y-115375000D02*
X97125000Y-115375000D01*
X103094600Y-115894600D02*
X102575000Y-115375000D01*
X103094600Y-122050600D02*
X103094600Y-115894600D01*
X100554600Y-122050600D02*
X100554600Y-116354600D01*
X100125000Y-115925000D02*
X98450000Y-115925000D01*
X100554600Y-116354600D02*
X100125000Y-115925000D01*
X99750000Y-116575000D02*
X99750000Y-120775000D01*
X99250000Y-121275000D02*
X98800000Y-121275000D01*
X98800000Y-121275000D02*
X98024400Y-122050600D01*
X99750000Y-120775000D02*
X99250000Y-121275000D01*
X98024400Y-122050600D02*
X98014600Y-122050600D01*
X95475000Y-119225000D02*
X96425000Y-118275000D01*
X95475000Y-122050200D02*
X95475000Y-119225000D01*
X95474600Y-122050600D02*
X95475000Y-122050200D01*
X136475000Y-75105000D02*
X136475000Y-78775000D01*
X136500000Y-75080000D02*
X136475000Y-75105000D01*
X134175000Y-75625000D02*
X134875000Y-75625000D01*
X131350000Y-74175000D02*
X132725000Y-74175000D01*
X132725000Y-74175000D02*
X134175000Y-75625000D01*
X134875000Y-75625000D02*
X134900000Y-75650000D01*
X134900000Y-75650000D02*
X134900000Y-78775000D01*
X130200000Y-77125000D02*
X129625000Y-77700000D01*
X131250000Y-77125000D02*
X130200000Y-77125000D01*
X129800000Y-73925000D02*
X128575000Y-75150000D01*
X128575000Y-75150000D02*
X128575000Y-77700000D01*
X127450000Y-76275000D02*
X127450000Y-77700000D01*
X128500000Y-73550000D02*
X127450000Y-74600000D01*
X127450000Y-74600000D02*
X127450000Y-76275000D01*
X99060000Y-72075000D02*
X96500000Y-74635000D01*
X109225000Y-74175000D02*
X107125000Y-72075000D01*
X107125000Y-72075000D02*
X99060000Y-72075000D01*
X109225000Y-74850000D02*
X109225000Y-74175000D01*
X111050000Y-76675000D02*
X109225000Y-74850000D01*
X141419000Y-81775000D02*
X141425000Y-81781000D01*
X119000000Y-79325000D02*
X121450000Y-81775000D01*
X121450000Y-81775000D02*
X141419000Y-81775000D01*
X115962500Y-85362500D02*
X115962500Y-93412500D01*
X115150000Y-84550000D02*
X115962500Y-85362500D01*
X119325000Y-96775000D02*
X137550000Y-96775000D01*
X115962500Y-93412500D02*
X119325000Y-96775000D01*
X100400000Y-99075000D02*
X100400000Y-100800000D01*
X101625000Y-97850000D02*
X100400000Y-99075000D01*
X101625000Y-80175000D02*
X101625000Y-81875000D01*
X101625000Y-81875000D02*
X101625000Y-97850000D01*
X115137500Y-93062500D02*
X119450000Y-97375000D01*
X119450000Y-97375000D02*
X138200000Y-97375000D01*
X115137500Y-85662500D02*
X115137500Y-93062500D01*
X119993948Y-98350000D02*
X125600000Y-98350000D01*
X114475000Y-80425000D02*
X114475000Y-92831052D01*
X114475000Y-92831052D02*
X119993948Y-98350000D01*
X99850000Y-95975000D02*
X98450000Y-97375000D01*
X99850000Y-78525000D02*
X99850000Y-95975000D01*
X98450000Y-97375000D02*
X98450000Y-100100000D01*
X113775000Y-92600000D02*
X120125000Y-98950000D01*
X113775000Y-79880000D02*
X113775000Y-92600000D01*
X120125000Y-98950000D02*
X124950000Y-98950000D01*
X116100000Y-74500000D02*
X116100000Y-80800000D01*
X121700000Y-93068948D02*
X121700000Y-95475000D01*
X116100000Y-80800000D02*
X117950000Y-82650000D01*
X117950000Y-89318948D02*
X121700000Y-93068948D01*
X117950000Y-82650000D02*
X117950000Y-89318948D01*
X119200000Y-75175000D02*
X123475000Y-79450000D01*
X119200000Y-74275000D02*
X119200000Y-75175000D01*
X124794000Y-79450000D02*
X124950000Y-79294000D01*
X123475000Y-79450000D02*
X124794000Y-79450000D01*
X105925000Y-80600000D02*
X105925000Y-91400000D01*
X106675000Y-92150000D02*
X109650000Y-92150000D01*
X125625000Y-92150000D02*
X136250000Y-92150000D01*
X102300000Y-76975000D02*
X105925000Y-80600000D01*
X105925000Y-91400000D02*
X106675000Y-92150000D01*
X102300000Y-75600000D02*
X102300000Y-76975000D01*
X112875000Y-95675000D02*
X112875000Y-79725000D01*
X113825000Y-96625000D02*
X112875000Y-95675000D01*
X108625000Y-75475000D02*
X107500000Y-75475000D01*
X112875000Y-79725000D02*
X108625000Y-75475000D01*
X116275000Y-93250000D02*
X119200000Y-96175000D01*
X119200000Y-96175000D02*
X136900000Y-96175000D01*
X116275000Y-84375000D02*
X116275000Y-93250000D01*
X115150000Y-83250000D02*
X116275000Y-84375000D01*
X103425000Y-94975000D02*
X109250000Y-100800000D01*
X103425000Y-81825000D02*
X103425000Y-94975000D01*
X100475000Y-79075000D02*
X100475000Y-96450000D01*
X100475000Y-96450000D02*
X99100000Y-97825000D01*
X99100000Y-97825000D02*
X99100000Y-100800000D01*
X106450000Y-77475000D02*
X109275000Y-77475000D01*
X109275000Y-77475000D02*
X111875000Y-80075000D01*
X111875000Y-97875000D02*
X113800000Y-99800000D01*
X111875000Y-80075000D02*
X111875000Y-97875000D01*
X106100000Y-77125000D02*
X106450000Y-77475000D01*
X104525000Y-77125000D02*
X106100000Y-77125000D01*
X118975000Y-88925000D02*
X123625000Y-93575000D01*
X117850000Y-76350000D02*
X117850000Y-81225000D01*
X117850000Y-81225000D02*
X118975000Y-82350000D01*
X118975000Y-82350000D02*
X118975000Y-88925000D01*
X123625000Y-93575000D02*
X123625000Y-94900000D01*
X98525000Y-94700000D02*
X97150000Y-96075000D01*
X97150000Y-96075000D02*
X97150000Y-100100000D01*
X98525000Y-77450000D02*
X98525000Y-94700000D01*
X124300000Y-93750000D02*
X124300000Y-95475000D01*
X118400000Y-76925000D02*
X118400000Y-81343948D01*
X118400000Y-81343948D02*
X119300000Y-82243948D01*
X119300000Y-82243948D02*
X119300000Y-88750000D01*
X119300000Y-88750000D02*
X124300000Y-93750000D01*
X104500000Y-75761000D02*
X105461000Y-74800000D01*
X113200000Y-79600000D02*
X113200000Y-94950000D01*
X105461000Y-74800000D02*
X108400000Y-74800000D01*
X113200000Y-94950000D02*
X113825000Y-95575000D01*
X108400000Y-74800000D02*
X113200000Y-79600000D01*
X116725000Y-80975000D02*
X118325000Y-82575000D01*
X118325000Y-82575000D02*
X118325000Y-89225000D01*
X116725000Y-75150000D02*
X116725000Y-80975000D01*
X118325000Y-89225000D02*
X122350000Y-93250000D01*
X122350000Y-93250000D02*
X122350000Y-94900000D01*
X97925000Y-96625000D02*
X97800000Y-96750000D01*
X97800000Y-96750000D02*
X97800000Y-100800000D01*
X99175000Y-77975000D02*
X99175000Y-95375000D01*
X99175000Y-95375000D02*
X97925000Y-96625000D01*
X101050000Y-79625000D02*
X101050000Y-88900000D01*
X101050000Y-88900000D02*
X101050000Y-97000000D01*
X99750000Y-98300000D02*
X99750000Y-100100000D01*
X101050000Y-97000000D02*
X99750000Y-98300000D01*
X105600000Y-91475000D02*
X105600000Y-91900000D01*
X125625000Y-92950000D02*
X135600000Y-92950000D01*
X105600000Y-91900000D02*
X106650000Y-92950000D01*
X106650000Y-92950000D02*
X109650000Y-92950000D01*
X101075000Y-74950000D02*
X101075000Y-76800000D01*
X101075000Y-76800000D02*
X101525000Y-77250000D01*
X105600000Y-81325000D02*
X105600000Y-91475000D01*
X101525000Y-77250000D02*
X105600000Y-81325000D01*
X117275000Y-75750000D02*
X117275000Y-81093948D01*
X117275000Y-81093948D02*
X118629800Y-82448748D01*
X118629800Y-82448748D02*
X118629800Y-89054800D01*
X118629800Y-89054800D02*
X123000000Y-93425000D01*
X123000000Y-93425000D02*
X123000000Y-95475000D01*
X103675000Y-100125000D02*
X106150000Y-100125000D01*
X108175000Y-81875000D02*
X106622800Y-83427200D01*
X106622800Y-91247800D02*
X106625000Y-91250000D01*
X103000000Y-100800000D02*
X103675000Y-100125000D01*
X106622800Y-83427200D02*
X106622800Y-91247800D01*
X102200000Y-97125000D02*
X102200000Y-98950000D01*
X102200000Y-80725000D02*
X102200000Y-97125000D01*
X102200000Y-98950000D02*
X101050000Y-100100000D01*
X105350000Y-76050000D02*
X107575000Y-76050000D01*
X112525000Y-79825000D02*
X112525000Y-96425000D01*
X105125000Y-76275000D02*
X105350000Y-76050000D01*
X107950000Y-76425000D02*
X109125000Y-76425000D01*
X109125000Y-76425000D02*
X112525000Y-79825000D01*
X107575000Y-76050000D02*
X107950000Y-76425000D01*
X112525000Y-96425000D02*
X113800000Y-97700000D01*
X106575000Y-93750000D02*
X109650000Y-93750000D01*
X99675000Y-76800000D02*
X105200000Y-82325000D01*
X99675000Y-74250000D02*
X99675000Y-76800000D01*
X105200000Y-82325000D02*
X105200000Y-92375000D01*
X105200000Y-92375000D02*
X106575000Y-93750000D01*
X125625000Y-93750000D02*
X134950000Y-93750000D01*
X121050000Y-92850000D02*
X121050000Y-94900000D01*
X115550000Y-73875000D02*
X115550000Y-80775000D01*
X117600000Y-89400000D02*
X121050000Y-92850000D01*
X115550000Y-80775000D02*
X117600000Y-82825000D01*
X117600000Y-82825000D02*
X117600000Y-89400000D01*
X102775000Y-81275000D02*
X102775000Y-99725000D01*
X102775000Y-99725000D02*
X101700000Y-100800000D01*
X107475000Y-76775000D02*
X109025000Y-76775000D01*
X112200000Y-79950000D02*
X112200000Y-97150000D01*
X112200000Y-97150000D02*
X113800000Y-98750000D01*
X109025000Y-76775000D02*
X112200000Y-79950000D01*
X104025000Y-82375000D02*
X104025000Y-88300000D01*
X104025000Y-94225000D02*
X109900000Y-100100000D01*
X104025000Y-88300000D02*
X104025000Y-94225000D01*
X111550000Y-80200000D02*
X109150000Y-77800000D01*
X105338160Y-77800000D02*
X105231580Y-77693420D01*
X113800000Y-100800000D02*
X111550000Y-98550000D01*
X111550000Y-98550000D02*
X111550000Y-80200000D01*
X109150000Y-77800000D02*
X105338160Y-77800000D01*
X109450000Y-119900000D02*
X109450000Y-117600000D01*
X125950000Y-119900000D02*
X125954600Y-119904600D01*
X125954600Y-119904600D02*
X125954600Y-122050600D01*
X106725000Y-120960200D02*
X106725000Y-119900000D01*
X105634600Y-122050600D02*
X106725000Y-120960200D01*
X132250000Y-112225000D02*
X135650000Y-115625000D01*
X135650000Y-115625000D02*
X135650000Y-117875000D01*
X130975000Y-112225000D02*
X132250000Y-112225000D01*
X135650000Y-117875000D02*
X136975000Y-119200000D01*
X114750000Y-112725000D02*
X109150000Y-112725000D01*
X109150000Y-112725000D02*
X108600000Y-112175000D01*
X121925000Y-119900000D02*
X114750000Y-112725000D01*
X113550000Y-114450000D02*
X116925000Y-117825000D01*
X116925000Y-117825000D02*
X116925000Y-119900000D01*
X115794600Y-122050600D02*
X115794600Y-117819600D01*
X111100000Y-114425000D02*
X110550000Y-113875000D01*
X112400000Y-114425000D02*
X111100000Y-114425000D01*
X115794600Y-117819600D02*
X112400000Y-114425000D01*
X110714600Y-117060400D02*
X110714600Y-122050600D01*
X110725000Y-117050000D02*
X110714600Y-117060400D01*
X118334600Y-122050600D02*
X118334600Y-119909600D01*
X118334600Y-119909600D02*
X118325000Y-119900000D01*
X133574600Y-114399600D02*
X133574600Y-122050600D01*
X132075000Y-112900000D02*
X133574600Y-114399600D01*
X114225000Y-117075000D02*
X114225000Y-119900000D01*
X109900000Y-113300000D02*
X109900000Y-114150000D01*
X109900000Y-114150000D02*
X110625000Y-114875000D01*
X110625000Y-114875000D02*
X112025000Y-114875000D01*
X112025000Y-114875000D02*
X114225000Y-117075000D01*
X128500000Y-122045200D02*
X128494600Y-122050600D01*
X127725000Y-119925000D02*
X127725000Y-120225000D01*
X128500000Y-121000000D02*
X128500000Y-122045200D01*
X127725000Y-120225000D02*
X128500000Y-121000000D01*
X111325000Y-116400000D02*
X111325000Y-119900000D01*
X136975000Y-116025000D02*
X136975000Y-117831000D01*
X133175000Y-112225000D02*
X136975000Y-116025000D01*
X119525000Y-118950000D02*
X114450000Y-113875000D01*
X114450000Y-113875000D02*
X111850000Y-113875000D01*
X119525000Y-119900000D02*
X119525000Y-118950000D01*
X108174600Y-122050600D02*
X108174600Y-118200000D01*
X113254600Y-117004600D02*
X113254600Y-122050600D01*
X111550000Y-115300000D02*
X113254600Y-117004600D01*
X109250000Y-113875000D02*
X109250000Y-114000000D01*
X109250000Y-114000000D02*
X110550000Y-115300000D01*
X110550000Y-115300000D02*
X111550000Y-115300000D01*
X130275000Y-113850000D02*
X130275000Y-120225000D01*
X130275000Y-120225000D02*
X131034600Y-120984600D01*
X131034600Y-120984600D02*
X131034600Y-122050600D01*
X123414600Y-122050600D02*
X123414600Y-118689600D01*
X123414600Y-118689600D02*
X116900000Y-112175000D01*
X116900000Y-112175000D02*
X112500000Y-112175000D01*
X120874600Y-119550400D02*
X114624200Y-113300000D01*
X120874600Y-122050600D02*
X120874600Y-119550400D01*
X114624200Y-113300000D02*
X111200000Y-113300000D01*
X131050000Y-114675000D02*
X131050000Y-119925000D01*
G04 #@! TA.AperFunction,Conductor*
G36*
X157341177Y-68070185D02*
G01*
X157361819Y-68086819D01*
X157663177Y-68388177D01*
X157696662Y-68449500D01*
X157699496Y-68475873D01*
X157697048Y-88274201D01*
X157677355Y-88341238D01*
X157624546Y-88386987D01*
X157555386Y-88396922D01*
X157491834Y-88367889D01*
X157485367Y-88361867D01*
X156099035Y-86975535D01*
X156099030Y-86975531D01*
X156044807Y-86939302D01*
X156044805Y-86939300D01*
X156039959Y-86936063D01*
X155951547Y-86876987D01*
X155862500Y-86840103D01*
X155856626Y-86837670D01*
X155856619Y-86837666D01*
X155787666Y-86809105D01*
X155787658Y-86809103D01*
X155613696Y-86774500D01*
X155613692Y-86774500D01*
X155613691Y-86774500D01*
X148499362Y-86774500D01*
X148432323Y-86754815D01*
X148411681Y-86738181D01*
X145186819Y-83513319D01*
X145153334Y-83451996D01*
X145150500Y-83425638D01*
X145150500Y-81800700D01*
X145170185Y-81733661D01*
X145222989Y-81687906D01*
X145274500Y-81676700D01*
X146925500Y-81676700D01*
X146992539Y-81696385D01*
X147038294Y-81749189D01*
X147049500Y-81800700D01*
X147049500Y-81966286D01*
X147081518Y-82168443D01*
X147082754Y-82176243D01*
X147146428Y-82372211D01*
X147148444Y-82378414D01*
X147244951Y-82567820D01*
X147369890Y-82739786D01*
X147520213Y-82890109D01*
X147692182Y-83015050D01*
X147700946Y-83019516D01*
X147751742Y-83067491D01*
X147768536Y-83135312D01*
X147745998Y-83201447D01*
X147700946Y-83240484D01*
X147692182Y-83244949D01*
X147520213Y-83369890D01*
X147369890Y-83520213D01*
X147244951Y-83692179D01*
X147148444Y-83881585D01*
X147082753Y-84083760D01*
X147049500Y-84293713D01*
X147049500Y-84506286D01*
X147081518Y-84708443D01*
X147082754Y-84716243D01*
X147145676Y-84909897D01*
X147148444Y-84918414D01*
X147244951Y-85107820D01*
X147369890Y-85279786D01*
X147520213Y-85430109D01*
X147692179Y-85555048D01*
X147692181Y-85555049D01*
X147692184Y-85555051D01*
X147881588Y-85651557D01*
X148083757Y-85717246D01*
X148293713Y-85750500D01*
X148293714Y-85750500D01*
X148506286Y-85750500D01*
X148506287Y-85750500D01*
X148716243Y-85717246D01*
X148918412Y-85651557D01*
X149107816Y-85555051D01*
X149223937Y-85470685D01*
X149279786Y-85430109D01*
X149279788Y-85430106D01*
X149279792Y-85430104D01*
X149430104Y-85279792D01*
X149430106Y-85279788D01*
X149430109Y-85279786D01*
X149555048Y-85107820D01*
X149555047Y-85107820D01*
X149555051Y-85107816D01*
X149559514Y-85099054D01*
X149607488Y-85048259D01*
X149675308Y-85031463D01*
X149741444Y-85053999D01*
X149780486Y-85099056D01*
X149784951Y-85107820D01*
X149909890Y-85279786D01*
X150060213Y-85430109D01*
X150232179Y-85555048D01*
X150232181Y-85555049D01*
X150232184Y-85555051D01*
X150421588Y-85651557D01*
X150623757Y-85717246D01*
X150833713Y-85750500D01*
X150833714Y-85750500D01*
X151046286Y-85750500D01*
X151046287Y-85750500D01*
X151256243Y-85717246D01*
X151458412Y-85651557D01*
X151647816Y-85555051D01*
X151763937Y-85470685D01*
X151819786Y-85430109D01*
X151819788Y-85430106D01*
X151819792Y-85430104D01*
X151970104Y-85279792D01*
X151970106Y-85279788D01*
X151970109Y-85279786D01*
X152095048Y-85107820D01*
X152095047Y-85107820D01*
X152095051Y-85107816D01*
X152191557Y-84918412D01*
X152257246Y-84716243D01*
X152290500Y-84506287D01*
X152290500Y-84293713D01*
X152257246Y-84083757D01*
X152191557Y-83881588D01*
X152095051Y-83692184D01*
X152095049Y-83692181D01*
X152095048Y-83692179D01*
X151970109Y-83520213D01*
X151819786Y-83369890D01*
X151647820Y-83244951D01*
X151647115Y-83244591D01*
X151639054Y-83240485D01*
X151588259Y-83192512D01*
X151571463Y-83124692D01*
X151593999Y-83058556D01*
X151639054Y-83019515D01*
X151647816Y-83015051D01*
X151695157Y-82980656D01*
X151819786Y-82890109D01*
X151819788Y-82890106D01*
X151819792Y-82890104D01*
X151970104Y-82739792D01*
X151970106Y-82739788D01*
X151970109Y-82739786D01*
X152095048Y-82567820D01*
X152095047Y-82567820D01*
X152095051Y-82567816D01*
X152191557Y-82378412D01*
X152257246Y-82176243D01*
X152290500Y-81966287D01*
X152290500Y-81753713D01*
X152257246Y-81543757D01*
X152191557Y-81341588D01*
X152095051Y-81152184D01*
X152095049Y-81152181D01*
X152095048Y-81152179D01*
X151970109Y-80980213D01*
X151819786Y-80829890D01*
X151647820Y-80704951D01*
X151647115Y-80704591D01*
X151639054Y-80700485D01*
X151588259Y-80652512D01*
X151571463Y-80584692D01*
X151593999Y-80518556D01*
X151639054Y-80479515D01*
X151647816Y-80475051D01*
X151747595Y-80402558D01*
X151819786Y-80350109D01*
X151819788Y-80350106D01*
X151819792Y-80350104D01*
X151970104Y-80199792D01*
X151970106Y-80199788D01*
X151970109Y-80199786D01*
X152095048Y-80027820D01*
X152095047Y-80027820D01*
X152095051Y-80027816D01*
X152191557Y-79838412D01*
X152257246Y-79636243D01*
X152290500Y-79426287D01*
X152290500Y-79213713D01*
X152257246Y-79003757D01*
X152191557Y-78801588D01*
X152095051Y-78612184D01*
X152095049Y-78612181D01*
X152095048Y-78612179D01*
X151970109Y-78440213D01*
X151819786Y-78289890D01*
X151647820Y-78164951D01*
X151647115Y-78164591D01*
X151639054Y-78160485D01*
X151588259Y-78112512D01*
X151571463Y-78044692D01*
X151593999Y-77978556D01*
X151639054Y-77939515D01*
X151647816Y-77935051D01*
X151696949Y-77899354D01*
X151819786Y-77810109D01*
X151819788Y-77810106D01*
X151819792Y-77810104D01*
X151970104Y-77659792D01*
X151970106Y-77659788D01*
X151970109Y-77659786D01*
X152095048Y-77487820D01*
X152095047Y-77487820D01*
X152095051Y-77487816D01*
X152191557Y-77298412D01*
X152257246Y-77096243D01*
X152290500Y-76886287D01*
X152290500Y-76673713D01*
X152257246Y-76463757D01*
X152191557Y-76261588D01*
X152095051Y-76072184D01*
X152095049Y-76072181D01*
X152095048Y-76072179D01*
X151970109Y-75900213D01*
X151819786Y-75749890D01*
X151647820Y-75624951D01*
X151647115Y-75624591D01*
X151639054Y-75620485D01*
X151588259Y-75572512D01*
X151571463Y-75504692D01*
X151593999Y-75438556D01*
X151639054Y-75399515D01*
X151647816Y-75395051D01*
X151758138Y-75314898D01*
X151819786Y-75270109D01*
X151819788Y-75270106D01*
X151819792Y-75270104D01*
X151970104Y-75119792D01*
X151970106Y-75119788D01*
X151970109Y-75119786D01*
X152091382Y-74952866D01*
X152095051Y-74947816D01*
X152191557Y-74758412D01*
X152257246Y-74556243D01*
X152290500Y-74346287D01*
X152290500Y-74133713D01*
X152257246Y-73923757D01*
X152191557Y-73721588D01*
X152095051Y-73532184D01*
X152095049Y-73532181D01*
X152095048Y-73532179D01*
X151970109Y-73360213D01*
X151856181Y-73246285D01*
X151822696Y-73184962D01*
X151827680Y-73115270D01*
X151869552Y-73059337D01*
X151900529Y-73042422D01*
X152032086Y-72993354D01*
X152032093Y-72993350D01*
X152147187Y-72907190D01*
X152147190Y-72907187D01*
X152233350Y-72792093D01*
X152233354Y-72792086D01*
X152283596Y-72657379D01*
X152283598Y-72657372D01*
X152289999Y-72597844D01*
X152290000Y-72597827D01*
X152290000Y-71950000D01*
X151373012Y-71950000D01*
X151405925Y-71892993D01*
X151440000Y-71765826D01*
X151440000Y-71634174D01*
X151405925Y-71507007D01*
X151373012Y-71450000D01*
X152290000Y-71450000D01*
X152290000Y-70802172D01*
X152289999Y-70802155D01*
X152283598Y-70742627D01*
X152283596Y-70742620D01*
X152233354Y-70607913D01*
X152233350Y-70607906D01*
X152147190Y-70492812D01*
X152147187Y-70492809D01*
X152032093Y-70406649D01*
X152032086Y-70406645D01*
X151897379Y-70356403D01*
X151897372Y-70356401D01*
X151837844Y-70350000D01*
X151190000Y-70350000D01*
X151190000Y-71266988D01*
X151132993Y-71234075D01*
X151005826Y-71200000D01*
X150874174Y-71200000D01*
X150747007Y-71234075D01*
X150690000Y-71266988D01*
X150690000Y-70350000D01*
X150042155Y-70350000D01*
X149982627Y-70356401D01*
X149982620Y-70356403D01*
X149847913Y-70406645D01*
X149847906Y-70406649D01*
X149732812Y-70492809D01*
X149732809Y-70492812D01*
X149646649Y-70607906D01*
X149646645Y-70607913D01*
X149596403Y-70742619D01*
X149596401Y-70742626D01*
X149587497Y-70825444D01*
X149584434Y-70825114D01*
X149585336Y-70842094D01*
X149552356Y-70901195D01*
X148882962Y-71570590D01*
X148865925Y-71507007D01*
X148800099Y-71392993D01*
X148707007Y-71299901D01*
X148592993Y-71234075D01*
X148529409Y-71217037D01*
X149161716Y-70584728D01*
X149107550Y-70545375D01*
X148918217Y-70448904D01*
X148716129Y-70383242D01*
X148506246Y-70350000D01*
X148293754Y-70350000D01*
X148083872Y-70383242D01*
X148083869Y-70383242D01*
X147881782Y-70448904D01*
X147692439Y-70545380D01*
X147638282Y-70584727D01*
X147638282Y-70584728D01*
X148270591Y-71217037D01*
X148207007Y-71234075D01*
X148092993Y-71299901D01*
X147999901Y-71392993D01*
X147934075Y-71507007D01*
X147917037Y-71570591D01*
X147284728Y-70938282D01*
X147284727Y-70938282D01*
X147245380Y-70992439D01*
X147148904Y-71181782D01*
X147083242Y-71383869D01*
X147083242Y-71383872D01*
X147050000Y-71593753D01*
X147050000Y-71806246D01*
X147083242Y-72016127D01*
X147083242Y-72016130D01*
X147148904Y-72218217D01*
X147245375Y-72407550D01*
X147284728Y-72461716D01*
X147917037Y-71829408D01*
X147934075Y-71892993D01*
X147999901Y-72007007D01*
X148092993Y-72100099D01*
X148207007Y-72165925D01*
X148270590Y-72182962D01*
X147638282Y-72815269D01*
X147638282Y-72815270D01*
X147692452Y-72854626D01*
X147692451Y-72854626D01*
X147701495Y-72859234D01*
X147752292Y-72907208D01*
X147769087Y-72975029D01*
X147746550Y-73041164D01*
X147701499Y-73080202D01*
X147692182Y-73084949D01*
X147520213Y-73209890D01*
X147369890Y-73360213D01*
X147244951Y-73532179D01*
X147148444Y-73721585D01*
X147082753Y-73923760D01*
X147060828Y-74062189D01*
X147049500Y-74133713D01*
X147049500Y-74346287D01*
X147053781Y-74373316D01*
X147081518Y-74548444D01*
X147082754Y-74556243D01*
X147146714Y-74753092D01*
X147148444Y-74758414D01*
X147244951Y-74947820D01*
X147369890Y-75119786D01*
X147520213Y-75270109D01*
X147692182Y-75395050D01*
X147700946Y-75399516D01*
X147751742Y-75447491D01*
X147768536Y-75515312D01*
X147745998Y-75581447D01*
X147700946Y-75620484D01*
X147692182Y-75624949D01*
X147520213Y-75749890D01*
X147369890Y-75900213D01*
X147244951Y-76072179D01*
X147148444Y-76261585D01*
X147082753Y-76463760D01*
X147052234Y-76656453D01*
X147049500Y-76673713D01*
X147049500Y-76886287D01*
X147066127Y-76991265D01*
X147082754Y-77096244D01*
X147082754Y-77096247D01*
X147104745Y-77163927D01*
X147106740Y-77233768D01*
X147074495Y-77289926D01*
X146252442Y-78111981D01*
X146191119Y-78145466D01*
X146164761Y-78148300D01*
X143944250Y-78148300D01*
X143877211Y-78128615D01*
X143831456Y-78075811D01*
X143821512Y-78006653D01*
X143850537Y-77943097D01*
X143871362Y-77923984D01*
X143872484Y-77923168D01*
X143877510Y-77919517D01*
X144044517Y-77752510D01*
X144183343Y-77561433D01*
X144290568Y-77350992D01*
X144363553Y-77126368D01*
X144373278Y-77064966D01*
X144400500Y-76893097D01*
X144400500Y-76656902D01*
X144363553Y-76423631D01*
X144314996Y-76274189D01*
X144290568Y-76199008D01*
X144290566Y-76199005D01*
X144290566Y-76199003D01*
X144204701Y-76030485D01*
X144183343Y-75988567D01*
X144044517Y-75797490D01*
X143877510Y-75630483D01*
X143842872Y-75605317D01*
X143800207Y-75549989D01*
X143794228Y-75480375D01*
X143826833Y-75418580D01*
X143842873Y-75404682D01*
X143877510Y-75379517D01*
X144044517Y-75212510D01*
X144183343Y-75021433D01*
X144290568Y-74810992D01*
X144363553Y-74586368D01*
X144366676Y-74566651D01*
X144400500Y-74353097D01*
X144400500Y-74116902D01*
X144363553Y-73883631D01*
X144323919Y-73761651D01*
X144290568Y-73659008D01*
X144290566Y-73659005D01*
X144290566Y-73659003D01*
X144224790Y-73529912D01*
X144183343Y-73448567D01*
X144044517Y-73257490D01*
X143877510Y-73090483D01*
X143863359Y-73080202D01*
X143818283Y-73047452D01*
X143775617Y-72992122D01*
X143767550Y-72937404D01*
X143769104Y-72917657D01*
X142988584Y-72137138D01*
X143073694Y-72114333D01*
X143176306Y-72055090D01*
X143260090Y-71971306D01*
X143319333Y-71868694D01*
X143342138Y-71783585D01*
X144122658Y-72564105D01*
X144122658Y-72564104D01*
X144182914Y-72481169D01*
X144182918Y-72481163D01*
X144290102Y-72270802D01*
X144363065Y-72046247D01*
X144400000Y-71813052D01*
X144400000Y-71576947D01*
X144363065Y-71343752D01*
X144290102Y-71119197D01*
X144182914Y-70908828D01*
X144122658Y-70825894D01*
X144122658Y-70825893D01*
X143342137Y-71606414D01*
X143319333Y-71521306D01*
X143260090Y-71418694D01*
X143176306Y-71334910D01*
X143073694Y-71275667D01*
X142988584Y-71252861D01*
X143697140Y-70544306D01*
X143769105Y-70472340D01*
X143769104Y-70472338D01*
X143686174Y-70412087D01*
X143475802Y-70304897D01*
X143251247Y-70231934D01*
X143251248Y-70231934D01*
X143018052Y-70195000D01*
X142781948Y-70195000D01*
X142548752Y-70231934D01*
X142324197Y-70304897D01*
X142113830Y-70412084D01*
X142030894Y-70472340D01*
X142811415Y-71252861D01*
X142726306Y-71275667D01*
X142623694Y-71334910D01*
X142539910Y-71418694D01*
X142480667Y-71521306D01*
X142457861Y-71606415D01*
X141677340Y-70825894D01*
X141617084Y-70908830D01*
X141509897Y-71119197D01*
X141436934Y-71343752D01*
X141400000Y-71576947D01*
X141400000Y-71813052D01*
X141436934Y-72046247D01*
X141509897Y-72270802D01*
X141617087Y-72481174D01*
X141677338Y-72564104D01*
X141677340Y-72564105D01*
X142457861Y-71783584D01*
X142480667Y-71868694D01*
X142539910Y-71971306D01*
X142623694Y-72055090D01*
X142726306Y-72114333D01*
X142811415Y-72137138D01*
X142030893Y-72917658D01*
X142032448Y-72937405D01*
X142018084Y-73005783D01*
X141981717Y-73047451D01*
X141922490Y-73090482D01*
X141755485Y-73257487D01*
X141755485Y-73257488D01*
X141755483Y-73257490D01*
X141711768Y-73317658D01*
X141616657Y-73448566D01*
X141509433Y-73659003D01*
X141436446Y-73883631D01*
X141399500Y-74116902D01*
X141399500Y-74353097D01*
X141436446Y-74586368D01*
X141509433Y-74810996D01*
X141599836Y-74988420D01*
X141616657Y-75021433D01*
X141755483Y-75212510D01*
X141922490Y-75379517D01*
X141957127Y-75404683D01*
X141999792Y-75460013D01*
X142005771Y-75529626D01*
X141973165Y-75591421D01*
X141957130Y-75605315D01*
X141947226Y-75612511D01*
X141922488Y-75630484D01*
X141755485Y-75797487D01*
X141755485Y-75797488D01*
X141755483Y-75797490D01*
X141727034Y-75836647D01*
X141616657Y-75988566D01*
X141509433Y-76199003D01*
X141436446Y-76423631D01*
X141399500Y-76656902D01*
X141399500Y-76893097D01*
X141436446Y-77126368D01*
X141509433Y-77350996D01*
X141598790Y-77526368D01*
X141616657Y-77561433D01*
X141755483Y-77752510D01*
X141922490Y-77919517D01*
X141922493Y-77919519D01*
X141928638Y-77923984D01*
X141971302Y-77979315D01*
X141977280Y-78048928D01*
X141944672Y-78110722D01*
X141883833Y-78145078D01*
X141855750Y-78148300D01*
X137700924Y-78148300D01*
X137549075Y-78148300D01*
X137402402Y-78187601D01*
X137402400Y-78187601D01*
X137402400Y-78187602D01*
X137270891Y-78263529D01*
X137264448Y-78268474D01*
X137263895Y-78267753D01*
X137260955Y-78271682D01*
X137236184Y-78280920D01*
X137212977Y-78293587D01*
X137203960Y-78292940D01*
X137195491Y-78296099D01*
X137169656Y-78290478D01*
X137143286Y-78288587D01*
X137134245Y-78282775D01*
X137127218Y-78281247D01*
X137098964Y-78260096D01*
X137088019Y-78249151D01*
X137054534Y-78187828D01*
X137051700Y-78161470D01*
X137051700Y-75718529D01*
X137071385Y-75651490D01*
X137088020Y-75630847D01*
X137125515Y-75593352D01*
X137125518Y-75593349D01*
X137213648Y-75461453D01*
X137214245Y-75460013D01*
X137240096Y-75397601D01*
X137274353Y-75314897D01*
X137280031Y-75286355D01*
X137295021Y-75210992D01*
X137305300Y-75159315D01*
X137305300Y-75000685D01*
X137302100Y-74984597D01*
X137274355Y-74845110D01*
X137274352Y-74845101D01*
X137213651Y-74698553D01*
X137213644Y-74698540D01*
X137125518Y-74566651D01*
X137125515Y-74566647D01*
X137013352Y-74454484D01*
X137013348Y-74454481D01*
X136881459Y-74366355D01*
X136881446Y-74366348D01*
X136734898Y-74305647D01*
X136734889Y-74305644D01*
X136579319Y-74274700D01*
X136579315Y-74274700D01*
X136420685Y-74274700D01*
X136420680Y-74274700D01*
X136265110Y-74305644D01*
X136265101Y-74305647D01*
X136118553Y-74366348D01*
X136118540Y-74366355D01*
X135986651Y-74454481D01*
X135986647Y-74454484D01*
X135874484Y-74566647D01*
X135874481Y-74566651D01*
X135786355Y-74698540D01*
X135786348Y-74698553D01*
X135725647Y-74845101D01*
X135725644Y-74845110D01*
X135694700Y-75000680D01*
X135694700Y-75006470D01*
X135675015Y-75073509D01*
X135622211Y-75119264D01*
X135553053Y-75129208D01*
X135489497Y-75100183D01*
X135483019Y-75094151D01*
X135388352Y-74999484D01*
X135388348Y-74999481D01*
X135256459Y-74911355D01*
X135256446Y-74911348D01*
X135109898Y-74850647D01*
X135109889Y-74850644D01*
X134954319Y-74819700D01*
X134954315Y-74819700D01*
X134795685Y-74819700D01*
X134795680Y-74819700D01*
X134640110Y-74850644D01*
X134640101Y-74850647D01*
X134493554Y-74911348D01*
X134493545Y-74911353D01*
X134448305Y-74941581D01*
X134381627Y-74962457D01*
X134314247Y-74943971D01*
X134291735Y-74926158D01*
X133079104Y-73713527D01*
X133079098Y-73713522D01*
X132947600Y-73637602D01*
X132947599Y-73637601D01*
X132947598Y-73637601D01*
X132800924Y-73598300D01*
X132800923Y-73598300D01*
X131963530Y-73598300D01*
X131896491Y-73578615D01*
X131875849Y-73561981D01*
X131863352Y-73549484D01*
X131863348Y-73549481D01*
X131731459Y-73461355D01*
X131731446Y-73461348D01*
X131584898Y-73400647D01*
X131584889Y-73400644D01*
X131429319Y-73369700D01*
X131429315Y-73369700D01*
X131270685Y-73369700D01*
X131270680Y-73369700D01*
X131115110Y-73400644D01*
X131115101Y-73400647D01*
X130968553Y-73461348D01*
X130968540Y-73461355D01*
X130836651Y-73549481D01*
X130741215Y-73644917D01*
X130679891Y-73678401D01*
X130610200Y-73673417D01*
X130554267Y-73631545D01*
X130538973Y-73604687D01*
X130513651Y-73543552D01*
X130513644Y-73543540D01*
X130425518Y-73411651D01*
X130425515Y-73411647D01*
X130313352Y-73299484D01*
X130313348Y-73299481D01*
X130181459Y-73211355D01*
X130181446Y-73211348D01*
X130034898Y-73150647D01*
X130034889Y-73150644D01*
X129879319Y-73119700D01*
X129879315Y-73119700D01*
X129720685Y-73119700D01*
X129720680Y-73119700D01*
X129565110Y-73150644D01*
X129565101Y-73150647D01*
X129418553Y-73211348D01*
X129418541Y-73211355D01*
X129397577Y-73225362D01*
X129330899Y-73246237D01*
X129263519Y-73227750D01*
X129216831Y-73175769D01*
X129214126Y-73169702D01*
X129213648Y-73168547D01*
X129213643Y-73168540D01*
X129125518Y-73036650D01*
X129013352Y-72924484D01*
X129013348Y-72924481D01*
X128881459Y-72836355D01*
X128881446Y-72836348D01*
X128734898Y-72775647D01*
X128734889Y-72775644D01*
X128579319Y-72744700D01*
X128579315Y-72744700D01*
X128420685Y-72744700D01*
X128420680Y-72744700D01*
X128265110Y-72775644D01*
X128265101Y-72775647D01*
X128118553Y-72836348D01*
X128118540Y-72836355D01*
X127986651Y-72924481D01*
X127986647Y-72924484D01*
X127874484Y-73036647D01*
X127874481Y-73036651D01*
X127786355Y-73168540D01*
X127786348Y-73168553D01*
X127725647Y-73315101D01*
X127725644Y-73315110D01*
X127694700Y-73470680D01*
X127694700Y-73488361D01*
X127675015Y-73555400D01*
X127658381Y-73576042D01*
X126988527Y-74245895D01*
X126988522Y-74245901D01*
X126912602Y-74377398D01*
X126912602Y-74377399D01*
X126912601Y-74377401D01*
X126912601Y-74377402D01*
X126891948Y-74454481D01*
X126873300Y-74524076D01*
X126873300Y-75661470D01*
X126853615Y-75728509D01*
X126836981Y-75749151D01*
X126824484Y-75761647D01*
X126824481Y-75761651D01*
X126736355Y-75893540D01*
X126736348Y-75893553D01*
X126675647Y-76040101D01*
X126675644Y-76040110D01*
X126644700Y-76195680D01*
X126644700Y-76354318D01*
X126650000Y-76380962D01*
X126643773Y-76450553D01*
X126600910Y-76505730D01*
X126535020Y-76528975D01*
X126480932Y-76519715D01*
X126465570Y-76513352D01*
X126434897Y-76500647D01*
X126434893Y-76500646D01*
X126434889Y-76500644D01*
X126279319Y-76469700D01*
X126279315Y-76469700D01*
X126120685Y-76469700D01*
X126120680Y-76469700D01*
X125965110Y-76500644D01*
X125965101Y-76500647D01*
X125818553Y-76561348D01*
X125818540Y-76561355D01*
X125686651Y-76649481D01*
X125686647Y-76649484D01*
X125574484Y-76761647D01*
X125574481Y-76761651D01*
X125486355Y-76893540D01*
X125486348Y-76893553D01*
X125425647Y-77040101D01*
X125425644Y-77040110D01*
X125394700Y-77195680D01*
X125394700Y-77354319D01*
X125425644Y-77509889D01*
X125425647Y-77509898D01*
X125486348Y-77656445D01*
X125486350Y-77656449D01*
X125486352Y-77656453D01*
X125486355Y-77656457D01*
X125486357Y-77656461D01*
X125511179Y-77693611D01*
X125532056Y-77760288D01*
X125513571Y-77827668D01*
X125511179Y-77831389D01*
X125486357Y-77868538D01*
X125486348Y-77868554D01*
X125425647Y-78015101D01*
X125425644Y-78015110D01*
X125394700Y-78170680D01*
X125394700Y-78170685D01*
X125394700Y-78329315D01*
X125398769Y-78349770D01*
X125409538Y-78403914D01*
X125403309Y-78473506D01*
X125360446Y-78528683D01*
X125294556Y-78551926D01*
X125240468Y-78542665D01*
X125184898Y-78519647D01*
X125184889Y-78519644D01*
X125029319Y-78488700D01*
X125029315Y-78488700D01*
X124870685Y-78488700D01*
X124870680Y-78488700D01*
X124715110Y-78519644D01*
X124715101Y-78519647D01*
X124568553Y-78580348D01*
X124568540Y-78580355D01*
X124436651Y-78668481D01*
X124436647Y-78668484D01*
X124324484Y-78780647D01*
X124324481Y-78780651D01*
X124299398Y-78818191D01*
X124245786Y-78862996D01*
X124196296Y-78873300D01*
X123765239Y-78873300D01*
X123698200Y-78853615D01*
X123677558Y-78836981D01*
X119814903Y-74974326D01*
X119781418Y-74913003D01*
X119786402Y-74843311D01*
X119814906Y-74798961D01*
X119825516Y-74788351D01*
X119825518Y-74788349D01*
X119913648Y-74656453D01*
X119974353Y-74509897D01*
X119977255Y-74495311D01*
X120000708Y-74377399D01*
X120005300Y-74354315D01*
X120005300Y-74195685D01*
X119992973Y-74133713D01*
X119974355Y-74040110D01*
X119974352Y-74040101D01*
X119913651Y-73893553D01*
X119913644Y-73893540D01*
X119825518Y-73761651D01*
X119825515Y-73761647D01*
X119713352Y-73649484D01*
X119713348Y-73649481D01*
X119581459Y-73561355D01*
X119581446Y-73561348D01*
X119434898Y-73500647D01*
X119434889Y-73500644D01*
X119279319Y-73469700D01*
X119279315Y-73469700D01*
X119120685Y-73469700D01*
X119120680Y-73469700D01*
X118965110Y-73500644D01*
X118965106Y-73500646D01*
X118965104Y-73500646D01*
X118965103Y-73500647D01*
X118927768Y-73516111D01*
X118836971Y-73553720D01*
X118767502Y-73561188D01*
X118705023Y-73529912D01*
X118701839Y-73526839D01*
X118450000Y-73275000D01*
X116138811Y-73275000D01*
X116071772Y-73255315D01*
X116068334Y-73252813D01*
X116063347Y-73249481D01*
X116027251Y-73225362D01*
X115931459Y-73161355D01*
X115931446Y-73161348D01*
X115784898Y-73100647D01*
X115784889Y-73100644D01*
X115629319Y-73069700D01*
X115629315Y-73069700D01*
X115470685Y-73069700D01*
X115470680Y-73069700D01*
X115315110Y-73100644D01*
X115315101Y-73100647D01*
X115168553Y-73161348D01*
X115168540Y-73161355D01*
X115036651Y-73249481D01*
X115036647Y-73249484D01*
X115022451Y-73263681D01*
X114961128Y-73297166D01*
X114934770Y-73300000D01*
X109216939Y-73300000D01*
X109149900Y-73280315D01*
X109129258Y-73263681D01*
X107479104Y-71613527D01*
X107479098Y-71613522D01*
X107347600Y-71537602D01*
X107347599Y-71537601D01*
X107347598Y-71537601D01*
X107200924Y-71498300D01*
X99135924Y-71498300D01*
X98984076Y-71498300D01*
X98837401Y-71537601D01*
X98788343Y-71565925D01*
X98705904Y-71613522D01*
X98705895Y-71613527D01*
X98625352Y-71694069D01*
X98564029Y-71727554D01*
X98524665Y-71724737D01*
X98524665Y-71725000D01*
X98047064Y-71725000D01*
X97980025Y-71705315D01*
X97934270Y-71652511D01*
X97929133Y-71639319D01*
X97890102Y-71519195D01*
X97782914Y-71308828D01*
X97722658Y-71225894D01*
X97722658Y-71225893D01*
X96942138Y-72006415D01*
X96919333Y-71921306D01*
X96860090Y-71818694D01*
X96776306Y-71734910D01*
X96673694Y-71675667D01*
X96588584Y-71652861D01*
X97369105Y-70872340D01*
X97369104Y-70872338D01*
X97286174Y-70812087D01*
X97075802Y-70704897D01*
X96851247Y-70631934D01*
X96851248Y-70631934D01*
X96618052Y-70595000D01*
X96381948Y-70595000D01*
X96148752Y-70631934D01*
X95924197Y-70704897D01*
X95713830Y-70812084D01*
X95630894Y-70872340D01*
X96411415Y-71652861D01*
X96326306Y-71675667D01*
X96223694Y-71734910D01*
X96139910Y-71818694D01*
X96080667Y-71921306D01*
X96057861Y-72006415D01*
X95277340Y-71225894D01*
X95217084Y-71308830D01*
X95109897Y-71519197D01*
X95036934Y-71743752D01*
X95000000Y-71976947D01*
X95000000Y-72213052D01*
X95036934Y-72446247D01*
X95109897Y-72670802D01*
X95217087Y-72881174D01*
X95277338Y-72964104D01*
X95277340Y-72964105D01*
X96057861Y-72183584D01*
X96080667Y-72268694D01*
X96139910Y-72371306D01*
X96223694Y-72455090D01*
X96326306Y-72514333D01*
X96411414Y-72537137D01*
X95630893Y-73317658D01*
X95632448Y-73337405D01*
X95618084Y-73405783D01*
X95581717Y-73447451D01*
X95522490Y-73490482D01*
X95355485Y-73657487D01*
X95355485Y-73657488D01*
X95355483Y-73657490D01*
X95308915Y-73721585D01*
X95216657Y-73848566D01*
X95109433Y-74059003D01*
X95036446Y-74283631D01*
X94999500Y-74516902D01*
X94999500Y-74753097D01*
X95036446Y-74986368D01*
X95109433Y-75210996D01*
X95203213Y-75395048D01*
X95216657Y-75421433D01*
X95355483Y-75612510D01*
X95522490Y-75779517D01*
X95557127Y-75804683D01*
X95599792Y-75860013D01*
X95605771Y-75929626D01*
X95573165Y-75991421D01*
X95557130Y-76005315D01*
X95539365Y-76018222D01*
X95522488Y-76030484D01*
X95355485Y-76197487D01*
X95355485Y-76197488D01*
X95355483Y-76197490D01*
X95308915Y-76261585D01*
X95216657Y-76388566D01*
X95109433Y-76599003D01*
X95036446Y-76823631D01*
X94999500Y-77056902D01*
X94999500Y-77293097D01*
X95036446Y-77526368D01*
X95109433Y-77750996D01*
X95195298Y-77919514D01*
X95216657Y-77961433D01*
X95355483Y-78152510D01*
X95522490Y-78319517D01*
X95713567Y-78458343D01*
X95773146Y-78488700D01*
X95924003Y-78565566D01*
X95924005Y-78565566D01*
X95924008Y-78565568D01*
X95969518Y-78580355D01*
X96148631Y-78638553D01*
X96381903Y-78675500D01*
X96381908Y-78675500D01*
X96618097Y-78675500D01*
X96851368Y-78638553D01*
X96873219Y-78631453D01*
X97075992Y-78565568D01*
X97286433Y-78458343D01*
X97477510Y-78319517D01*
X97644517Y-78152510D01*
X97723982Y-78043135D01*
X97779312Y-78000470D01*
X97848925Y-77994491D01*
X97910720Y-78027097D01*
X97945077Y-78087935D01*
X97948300Y-78116021D01*
X97948300Y-94409761D01*
X97928615Y-94476800D01*
X97911981Y-94497442D01*
X96688527Y-95720895D01*
X96688522Y-95720901D01*
X96612602Y-95852398D01*
X96612602Y-95852399D01*
X96612601Y-95852401D01*
X96612601Y-95852402D01*
X96598817Y-95903845D01*
X96573300Y-95999076D01*
X96573300Y-99486470D01*
X96553615Y-99553509D01*
X96536981Y-99574151D01*
X96524484Y-99586647D01*
X96524481Y-99586651D01*
X96436355Y-99718540D01*
X96436348Y-99718553D01*
X96375647Y-99865101D01*
X96375644Y-99865110D01*
X96344700Y-100020680D01*
X96344700Y-100179319D01*
X96375644Y-100334889D01*
X96375647Y-100334898D01*
X96436348Y-100481446D01*
X96436355Y-100481459D01*
X96524481Y-100613348D01*
X96524484Y-100613352D01*
X96636647Y-100725515D01*
X96636651Y-100725518D01*
X96768540Y-100813644D01*
X96768553Y-100813651D01*
X96828910Y-100838651D01*
X96915103Y-100874353D01*
X96915679Y-100874467D01*
X96915950Y-100874609D01*
X96920936Y-100876122D01*
X96920649Y-100877066D01*
X96977591Y-100906845D01*
X97012171Y-100967558D01*
X97013114Y-100971894D01*
X97025645Y-101034890D01*
X97025647Y-101034898D01*
X97086348Y-101181446D01*
X97086355Y-101181459D01*
X97174481Y-101313348D01*
X97174484Y-101313352D01*
X97286647Y-101425515D01*
X97286651Y-101425518D01*
X97418540Y-101513644D01*
X97418553Y-101513651D01*
X97528464Y-101559176D01*
X97565103Y-101574353D01*
X97565105Y-101574353D01*
X97565110Y-101574355D01*
X97720680Y-101605299D01*
X97720684Y-101605300D01*
X97720685Y-101605300D01*
X97879316Y-101605300D01*
X97879317Y-101605299D01*
X97931175Y-101594984D01*
X98034889Y-101574355D01*
X98034892Y-101574353D01*
X98034897Y-101574353D01*
X98181453Y-101513648D01*
X98313349Y-101425518D01*
X98313352Y-101425515D01*
X98362319Y-101376549D01*
X98423642Y-101343064D01*
X98493334Y-101348048D01*
X98537681Y-101376549D01*
X98586647Y-101425515D01*
X98586651Y-101425518D01*
X98718540Y-101513644D01*
X98718553Y-101513651D01*
X98828464Y-101559176D01*
X98865103Y-101574353D01*
X98865105Y-101574353D01*
X98865110Y-101574355D01*
X99020680Y-101605299D01*
X99020684Y-101605300D01*
X99020685Y-101605300D01*
X99179316Y-101605300D01*
X99179317Y-101605299D01*
X99231175Y-101594984D01*
X99334889Y-101574355D01*
X99334892Y-101574353D01*
X99334897Y-101574353D01*
X99481453Y-101513648D01*
X99613349Y-101425518D01*
X99613352Y-101425515D01*
X99662319Y-101376549D01*
X99723642Y-101343064D01*
X99793334Y-101348048D01*
X99837681Y-101376549D01*
X99886647Y-101425515D01*
X99886651Y-101425518D01*
X100018540Y-101513644D01*
X100018553Y-101513651D01*
X100128464Y-101559176D01*
X100165103Y-101574353D01*
X100165105Y-101574353D01*
X100165110Y-101574355D01*
X100320680Y-101605299D01*
X100320684Y-101605300D01*
X100320685Y-101605300D01*
X100479316Y-101605300D01*
X100479317Y-101605299D01*
X100531175Y-101594984D01*
X100634889Y-101574355D01*
X100634892Y-101574353D01*
X100634897Y-101574353D01*
X100781453Y-101513648D01*
X100913349Y-101425518D01*
X100913352Y-101425515D01*
X100962319Y-101376549D01*
X101023642Y-101343064D01*
X101093334Y-101348048D01*
X101137681Y-101376549D01*
X101186647Y-101425515D01*
X101186651Y-101425518D01*
X101318540Y-101513644D01*
X101318553Y-101513651D01*
X101428464Y-101559176D01*
X101465103Y-101574353D01*
X101465105Y-101574353D01*
X101465110Y-101574355D01*
X101620680Y-101605299D01*
X101620684Y-101605300D01*
X101620685Y-101605300D01*
X101779316Y-101605300D01*
X101779317Y-101605299D01*
X101831175Y-101594984D01*
X101934889Y-101574355D01*
X101934892Y-101574353D01*
X101934897Y-101574353D01*
X102081453Y-101513648D01*
X102213349Y-101425518D01*
X102213352Y-101425515D01*
X102262319Y-101376549D01*
X102323642Y-101343064D01*
X102393334Y-101348048D01*
X102437681Y-101376549D01*
X102486647Y-101425515D01*
X102486651Y-101425518D01*
X102618540Y-101513644D01*
X102618553Y-101513651D01*
X102728464Y-101559176D01*
X102765103Y-101574353D01*
X102765105Y-101574353D01*
X102765110Y-101574355D01*
X102920680Y-101605299D01*
X102920684Y-101605300D01*
X102920685Y-101605300D01*
X103079316Y-101605300D01*
X103079317Y-101605299D01*
X103131175Y-101594984D01*
X103234889Y-101574355D01*
X103234892Y-101574353D01*
X103234897Y-101574353D01*
X103381453Y-101513648D01*
X103513349Y-101425518D01*
X103625518Y-101313349D01*
X103713648Y-101181453D01*
X103774353Y-101034897D01*
X103774353Y-101034892D01*
X103774355Y-101034889D01*
X103805299Y-100879319D01*
X103805300Y-100879316D01*
X103805300Y-100861639D01*
X103813944Y-100832198D01*
X103820468Y-100802212D01*
X103824222Y-100797196D01*
X103824985Y-100794600D01*
X103841619Y-100773958D01*
X103877558Y-100738019D01*
X103938881Y-100704534D01*
X103965239Y-100701700D01*
X105536470Y-100701700D01*
X105603509Y-100721385D01*
X105624151Y-100738019D01*
X105636647Y-100750515D01*
X105636651Y-100750518D01*
X105768540Y-100838644D01*
X105768553Y-100838651D01*
X105866729Y-100879316D01*
X105915103Y-100899353D01*
X105915105Y-100899353D01*
X105915110Y-100899355D01*
X106070680Y-100930299D01*
X106070684Y-100930300D01*
X106070685Y-100930300D01*
X106229316Y-100930300D01*
X106229317Y-100930299D01*
X106281175Y-100919984D01*
X106384889Y-100899355D01*
X106384892Y-100899353D01*
X106384897Y-100899353D01*
X106531453Y-100838648D01*
X106663349Y-100750518D01*
X106775518Y-100638349D01*
X106863648Y-100506453D01*
X106924353Y-100359897D01*
X106925659Y-100353334D01*
X106955299Y-100204319D01*
X106955300Y-100204316D01*
X106955300Y-100045684D01*
X106955299Y-100045680D01*
X106924355Y-99890110D01*
X106924352Y-99890101D01*
X106922800Y-99886355D01*
X106897655Y-99825647D01*
X106863651Y-99743553D01*
X106863644Y-99743540D01*
X106775518Y-99611651D01*
X106775515Y-99611647D01*
X106663352Y-99499484D01*
X106663348Y-99499481D01*
X106531459Y-99411355D01*
X106531446Y-99411348D01*
X106384898Y-99350647D01*
X106384889Y-99350644D01*
X106229319Y-99319700D01*
X106229315Y-99319700D01*
X106070685Y-99319700D01*
X106070680Y-99319700D01*
X105915110Y-99350644D01*
X105915101Y-99350647D01*
X105768553Y-99411348D01*
X105768540Y-99411355D01*
X105636651Y-99499481D01*
X105636647Y-99499484D01*
X105624151Y-99511981D01*
X105562828Y-99545466D01*
X105536470Y-99548300D01*
X103599076Y-99548300D01*
X103507793Y-99572759D01*
X103437943Y-99571096D01*
X103380081Y-99531933D01*
X103352577Y-99467704D01*
X103351700Y-99452984D01*
X103351700Y-96016639D01*
X103371385Y-95949600D01*
X103424189Y-95903845D01*
X103493347Y-95893901D01*
X103556903Y-95922926D01*
X103563381Y-95928958D01*
X108408381Y-100773958D01*
X108441866Y-100835281D01*
X108444700Y-100861639D01*
X108444700Y-100879319D01*
X108475644Y-101034889D01*
X108475647Y-101034898D01*
X108536348Y-101181446D01*
X108536355Y-101181459D01*
X108624481Y-101313348D01*
X108624484Y-101313352D01*
X108736647Y-101425515D01*
X108736651Y-101425518D01*
X108868540Y-101513644D01*
X108868553Y-101513651D01*
X108978464Y-101559176D01*
X109015103Y-101574353D01*
X109015105Y-101574353D01*
X109015110Y-101574355D01*
X109170680Y-101605299D01*
X109170684Y-101605300D01*
X109170685Y-101605300D01*
X109329316Y-101605300D01*
X109329317Y-101605299D01*
X109381175Y-101594984D01*
X109484889Y-101574355D01*
X109484892Y-101574353D01*
X109484897Y-101574353D01*
X109631453Y-101513648D01*
X109763349Y-101425518D01*
X109875518Y-101313349D01*
X109963648Y-101181453D01*
X110024353Y-101034897D01*
X110036884Y-100971893D01*
X110069267Y-100909985D01*
X110129982Y-100875410D01*
X110134276Y-100874476D01*
X110134897Y-100874353D01*
X110281453Y-100813648D01*
X110413349Y-100725518D01*
X110525518Y-100613349D01*
X110613648Y-100481453D01*
X110674353Y-100334897D01*
X110674751Y-100332900D01*
X110700327Y-100204315D01*
X110705300Y-100179315D01*
X110705300Y-100020685D01*
X110696110Y-99974481D01*
X110674355Y-99865110D01*
X110674352Y-99865101D01*
X110613651Y-99718553D01*
X110613644Y-99718540D01*
X110525518Y-99586651D01*
X110525515Y-99586647D01*
X110413352Y-99474484D01*
X110413348Y-99474481D01*
X110281459Y-99386355D01*
X110281446Y-99386348D01*
X110134898Y-99325647D01*
X110134889Y-99325644D01*
X109979319Y-99294700D01*
X109979315Y-99294700D01*
X109961639Y-99294700D01*
X109894600Y-99275015D01*
X109873958Y-99258381D01*
X104638019Y-94022442D01*
X104604534Y-93961119D01*
X104601700Y-93934761D01*
X104601700Y-92891639D01*
X104621385Y-92824600D01*
X104674189Y-92778845D01*
X104743347Y-92768901D01*
X104806903Y-92797926D01*
X104813381Y-92803958D01*
X106220898Y-94211475D01*
X106352402Y-94287399D01*
X106499076Y-94326700D01*
X106650924Y-94326700D01*
X109036470Y-94326700D01*
X109103509Y-94346385D01*
X109124151Y-94363019D01*
X109136647Y-94375515D01*
X109136651Y-94375518D01*
X109268540Y-94463644D01*
X109268553Y-94463651D01*
X109378464Y-94509176D01*
X109415103Y-94524353D01*
X109415105Y-94524353D01*
X109415110Y-94524355D01*
X109570680Y-94555299D01*
X109570684Y-94555300D01*
X109570685Y-94555300D01*
X109729316Y-94555300D01*
X109729317Y-94555299D01*
X109781175Y-94544984D01*
X109884889Y-94524355D01*
X109884892Y-94524353D01*
X109884897Y-94524353D01*
X110031453Y-94463648D01*
X110163349Y-94375518D01*
X110275518Y-94263349D01*
X110363648Y-94131453D01*
X110424353Y-93984897D01*
X110455300Y-93829315D01*
X110455300Y-93670685D01*
X110440027Y-93593901D01*
X110424355Y-93515110D01*
X110424352Y-93515101D01*
X110375621Y-93397452D01*
X110368152Y-93327983D01*
X110375621Y-93302548D01*
X110390287Y-93267139D01*
X110424353Y-93184897D01*
X110455300Y-93029315D01*
X110455300Y-92870685D01*
X110446133Y-92824600D01*
X110424355Y-92715110D01*
X110424352Y-92715101D01*
X110375621Y-92597452D01*
X110368152Y-92527983D01*
X110375621Y-92502548D01*
X110397004Y-92450924D01*
X110424353Y-92384897D01*
X110455300Y-92229315D01*
X110455300Y-92070685D01*
X110455024Y-92069298D01*
X110424355Y-91915110D01*
X110424352Y-91915101D01*
X110363651Y-91768553D01*
X110363644Y-91768540D01*
X110275518Y-91636651D01*
X110275515Y-91636647D01*
X110163352Y-91524484D01*
X110163348Y-91524481D01*
X110031459Y-91436355D01*
X110031446Y-91436348D01*
X109884898Y-91375647D01*
X109884889Y-91375644D01*
X109729319Y-91344700D01*
X109729315Y-91344700D01*
X109570685Y-91344700D01*
X109570680Y-91344700D01*
X109415110Y-91375644D01*
X109415101Y-91375647D01*
X109268553Y-91436348D01*
X109268540Y-91436355D01*
X109136651Y-91524481D01*
X109136647Y-91524484D01*
X109124151Y-91536981D01*
X109062828Y-91570466D01*
X109036470Y-91573300D01*
X107532863Y-91573300D01*
X107465824Y-91553615D01*
X107420069Y-91500811D01*
X107410125Y-91431653D01*
X107411246Y-91425109D01*
X107430299Y-91329319D01*
X107430300Y-91329316D01*
X107430300Y-91170684D01*
X107430299Y-91170680D01*
X107399355Y-91015110D01*
X107399352Y-91015101D01*
X107338651Y-90868553D01*
X107338644Y-90868540D01*
X107250518Y-90736651D01*
X107250515Y-90736647D01*
X107235819Y-90721951D01*
X107202334Y-90660628D01*
X107199500Y-90634270D01*
X107199500Y-89947140D01*
X107219185Y-89880101D01*
X107271989Y-89834346D01*
X107341147Y-89824402D01*
X107379796Y-89836656D01*
X107396525Y-89845180D01*
X107408357Y-89851209D01*
X107408363Y-89851212D01*
X107468303Y-89870687D01*
X107580591Y-89907171D01*
X107663429Y-89920291D01*
X107759449Y-89935500D01*
X107759454Y-89935500D01*
X107940551Y-89935500D01*
X108027259Y-89921765D01*
X108119409Y-89907171D01*
X108291639Y-89851211D01*
X108452994Y-89768996D01*
X108599501Y-89662553D01*
X108637010Y-89625043D01*
X108698330Y-89591559D01*
X108768022Y-89596543D01*
X108823956Y-89638413D01*
X108848374Y-89703877D01*
X108846308Y-89736916D01*
X108823574Y-89851212D01*
X108819700Y-89870687D01*
X108819700Y-90029319D01*
X108850644Y-90184889D01*
X108850647Y-90184898D01*
X108911348Y-90331446D01*
X108911355Y-90331459D01*
X108999481Y-90463348D01*
X108999484Y-90463352D01*
X109111647Y-90575515D01*
X109111651Y-90575518D01*
X109243540Y-90663644D01*
X109243553Y-90663651D01*
X109332560Y-90700518D01*
X109390103Y-90724353D01*
X109390105Y-90724353D01*
X109390110Y-90724355D01*
X109545680Y-90755299D01*
X109545684Y-90755300D01*
X109545685Y-90755300D01*
X109704316Y-90755300D01*
X109704317Y-90755299D01*
X109793315Y-90737597D01*
X109859889Y-90724355D01*
X109859892Y-90724353D01*
X109859897Y-90724353D01*
X110006453Y-90663648D01*
X110138349Y-90575518D01*
X110250518Y-90463349D01*
X110338648Y-90331453D01*
X110399353Y-90184897D01*
X110405436Y-90154319D01*
X110430299Y-90029319D01*
X110430300Y-90029316D01*
X110430300Y-90011639D01*
X110449985Y-89944600D01*
X110466619Y-89923958D01*
X110761619Y-89628958D01*
X110822942Y-89595473D01*
X110892634Y-89600457D01*
X110948567Y-89642329D01*
X110972984Y-89707793D01*
X110973300Y-89716639D01*
X110973300Y-98474076D01*
X110973300Y-98625924D01*
X111001576Y-98731453D01*
X111012602Y-98772600D01*
X111012602Y-98772601D01*
X111088522Y-98904098D01*
X111088527Y-98904104D01*
X112958381Y-100773958D01*
X112991866Y-100835281D01*
X112994700Y-100861639D01*
X112994700Y-100879319D01*
X113025644Y-101034889D01*
X113025647Y-101034898D01*
X113086348Y-101181446D01*
X113086355Y-101181459D01*
X113174481Y-101313348D01*
X113174484Y-101313352D01*
X113286647Y-101425515D01*
X113286651Y-101425518D01*
X113418540Y-101513644D01*
X113418553Y-101513651D01*
X113528464Y-101559176D01*
X113565103Y-101574353D01*
X113565105Y-101574353D01*
X113565110Y-101574355D01*
X113720680Y-101605299D01*
X113720684Y-101605300D01*
X113720685Y-101605300D01*
X113879316Y-101605300D01*
X113879317Y-101605299D01*
X113931175Y-101594984D01*
X114034889Y-101574355D01*
X114034892Y-101574353D01*
X114034897Y-101574353D01*
X114181453Y-101513648D01*
X114313349Y-101425518D01*
X114425518Y-101313349D01*
X114513648Y-101181453D01*
X114574353Y-101034897D01*
X114574353Y-101034892D01*
X114574355Y-101034889D01*
X114605299Y-100879319D01*
X114605300Y-100879316D01*
X114605300Y-100720684D01*
X114605299Y-100720680D01*
X114574355Y-100565110D01*
X114574352Y-100565101D01*
X114513651Y-100418553D01*
X114513649Y-100418549D01*
X114513648Y-100418547D01*
X114491172Y-100384909D01*
X114480469Y-100368891D01*
X114459591Y-100302214D01*
X114478075Y-100234834D01*
X114480469Y-100231109D01*
X114498372Y-100204315D01*
X114513648Y-100181453D01*
X114574353Y-100034897D01*
X114586371Y-99974481D01*
X114603154Y-99890103D01*
X114605300Y-99879315D01*
X114605300Y-99720685D01*
X114604873Y-99718540D01*
X114574355Y-99565110D01*
X114574352Y-99565101D01*
X114513651Y-99418553D01*
X114513647Y-99418546D01*
X114508924Y-99411477D01*
X114463762Y-99343888D01*
X114442886Y-99277214D01*
X114461370Y-99209834D01*
X114463734Y-99206153D01*
X114513648Y-99131453D01*
X114574353Y-98984897D01*
X114576220Y-98975515D01*
X114605299Y-98829319D01*
X114605300Y-98829316D01*
X114605300Y-98670684D01*
X114605299Y-98670680D01*
X114574355Y-98515110D01*
X114574352Y-98515101D01*
X114513651Y-98368553D01*
X114513647Y-98368546D01*
X114463762Y-98293888D01*
X114442886Y-98227214D01*
X114461370Y-98159834D01*
X114463734Y-98156153D01*
X114513648Y-98081453D01*
X114574353Y-97934897D01*
X114583612Y-97888352D01*
X114605299Y-97779319D01*
X114605300Y-97779316D01*
X114605300Y-97620684D01*
X114605299Y-97620680D01*
X114574355Y-97465110D01*
X114574352Y-97465101D01*
X114513651Y-97318553D01*
X114513644Y-97318540D01*
X114467912Y-97250098D01*
X114447034Y-97183421D01*
X114465518Y-97116041D01*
X114467878Y-97112367D01*
X114538648Y-97006453D01*
X114599353Y-96859897D01*
X114630300Y-96704315D01*
X114630300Y-96545685D01*
X114625367Y-96520885D01*
X114599355Y-96390110D01*
X114599352Y-96390101D01*
X114538651Y-96243553D01*
X114538647Y-96243546D01*
X114488762Y-96168888D01*
X114467886Y-96102214D01*
X114486370Y-96034834D01*
X114488734Y-96031153D01*
X114538648Y-95956453D01*
X114599353Y-95809897D01*
X114602606Y-95793547D01*
X114628841Y-95661651D01*
X114630300Y-95654315D01*
X114630300Y-95495685D01*
X114625606Y-95472087D01*
X114599355Y-95340110D01*
X114599352Y-95340101D01*
X114538651Y-95193553D01*
X114538644Y-95193540D01*
X114450518Y-95061651D01*
X114450515Y-95061647D01*
X114338352Y-94949484D01*
X114338348Y-94949481D01*
X114206459Y-94861355D01*
X114206446Y-94861348D01*
X114059898Y-94800647D01*
X114059889Y-94800644D01*
X113904319Y-94769700D01*
X113904315Y-94769700D01*
X113900700Y-94769700D01*
X113898875Y-94769164D01*
X113898254Y-94769103D01*
X113898265Y-94768985D01*
X113833661Y-94750015D01*
X113787906Y-94697211D01*
X113776700Y-94645700D01*
X113776700Y-93716639D01*
X113796385Y-93649600D01*
X113849189Y-93603845D01*
X113918347Y-93593901D01*
X113981903Y-93622926D01*
X113988381Y-93628958D01*
X119663525Y-99304102D01*
X119770898Y-99411475D01*
X119902402Y-99487399D01*
X120049076Y-99526700D01*
X124336470Y-99526700D01*
X124403509Y-99546385D01*
X124424151Y-99563019D01*
X124436647Y-99575515D01*
X124436651Y-99575518D01*
X124568540Y-99663644D01*
X124568553Y-99663651D01*
X124678464Y-99709176D01*
X124715103Y-99724353D01*
X124715105Y-99724353D01*
X124715110Y-99724355D01*
X124870680Y-99755299D01*
X124870684Y-99755300D01*
X124870685Y-99755300D01*
X125029316Y-99755300D01*
X125029317Y-99755299D01*
X125088437Y-99743540D01*
X125184889Y-99724355D01*
X125184892Y-99724353D01*
X125184897Y-99724353D01*
X125331453Y-99663648D01*
X125463349Y-99575518D01*
X125575518Y-99463349D01*
X125663648Y-99331453D01*
X125716394Y-99204110D01*
X125760232Y-99149711D01*
X125806761Y-99129949D01*
X125834897Y-99124353D01*
X125981453Y-99063648D01*
X126113349Y-98975518D01*
X126225518Y-98863349D01*
X126313648Y-98731453D01*
X126374353Y-98584897D01*
X126388235Y-98515110D01*
X126405299Y-98429319D01*
X126405300Y-98429316D01*
X126405300Y-98270684D01*
X126405299Y-98270680D01*
X126381166Y-98149353D01*
X126374353Y-98115103D01*
X126374349Y-98115095D01*
X126373319Y-98111695D01*
X126373302Y-98109818D01*
X126373165Y-98109128D01*
X126373295Y-98109101D01*
X126372696Y-98041828D01*
X126409944Y-97982715D01*
X126473238Y-97953125D01*
X126491980Y-97951700D01*
X137586470Y-97951700D01*
X137653509Y-97971385D01*
X137674151Y-97988019D01*
X137686647Y-98000515D01*
X137686651Y-98000518D01*
X137818540Y-98088644D01*
X137818553Y-98088651D01*
X137928464Y-98134176D01*
X137965103Y-98149353D01*
X137965105Y-98149353D01*
X137965110Y-98149355D01*
X138120680Y-98180299D01*
X138120684Y-98180300D01*
X138120685Y-98180300D01*
X138279316Y-98180300D01*
X138279317Y-98180299D01*
X138331175Y-98169984D01*
X138434889Y-98149355D01*
X138434892Y-98149353D01*
X138434897Y-98149353D01*
X138581453Y-98088648D01*
X138713349Y-98000518D01*
X138825518Y-97888349D01*
X138913648Y-97756453D01*
X138974353Y-97609897D01*
X139005300Y-97454315D01*
X139005300Y-97295685D01*
X138986652Y-97201933D01*
X138974355Y-97140110D01*
X138974352Y-97140101D01*
X138913651Y-96993553D01*
X138913644Y-96993540D01*
X138825518Y-96861651D01*
X138825515Y-96861647D01*
X138713352Y-96749484D01*
X138713348Y-96749481D01*
X138581459Y-96661355D01*
X138581446Y-96661348D01*
X138434901Y-96600648D01*
X138434891Y-96600645D01*
X138406762Y-96595050D01*
X138344851Y-96562665D01*
X138316393Y-96520885D01*
X138263651Y-96393553D01*
X138263644Y-96393540D01*
X138175518Y-96261651D01*
X138175515Y-96261647D01*
X138063352Y-96149484D01*
X138063348Y-96149481D01*
X137931459Y-96061355D01*
X137931446Y-96061348D01*
X137784901Y-96000648D01*
X137784891Y-96000645D01*
X137756762Y-95995050D01*
X137694851Y-95962665D01*
X137666393Y-95920885D01*
X137613651Y-95793553D01*
X137613644Y-95793540D01*
X137525518Y-95661651D01*
X137525515Y-95661647D01*
X137413352Y-95549484D01*
X137413348Y-95549481D01*
X137281459Y-95461355D01*
X137281446Y-95461348D01*
X137134898Y-95400647D01*
X137134889Y-95400644D01*
X136979319Y-95369700D01*
X136979315Y-95369700D01*
X136820685Y-95369700D01*
X136820680Y-95369700D01*
X136665110Y-95400644D01*
X136665101Y-95400647D01*
X136518553Y-95461348D01*
X136518540Y-95461355D01*
X136386651Y-95549481D01*
X136386647Y-95549484D01*
X136374151Y-95561981D01*
X136312828Y-95595466D01*
X136286470Y-95598300D01*
X125229300Y-95598300D01*
X125162261Y-95578615D01*
X125116506Y-95525811D01*
X125105300Y-95474300D01*
X125105300Y-95395684D01*
X125105299Y-95395680D01*
X125074355Y-95240110D01*
X125074352Y-95240101D01*
X125013651Y-95093553D01*
X125013644Y-95093540D01*
X124925518Y-94961651D01*
X124925515Y-94961647D01*
X124913019Y-94949151D01*
X124879534Y-94887828D01*
X124876700Y-94861470D01*
X124876700Y-94439930D01*
X124896385Y-94372891D01*
X124949189Y-94327136D01*
X125018347Y-94317192D01*
X125081903Y-94346217D01*
X125088381Y-94352249D01*
X125111647Y-94375515D01*
X125111651Y-94375518D01*
X125243540Y-94463644D01*
X125243553Y-94463651D01*
X125353464Y-94509176D01*
X125390103Y-94524353D01*
X125390105Y-94524353D01*
X125390110Y-94524355D01*
X125545680Y-94555299D01*
X125545684Y-94555300D01*
X125545685Y-94555300D01*
X125704316Y-94555300D01*
X125704317Y-94555299D01*
X125756175Y-94544984D01*
X125859889Y-94524355D01*
X125859892Y-94524353D01*
X125859897Y-94524353D01*
X126006453Y-94463648D01*
X126138349Y-94375518D01*
X126140976Y-94372891D01*
X126150849Y-94363019D01*
X126212172Y-94329534D01*
X126238530Y-94326700D01*
X134336470Y-94326700D01*
X134403509Y-94346385D01*
X134424151Y-94363019D01*
X134436647Y-94375515D01*
X134436651Y-94375518D01*
X134568540Y-94463644D01*
X134568553Y-94463651D01*
X134678464Y-94509176D01*
X134715103Y-94524353D01*
X134715105Y-94524353D01*
X134715110Y-94524355D01*
X134870680Y-94555299D01*
X134870684Y-94555300D01*
X134870685Y-94555300D01*
X135029316Y-94555300D01*
X135029317Y-94555299D01*
X135081175Y-94544984D01*
X135184889Y-94524355D01*
X135184892Y-94524353D01*
X135184897Y-94524353D01*
X135331453Y-94463648D01*
X135463349Y-94375518D01*
X135575518Y-94263349D01*
X135663648Y-94131453D01*
X135724353Y-93984897D01*
X135755300Y-93829315D01*
X135755300Y-93829305D01*
X135755406Y-93828232D01*
X135755622Y-93827695D01*
X135756489Y-93823340D01*
X135757314Y-93823504D01*
X135781564Y-93763443D01*
X135831359Y-93725817D01*
X135834890Y-93724354D01*
X135834897Y-93724353D01*
X135981453Y-93663648D01*
X136113349Y-93575518D01*
X136225518Y-93463349D01*
X136313648Y-93331453D01*
X136374353Y-93184897D01*
X136393453Y-93088877D01*
X136405298Y-93029326D01*
X136405299Y-93029319D01*
X136405300Y-93029315D01*
X136405300Y-93029305D01*
X136405406Y-93028232D01*
X136405622Y-93027695D01*
X136406489Y-93023340D01*
X136407314Y-93023504D01*
X136431564Y-92963443D01*
X136481359Y-92925817D01*
X136484890Y-92924354D01*
X136484897Y-92924353D01*
X136631453Y-92863648D01*
X136763349Y-92775518D01*
X136875518Y-92663349D01*
X136963648Y-92531453D01*
X137024353Y-92384897D01*
X137055300Y-92229315D01*
X137055300Y-92070685D01*
X137055024Y-92069298D01*
X137024355Y-91915110D01*
X137024352Y-91915101D01*
X136963651Y-91768553D01*
X136963644Y-91768540D01*
X136875518Y-91636651D01*
X136875515Y-91636647D01*
X136763352Y-91524484D01*
X136763348Y-91524481D01*
X136631459Y-91436355D01*
X136631446Y-91436348D01*
X136484898Y-91375647D01*
X136484889Y-91375644D01*
X136329319Y-91344700D01*
X136329315Y-91344700D01*
X136170685Y-91344700D01*
X136170680Y-91344700D01*
X136015110Y-91375644D01*
X136015101Y-91375647D01*
X135868553Y-91436348D01*
X135868540Y-91436355D01*
X135736651Y-91524481D01*
X135736647Y-91524484D01*
X135724151Y-91536981D01*
X135662828Y-91570466D01*
X135636470Y-91573300D01*
X126238530Y-91573300D01*
X126171491Y-91553615D01*
X126150849Y-91536981D01*
X126138352Y-91524484D01*
X126138348Y-91524481D01*
X126006459Y-91436355D01*
X126006446Y-91436348D01*
X125859898Y-91375647D01*
X125859889Y-91375644D01*
X125704319Y-91344700D01*
X125704315Y-91344700D01*
X125545685Y-91344700D01*
X125545680Y-91344700D01*
X125390110Y-91375644D01*
X125390101Y-91375647D01*
X125243553Y-91436348D01*
X125243540Y-91436355D01*
X125111651Y-91524481D01*
X125111647Y-91524484D01*
X124999484Y-91636647D01*
X124999481Y-91636651D01*
X124911355Y-91768540D01*
X124911348Y-91768553D01*
X124850647Y-91915101D01*
X124850644Y-91915110D01*
X124819700Y-92070680D01*
X124819700Y-92229319D01*
X124850644Y-92384889D01*
X124850647Y-92384898D01*
X124899379Y-92502548D01*
X124906848Y-92572017D01*
X124899379Y-92597452D01*
X124850647Y-92715101D01*
X124850644Y-92715110D01*
X124819700Y-92870680D01*
X124819700Y-92870684D01*
X124819700Y-92870685D01*
X124819700Y-93029315D01*
X124831548Y-93088877D01*
X124845433Y-93158685D01*
X124839205Y-93228277D01*
X124796341Y-93283454D01*
X124730451Y-93306698D01*
X124662454Y-93290630D01*
X124636134Y-93270557D01*
X122589903Y-91224326D01*
X122585563Y-91216379D01*
X122578313Y-91210951D01*
X122569079Y-91186191D01*
X122556418Y-91163003D01*
X122557064Y-91153969D01*
X122553900Y-91145485D01*
X122559516Y-91119670D01*
X122561402Y-91093311D01*
X122567222Y-91084254D01*
X122568755Y-91077213D01*
X122589907Y-91048960D01*
X122600853Y-91038015D01*
X122662177Y-91004533D01*
X122688530Y-91001700D01*
X134311470Y-91001700D01*
X134378509Y-91021385D01*
X134399151Y-91038019D01*
X134411647Y-91050515D01*
X134411651Y-91050518D01*
X134543540Y-91138644D01*
X134543553Y-91138651D01*
X134653464Y-91184176D01*
X134690103Y-91199353D01*
X134690105Y-91199353D01*
X134690110Y-91199355D01*
X134845680Y-91230299D01*
X134845684Y-91230300D01*
X134845685Y-91230300D01*
X135004316Y-91230300D01*
X135004317Y-91230299D01*
X135101590Y-91210951D01*
X135159889Y-91199355D01*
X135159892Y-91199353D01*
X135159897Y-91199353D01*
X135306453Y-91138648D01*
X135438349Y-91050518D01*
X135550518Y-90938349D01*
X135638648Y-90806453D01*
X135699353Y-90659897D01*
X135703840Y-90637341D01*
X135730859Y-90501509D01*
X135763244Y-90439598D01*
X135823960Y-90405024D01*
X135852476Y-90401700D01*
X144046130Y-90401700D01*
X144113169Y-90421385D01*
X144158924Y-90474189D01*
X144168868Y-90543347D01*
X144160691Y-90573152D01*
X144134106Y-90637332D01*
X144134103Y-90637341D01*
X144099500Y-90811304D01*
X144099500Y-98300638D01*
X144090855Y-98330078D01*
X144084332Y-98360065D01*
X144080577Y-98365080D01*
X144079815Y-98367677D01*
X144063181Y-98388319D01*
X143938319Y-98513181D01*
X143876996Y-98546666D01*
X143850638Y-98549500D01*
X142161303Y-98549500D01*
X141987341Y-98584103D01*
X141987333Y-98584105D01*
X141920740Y-98611689D01*
X141920733Y-98611692D01*
X141916309Y-98613525D01*
X141823453Y-98651987D01*
X141772653Y-98685931D01*
X141766513Y-98690033D01*
X141766510Y-98690035D01*
X141675961Y-98750537D01*
X140075540Y-100350958D01*
X140075534Y-100350965D01*
X139976988Y-100498451D01*
X139909105Y-100662333D01*
X139909103Y-100662341D01*
X139874500Y-100836303D01*
X139874500Y-101013696D01*
X139909103Y-101187658D01*
X139909105Y-101187666D01*
X139965061Y-101322753D01*
X139974500Y-101370206D01*
X139974500Y-102325500D01*
X139954815Y-102392539D01*
X139902011Y-102438294D01*
X139850500Y-102449500D01*
X128824500Y-102449500D01*
X128757461Y-102429815D01*
X128711706Y-102377011D01*
X128700500Y-102325500D01*
X128700500Y-101015658D01*
X128702882Y-100991468D01*
X128705300Y-100979315D01*
X128705300Y-100820685D01*
X128700111Y-100794600D01*
X128674355Y-100665110D01*
X128674352Y-100665101D01*
X128673205Y-100662333D01*
X128632931Y-100565101D01*
X128613651Y-100518553D01*
X128613644Y-100518540D01*
X128525518Y-100386651D01*
X128525515Y-100386647D01*
X128413352Y-100274484D01*
X128413348Y-100274481D01*
X128281459Y-100186355D01*
X128281446Y-100186348D01*
X128134898Y-100125647D01*
X128134889Y-100125644D01*
X127979319Y-100094700D01*
X127979315Y-100094700D01*
X127820685Y-100094700D01*
X127820680Y-100094700D01*
X127665110Y-100125644D01*
X127665101Y-100125647D01*
X127518553Y-100186348D01*
X127518540Y-100186355D01*
X127386651Y-100274481D01*
X127386647Y-100274484D01*
X127274484Y-100386647D01*
X127274481Y-100386651D01*
X127186355Y-100518540D01*
X127186348Y-100518553D01*
X127125647Y-100665101D01*
X127125644Y-100665110D01*
X127094700Y-100820680D01*
X127094700Y-100820684D01*
X127094700Y-100820685D01*
X127094700Y-100979315D01*
X127097117Y-100991468D01*
X127099500Y-101015658D01*
X127099500Y-102325500D01*
X127079815Y-102392539D01*
X127027011Y-102438294D01*
X126975500Y-102449500D01*
X116849500Y-102449500D01*
X116782461Y-102429815D01*
X116736706Y-102377011D01*
X116725500Y-102325500D01*
X116725500Y-100821155D01*
X116725499Y-100821153D01*
X116711448Y-100750515D01*
X116694737Y-100666503D01*
X116683075Y-100638348D01*
X116634397Y-100520827D01*
X116634390Y-100520814D01*
X116546789Y-100389711D01*
X116542924Y-100385001D01*
X116543035Y-100384909D01*
X116532404Y-100371957D01*
X116525518Y-100361651D01*
X116525517Y-100361650D01*
X116525515Y-100361647D01*
X116413352Y-100249484D01*
X116413348Y-100249481D01*
X116281459Y-100161355D01*
X116281446Y-100161348D01*
X116134898Y-100100647D01*
X116134889Y-100100644D01*
X115979319Y-100069700D01*
X115979315Y-100069700D01*
X115820685Y-100069700D01*
X115820680Y-100069700D01*
X115665110Y-100100644D01*
X115665101Y-100100647D01*
X115518553Y-100161348D01*
X115518540Y-100161355D01*
X115386651Y-100249481D01*
X115386647Y-100249484D01*
X115274484Y-100361647D01*
X115274481Y-100361651D01*
X115186355Y-100493540D01*
X115186348Y-100493553D01*
X115125647Y-100640101D01*
X115125644Y-100640110D01*
X115094700Y-100795680D01*
X115094700Y-100954316D01*
X115122117Y-101092149D01*
X115124500Y-101116341D01*
X115124500Y-102867060D01*
X115104815Y-102934099D01*
X115088181Y-102954741D01*
X114279741Y-103763181D01*
X114218418Y-103796666D01*
X114192060Y-103799500D01*
X103090658Y-103799500D01*
X103066468Y-103797117D01*
X103054315Y-103794700D01*
X102895685Y-103794700D01*
X102895680Y-103794700D01*
X102740110Y-103825644D01*
X102740101Y-103825647D01*
X102593553Y-103886348D01*
X102593540Y-103886355D01*
X102461651Y-103974481D01*
X102461647Y-103974484D01*
X102349484Y-104086647D01*
X102349481Y-104086651D01*
X102261355Y-104218540D01*
X102261348Y-104218553D01*
X102200647Y-104365101D01*
X102200644Y-104365110D01*
X102169700Y-104520680D01*
X102169700Y-104679319D01*
X102200644Y-104834889D01*
X102200647Y-104834898D01*
X102261348Y-104981446D01*
X102261355Y-104981459D01*
X102349481Y-105113348D01*
X102349484Y-105113352D01*
X102461647Y-105225515D01*
X102461651Y-105225518D01*
X102593540Y-105313644D01*
X102593553Y-105313651D01*
X102703464Y-105359176D01*
X102740103Y-105374353D01*
X102740105Y-105374353D01*
X102740110Y-105374355D01*
X102895680Y-105405299D01*
X102895684Y-105405300D01*
X102895685Y-105405300D01*
X103054314Y-105405300D01*
X103054315Y-105405300D01*
X103066468Y-105402882D01*
X103090658Y-105400500D01*
X114653844Y-105400500D01*
X114653845Y-105400499D01*
X114808497Y-105369737D01*
X114954179Y-105309394D01*
X115085289Y-105221789D01*
X116220258Y-104086818D01*
X116281581Y-104053334D01*
X116307939Y-104050500D01*
X127771158Y-104050500D01*
X127821158Y-104050500D01*
X127978842Y-104050500D01*
X140558264Y-104050500D01*
X140582454Y-104052882D01*
X140608614Y-104058086D01*
X140696155Y-104075500D01*
X140696158Y-104075500D01*
X140853844Y-104075500D01*
X140853845Y-104075499D01*
X141008497Y-104044737D01*
X141154179Y-103984394D01*
X141285289Y-103896789D01*
X141396789Y-103785289D01*
X141484394Y-103654179D01*
X141544737Y-103508497D01*
X141575500Y-103353842D01*
X141575500Y-101449362D01*
X141595185Y-101382323D01*
X141611819Y-101361681D01*
X142586681Y-100386819D01*
X142648004Y-100353334D01*
X142674362Y-100350500D01*
X144363693Y-100350500D01*
X144363693Y-100350499D01*
X144483479Y-100326673D01*
X144553070Y-100332900D01*
X144608247Y-100375763D01*
X144631492Y-100441653D01*
X144629288Y-100472479D01*
X144619700Y-100520685D01*
X144619700Y-100679319D01*
X144650644Y-100834889D01*
X144650647Y-100834898D01*
X144711348Y-100981446D01*
X144711355Y-100981459D01*
X144799480Y-101113347D01*
X144799481Y-101113348D01*
X144799482Y-101113349D01*
X144811980Y-101125847D01*
X144845465Y-101187167D01*
X144848300Y-101213529D01*
X144848300Y-108259761D01*
X144828615Y-108326800D01*
X144811981Y-108347442D01*
X142376042Y-110783381D01*
X142314719Y-110816866D01*
X142288361Y-110819700D01*
X142220680Y-110819700D01*
X142065110Y-110850644D01*
X142065101Y-110850647D01*
X141918553Y-110911348D01*
X141918540Y-110911355D01*
X141786651Y-110999481D01*
X141786647Y-110999484D01*
X141674484Y-111111647D01*
X141674481Y-111111651D01*
X141586355Y-111243540D01*
X141586348Y-111243553D01*
X141525647Y-111390101D01*
X141525644Y-111390110D01*
X141494700Y-111545680D01*
X141494700Y-111704319D01*
X141525644Y-111859889D01*
X141525647Y-111859898D01*
X141586348Y-112006446D01*
X141586355Y-112006459D01*
X141674481Y-112138348D01*
X141674484Y-112138352D01*
X141786647Y-112250515D01*
X141786651Y-112250518D01*
X141918540Y-112338644D01*
X141918553Y-112338651D01*
X142023868Y-112382273D01*
X142065103Y-112399353D01*
X142065105Y-112399353D01*
X142065110Y-112399355D01*
X142220680Y-112430299D01*
X142220684Y-112430300D01*
X142220685Y-112430300D01*
X142379316Y-112430300D01*
X142379317Y-112430299D01*
X142431175Y-112419984D01*
X142534889Y-112399355D01*
X142534892Y-112399353D01*
X142534897Y-112399353D01*
X142681453Y-112338648D01*
X142813349Y-112250518D01*
X142925518Y-112138349D01*
X143013648Y-112006453D01*
X143074353Y-111859897D01*
X143102689Y-111717440D01*
X143135073Y-111655530D01*
X143136567Y-111654009D01*
X145886475Y-108904102D01*
X145962399Y-108772598D01*
X146001700Y-108625924D01*
X146001700Y-108474076D01*
X146001700Y-106720689D01*
X146021385Y-106653650D01*
X146074189Y-106607895D01*
X146143347Y-106597951D01*
X146206903Y-106626976D01*
X146240261Y-106673236D01*
X146251988Y-106701548D01*
X146350534Y-106849034D01*
X146350540Y-106849041D01*
X146475958Y-106974459D01*
X146475965Y-106974465D01*
X146623451Y-107073011D01*
X146623452Y-107073011D01*
X146623453Y-107073012D01*
X146787334Y-107140895D01*
X146961303Y-107175499D01*
X146961307Y-107175500D01*
X146961308Y-107175500D01*
X147138693Y-107175500D01*
X147138694Y-107175499D01*
X147312666Y-107140895D01*
X147476547Y-107073012D01*
X147624036Y-106974464D01*
X157484263Y-97114237D01*
X157545586Y-97080752D01*
X157615278Y-97085736D01*
X157671211Y-97127608D01*
X157695628Y-97193072D01*
X157695944Y-97201933D01*
X157693086Y-120305565D01*
X157673393Y-120372602D01*
X157656767Y-120393231D01*
X157293250Y-120756750D01*
X157231927Y-120790235D01*
X157205569Y-120793069D01*
X146554985Y-120793069D01*
X146554329Y-120793067D01*
X146471365Y-120792627D01*
X146471352Y-120792628D01*
X146304459Y-120821314D01*
X146304458Y-120821314D01*
X146145197Y-120878862D01*
X146145190Y-120878865D01*
X145998512Y-120963483D01*
X145998507Y-120963486D01*
X145868969Y-121072545D01*
X145868964Y-121072551D01*
X145760589Y-121202663D01*
X145760585Y-121202669D01*
X145676738Y-121349797D01*
X145620031Y-121509364D01*
X145592225Y-121676414D01*
X145593093Y-121758432D01*
X145593100Y-121759743D01*
X145593100Y-122401000D01*
X145573415Y-122468039D01*
X145520611Y-122513794D01*
X145469100Y-122525000D01*
X144764100Y-122525000D01*
X144697061Y-122505315D01*
X144651306Y-122452511D01*
X144640100Y-122401000D01*
X144640100Y-121997938D01*
X144631703Y-121934157D01*
X144622876Y-121867107D01*
X144595617Y-121765374D01*
X144545117Y-121643457D01*
X144545111Y-121643446D01*
X144492459Y-121552249D01*
X144492458Y-121552247D01*
X144412123Y-121447553D01*
X144412117Y-121447546D01*
X144337653Y-121373082D01*
X144337646Y-121373076D01*
X144232952Y-121292741D01*
X144232950Y-121292740D01*
X144141753Y-121240088D01*
X144141745Y-121240084D01*
X144141743Y-121240083D01*
X144138831Y-121238877D01*
X144078979Y-121214085D01*
X144019826Y-121189583D01*
X144019824Y-121189582D01*
X144019823Y-121189582D01*
X143918098Y-121162325D01*
X143918089Y-121162323D01*
X143787262Y-121145100D01*
X143787261Y-121145100D01*
X143681939Y-121145100D01*
X143681938Y-121145100D01*
X143551110Y-121162323D01*
X143551101Y-121162325D01*
X143449376Y-121189582D01*
X143449366Y-121189586D01*
X143327463Y-121240080D01*
X143327446Y-121240088D01*
X143236249Y-121292740D01*
X143236247Y-121292741D01*
X143131553Y-121373076D01*
X143131546Y-121373082D01*
X143057082Y-121447546D01*
X143057076Y-121447553D01*
X142976741Y-121552247D01*
X142976740Y-121552249D01*
X142924088Y-121643446D01*
X142924080Y-121643463D01*
X142873586Y-121765366D01*
X142873582Y-121765376D01*
X142846325Y-121867101D01*
X142846323Y-121867110D01*
X142829100Y-121997938D01*
X142829100Y-122401000D01*
X142809415Y-122468039D01*
X142756611Y-122513794D01*
X142705100Y-122525000D01*
X142224100Y-122525000D01*
X142157061Y-122505315D01*
X142111306Y-122452511D01*
X142100100Y-122401000D01*
X142100100Y-121997938D01*
X142091703Y-121934157D01*
X142082876Y-121867107D01*
X142055617Y-121765374D01*
X142005117Y-121643457D01*
X142005111Y-121643446D01*
X141952459Y-121552249D01*
X141952458Y-121552247D01*
X141872123Y-121447553D01*
X141872117Y-121447546D01*
X141797653Y-121373082D01*
X141797646Y-121373076D01*
X141692952Y-121292741D01*
X141692950Y-121292740D01*
X141601753Y-121240088D01*
X141601745Y-121240084D01*
X141601743Y-121240083D01*
X141598831Y-121238877D01*
X141538979Y-121214085D01*
X141479826Y-121189583D01*
X141479824Y-121189582D01*
X141479823Y-121189582D01*
X141378098Y-121162325D01*
X141378089Y-121162323D01*
X141247262Y-121145100D01*
X141247261Y-121145100D01*
X141141939Y-121145100D01*
X141141938Y-121145100D01*
X141011110Y-121162323D01*
X141011101Y-121162325D01*
X140909376Y-121189582D01*
X140909366Y-121189586D01*
X140787463Y-121240080D01*
X140787446Y-121240088D01*
X140696249Y-121292740D01*
X140696247Y-121292741D01*
X140591553Y-121373076D01*
X140591546Y-121373082D01*
X140517082Y-121447546D01*
X140517076Y-121447553D01*
X140436741Y-121552247D01*
X140436740Y-121552249D01*
X140384088Y-121643446D01*
X140384080Y-121643463D01*
X140333586Y-121765366D01*
X140333582Y-121765376D01*
X140306325Y-121867101D01*
X140306323Y-121867110D01*
X140289100Y-121997938D01*
X140289100Y-122401000D01*
X140269415Y-122468039D01*
X140216611Y-122513794D01*
X140165100Y-122525000D01*
X139684100Y-122525000D01*
X139617061Y-122505315D01*
X139571306Y-122452511D01*
X139560100Y-122401000D01*
X139560100Y-121997938D01*
X139551703Y-121934157D01*
X139542876Y-121867107D01*
X139515617Y-121765374D01*
X139465117Y-121643457D01*
X139465111Y-121643446D01*
X139412459Y-121552249D01*
X139412458Y-121552247D01*
X139332123Y-121447553D01*
X139332117Y-121447546D01*
X139257653Y-121373082D01*
X139257646Y-121373076D01*
X139152952Y-121292741D01*
X139152950Y-121292740D01*
X139061753Y-121240088D01*
X139061745Y-121240084D01*
X139061743Y-121240083D01*
X139058831Y-121238877D01*
X138998979Y-121214085D01*
X138939826Y-121189583D01*
X138939824Y-121189582D01*
X138939823Y-121189582D01*
X138838098Y-121162325D01*
X138838089Y-121162323D01*
X138707262Y-121145100D01*
X138707261Y-121145100D01*
X138601939Y-121145100D01*
X138601938Y-121145100D01*
X138471110Y-121162323D01*
X138471101Y-121162325D01*
X138369376Y-121189582D01*
X138369366Y-121189586D01*
X138247463Y-121240080D01*
X138247446Y-121240088D01*
X138156249Y-121292740D01*
X138156247Y-121292741D01*
X138051553Y-121373076D01*
X138051546Y-121373082D01*
X137977082Y-121447546D01*
X137977076Y-121447553D01*
X137896741Y-121552247D01*
X137896740Y-121552249D01*
X137844088Y-121643446D01*
X137844080Y-121643463D01*
X137793586Y-121765366D01*
X137793582Y-121765376D01*
X137766325Y-121867101D01*
X137766323Y-121867110D01*
X137749100Y-121997938D01*
X137749100Y-122401000D01*
X137729415Y-122468039D01*
X137676611Y-122513794D01*
X137625100Y-122525000D01*
X137144100Y-122525000D01*
X137077061Y-122505315D01*
X137031306Y-122452511D01*
X137020100Y-122401000D01*
X137020100Y-121997938D01*
X137011703Y-121934157D01*
X137002876Y-121867107D01*
X136975617Y-121765374D01*
X136925117Y-121643457D01*
X136925111Y-121643446D01*
X136872459Y-121552249D01*
X136872458Y-121552247D01*
X136792123Y-121447553D01*
X136792117Y-121447546D01*
X136727619Y-121383048D01*
X136694134Y-121321725D01*
X136691300Y-121295367D01*
X136691300Y-120913678D01*
X136691300Y-120913676D01*
X136651999Y-120767002D01*
X136646594Y-120757641D01*
X136576077Y-120635501D01*
X136576072Y-120635495D01*
X135891619Y-119951042D01*
X135858134Y-119889719D01*
X135855300Y-119863361D01*
X135855300Y-119845684D01*
X135855299Y-119845680D01*
X135824355Y-119690110D01*
X135824352Y-119690101D01*
X135823768Y-119688692D01*
X135779346Y-119581446D01*
X135763651Y-119543553D01*
X135763644Y-119543540D01*
X135675518Y-119411651D01*
X135675515Y-119411647D01*
X135563352Y-119299484D01*
X135563348Y-119299481D01*
X135431459Y-119211355D01*
X135431446Y-119211348D01*
X135284898Y-119150647D01*
X135284889Y-119150644D01*
X135129319Y-119119700D01*
X135129315Y-119119700D01*
X134970685Y-119119700D01*
X134970680Y-119119700D01*
X134815110Y-119150644D01*
X134815101Y-119150647D01*
X134668553Y-119211348D01*
X134668540Y-119211355D01*
X134536651Y-119299481D01*
X134536647Y-119299484D01*
X134424484Y-119411647D01*
X134424481Y-119411651D01*
X134378402Y-119480613D01*
X134324789Y-119525418D01*
X134255464Y-119534125D01*
X134192437Y-119503970D01*
X134155718Y-119444527D01*
X134151300Y-119411722D01*
X134151300Y-115241239D01*
X134170985Y-115174200D01*
X134223789Y-115128445D01*
X134292947Y-115118501D01*
X134356503Y-115147526D01*
X134362981Y-115153558D01*
X135036981Y-115827558D01*
X135070466Y-115888881D01*
X135073300Y-115915239D01*
X135073300Y-117799076D01*
X135073300Y-117950924D01*
X135108818Y-118083481D01*
X135112602Y-118097600D01*
X135112602Y-118097601D01*
X135188522Y-118229098D01*
X135188527Y-118229104D01*
X136133381Y-119173958D01*
X136166866Y-119235281D01*
X136169700Y-119261639D01*
X136169700Y-119279319D01*
X136200644Y-119434889D01*
X136200647Y-119434898D01*
X136261348Y-119581446D01*
X136261355Y-119581459D01*
X136349481Y-119713348D01*
X136349484Y-119713352D01*
X136461647Y-119825515D01*
X136461651Y-119825518D01*
X136593540Y-119913644D01*
X136593553Y-119913651D01*
X136683825Y-119951042D01*
X136740103Y-119974353D01*
X136740105Y-119974353D01*
X136740110Y-119974355D01*
X136895680Y-120005299D01*
X136895684Y-120005300D01*
X136895685Y-120005300D01*
X137054316Y-120005300D01*
X137054317Y-120005299D01*
X137106175Y-119994984D01*
X137209889Y-119974355D01*
X137209892Y-119974353D01*
X137209897Y-119974353D01*
X137356453Y-119913648D01*
X137488349Y-119825518D01*
X137600518Y-119713349D01*
X137688648Y-119581453D01*
X137749353Y-119434897D01*
X137754709Y-119407974D01*
X137776288Y-119299484D01*
X137780300Y-119279315D01*
X137780300Y-119120685D01*
X137763441Y-119035928D01*
X137749355Y-118965110D01*
X137749352Y-118965101D01*
X137688651Y-118818553D01*
X137688644Y-118818540D01*
X137600518Y-118686651D01*
X137600515Y-118686647D01*
X137517049Y-118603181D01*
X137483564Y-118541858D01*
X137488548Y-118472166D01*
X137517049Y-118427819D01*
X137600515Y-118344352D01*
X137600518Y-118344349D01*
X137688648Y-118212453D01*
X137749353Y-118065897D01*
X137754179Y-118041639D01*
X137780299Y-117910319D01*
X137780300Y-117910316D01*
X137780300Y-117751684D01*
X137780299Y-117751680D01*
X137749355Y-117596110D01*
X137749352Y-117596101D01*
X137688651Y-117449553D01*
X137688644Y-117449540D01*
X137600518Y-117317651D01*
X137600515Y-117317647D01*
X137588019Y-117305151D01*
X137573315Y-117278223D01*
X137556723Y-117252405D01*
X137555831Y-117246204D01*
X137554534Y-117243828D01*
X137551700Y-117217470D01*
X137551700Y-117020722D01*
X138419500Y-117020722D01*
X138419500Y-117335277D01*
X138454716Y-117647827D01*
X138454718Y-117647843D01*
X138524710Y-117954499D01*
X138524711Y-117954501D01*
X138628598Y-118251395D01*
X138765072Y-118534786D01*
X138765074Y-118534789D01*
X138932423Y-118801123D01*
X139128539Y-119047044D01*
X139350956Y-119269461D01*
X139596877Y-119465577D01*
X139863211Y-119632926D01*
X140146606Y-119769402D01*
X140443500Y-119873289D01*
X140750160Y-119943282D01*
X141062723Y-119978499D01*
X141062724Y-119978500D01*
X141062727Y-119978500D01*
X141377276Y-119978500D01*
X141377276Y-119978499D01*
X141689840Y-119943282D01*
X141996500Y-119873289D01*
X142293394Y-119769402D01*
X142576789Y-119632926D01*
X142843123Y-119465577D01*
X143089044Y-119269461D01*
X143311461Y-119047044D01*
X143507577Y-118801123D01*
X143674926Y-118534789D01*
X143811402Y-118251394D01*
X143915289Y-117954500D01*
X143985282Y-117647840D01*
X144020500Y-117335273D01*
X144020500Y-117020727D01*
X143985282Y-116708160D01*
X143915289Y-116401500D01*
X143811402Y-116104606D01*
X143674926Y-115821211D01*
X143507577Y-115554877D01*
X143311461Y-115308956D01*
X143089044Y-115086539D01*
X143051317Y-115056453D01*
X142968342Y-114990282D01*
X142843123Y-114890423D01*
X142618817Y-114749482D01*
X142576786Y-114723072D01*
X142293395Y-114586598D01*
X141996501Y-114482711D01*
X141996499Y-114482710D01*
X141689843Y-114412718D01*
X141689827Y-114412716D01*
X141377277Y-114377500D01*
X141377273Y-114377500D01*
X141062727Y-114377500D01*
X141062722Y-114377500D01*
X140750172Y-114412716D01*
X140750156Y-114412718D01*
X140443500Y-114482710D01*
X140443498Y-114482711D01*
X140146604Y-114586598D01*
X139863213Y-114723072D01*
X139596878Y-114890422D01*
X139350956Y-115086538D01*
X139128538Y-115308956D01*
X138932422Y-115554878D01*
X138765072Y-115821213D01*
X138628598Y-116104604D01*
X138524711Y-116401498D01*
X138524710Y-116401500D01*
X138454718Y-116708156D01*
X138454716Y-116708172D01*
X138419500Y-117020722D01*
X137551700Y-117020722D01*
X137551700Y-115949078D01*
X137551700Y-115949076D01*
X137512399Y-115802402D01*
X137446748Y-115688692D01*
X137436477Y-115670901D01*
X137436472Y-115670895D01*
X134016619Y-112251042D01*
X133983134Y-112189719D01*
X133980300Y-112163361D01*
X133980300Y-112145684D01*
X133980299Y-112145680D01*
X133949355Y-111990110D01*
X133949352Y-111990101D01*
X133888651Y-111843553D01*
X133888644Y-111843540D01*
X133800518Y-111711651D01*
X133800515Y-111711647D01*
X133688352Y-111599484D01*
X133688348Y-111599481D01*
X133556459Y-111511355D01*
X133556446Y-111511348D01*
X133409898Y-111450647D01*
X133409889Y-111450644D01*
X133254319Y-111419700D01*
X133254315Y-111419700D01*
X133095685Y-111419700D01*
X133095680Y-111419700D01*
X132940110Y-111450644D01*
X132940101Y-111450647D01*
X132793553Y-111511348D01*
X132793540Y-111511355D01*
X132661651Y-111599481D01*
X132602555Y-111658577D01*
X132541231Y-111692061D01*
X132480972Y-111687750D01*
X132480449Y-111689705D01*
X132472599Y-111687601D01*
X132472598Y-111687601D01*
X132325924Y-111648300D01*
X132325923Y-111648300D01*
X131588530Y-111648300D01*
X131521491Y-111628615D01*
X131500849Y-111611981D01*
X131488352Y-111599484D01*
X131488348Y-111599481D01*
X131356459Y-111511355D01*
X131356446Y-111511348D01*
X131209898Y-111450647D01*
X131209889Y-111450644D01*
X131054319Y-111419700D01*
X131054315Y-111419700D01*
X130895685Y-111419700D01*
X130895680Y-111419700D01*
X130740110Y-111450644D01*
X130740101Y-111450647D01*
X130593553Y-111511348D01*
X130593540Y-111511355D01*
X130461651Y-111599481D01*
X130461647Y-111599484D01*
X130349484Y-111711647D01*
X130349481Y-111711651D01*
X130261355Y-111843540D01*
X130261348Y-111843553D01*
X130200647Y-111990101D01*
X130200644Y-111990110D01*
X130169700Y-112145680D01*
X130169700Y-112304319D01*
X130200644Y-112459889D01*
X130200647Y-112459898D01*
X130261348Y-112606446D01*
X130261355Y-112606459D01*
X130349481Y-112738348D01*
X130349484Y-112738352D01*
X130444151Y-112833019D01*
X130477636Y-112894342D01*
X130472652Y-112964034D01*
X130430780Y-113019967D01*
X130365316Y-113044384D01*
X130356470Y-113044700D01*
X130195680Y-113044700D01*
X130040110Y-113075644D01*
X130040101Y-113075647D01*
X129893553Y-113136348D01*
X129893540Y-113136355D01*
X129761651Y-113224481D01*
X129761647Y-113224484D01*
X129649484Y-113336647D01*
X129649481Y-113336651D01*
X129561355Y-113468540D01*
X129561348Y-113468553D01*
X129500647Y-113615101D01*
X129500644Y-113615110D01*
X129469700Y-113770680D01*
X129469700Y-113929319D01*
X129500644Y-114084889D01*
X129500647Y-114084898D01*
X129561348Y-114231446D01*
X129561355Y-114231459D01*
X129649480Y-114363347D01*
X129649481Y-114363348D01*
X129649482Y-114363349D01*
X129661980Y-114375847D01*
X129695465Y-114437167D01*
X129698300Y-114463529D01*
X129698300Y-120149076D01*
X129698300Y-120300924D01*
X129737440Y-120446999D01*
X129737602Y-120447600D01*
X129737602Y-120447601D01*
X129813522Y-120579098D01*
X129813527Y-120579104D01*
X130421581Y-121187158D01*
X130436284Y-121214085D01*
X130452877Y-121239904D01*
X130453768Y-121246104D01*
X130455066Y-121248481D01*
X130457900Y-121274839D01*
X130457900Y-121295367D01*
X130438215Y-121362406D01*
X130421581Y-121383048D01*
X130357082Y-121447546D01*
X130357076Y-121447553D01*
X130276741Y-121552247D01*
X130276740Y-121552249D01*
X130224088Y-121643446D01*
X130224080Y-121643463D01*
X130173586Y-121765366D01*
X130173582Y-121765376D01*
X130146325Y-121867101D01*
X130146323Y-121867110D01*
X130129100Y-121997938D01*
X130129100Y-122401000D01*
X130109415Y-122468039D01*
X130056611Y-122513794D01*
X130005100Y-122525000D01*
X129524100Y-122525000D01*
X129457061Y-122505315D01*
X129411306Y-122452511D01*
X129400100Y-122401000D01*
X129400100Y-121997938D01*
X129391703Y-121934157D01*
X129382876Y-121867107D01*
X129355617Y-121765374D01*
X129305117Y-121643457D01*
X129305111Y-121643446D01*
X129252459Y-121552249D01*
X129252458Y-121552247D01*
X129172123Y-121447553D01*
X129172117Y-121447546D01*
X129113019Y-121388448D01*
X129079534Y-121327125D01*
X129076700Y-121300767D01*
X129076700Y-120924078D01*
X129076700Y-120924076D01*
X129037399Y-120777402D01*
X129037163Y-120776994D01*
X128961477Y-120645901D01*
X128961472Y-120645895D01*
X128542258Y-120226681D01*
X128508773Y-120165358D01*
X128508322Y-120114809D01*
X128530300Y-120004317D01*
X128530300Y-119845684D01*
X128530299Y-119845680D01*
X128499355Y-119690110D01*
X128499352Y-119690101D01*
X128498768Y-119688692D01*
X128454346Y-119581446D01*
X128438651Y-119543553D01*
X128438644Y-119543540D01*
X128350518Y-119411651D01*
X128350515Y-119411647D01*
X128238352Y-119299484D01*
X128238348Y-119299481D01*
X128106459Y-119211355D01*
X128106446Y-119211348D01*
X127959898Y-119150647D01*
X127959889Y-119150644D01*
X127804319Y-119119700D01*
X127804315Y-119119700D01*
X127645685Y-119119700D01*
X127645680Y-119119700D01*
X127490110Y-119150644D01*
X127490101Y-119150647D01*
X127343553Y-119211348D01*
X127343540Y-119211355D01*
X127211651Y-119299481D01*
X127211647Y-119299484D01*
X127099484Y-119411647D01*
X127099481Y-119411651D01*
X127011355Y-119543540D01*
X127011348Y-119543553D01*
X126957017Y-119674723D01*
X126913176Y-119729127D01*
X126846882Y-119751192D01*
X126779183Y-119733913D01*
X126731572Y-119682776D01*
X126726758Y-119670700D01*
X126726684Y-119670731D01*
X126723500Y-119663045D01*
X126689707Y-119581459D01*
X126663651Y-119518553D01*
X126663644Y-119518540D01*
X126575518Y-119386651D01*
X126575515Y-119386647D01*
X126463352Y-119274484D01*
X126463348Y-119274481D01*
X126331459Y-119186355D01*
X126331446Y-119186348D01*
X126184898Y-119125647D01*
X126184889Y-119125644D01*
X126029319Y-119094700D01*
X126029315Y-119094700D01*
X125870685Y-119094700D01*
X125870680Y-119094700D01*
X125715110Y-119125644D01*
X125715101Y-119125647D01*
X125568553Y-119186348D01*
X125568540Y-119186355D01*
X125436651Y-119274481D01*
X125436647Y-119274484D01*
X125324484Y-119386647D01*
X125324481Y-119386651D01*
X125236355Y-119518540D01*
X125236348Y-119518553D01*
X125175647Y-119665101D01*
X125175644Y-119665110D01*
X125144700Y-119820680D01*
X125144700Y-119979319D01*
X125175644Y-120134889D01*
X125175647Y-120134898D01*
X125236348Y-120281446D01*
X125236355Y-120281459D01*
X125324481Y-120413348D01*
X125324483Y-120413351D01*
X125341579Y-120430446D01*
X125375066Y-120491768D01*
X125377900Y-120518129D01*
X125377900Y-121295367D01*
X125358215Y-121362406D01*
X125341581Y-121383048D01*
X125277082Y-121447546D01*
X125277076Y-121447553D01*
X125196741Y-121552247D01*
X125196740Y-121552249D01*
X125144088Y-121643446D01*
X125144080Y-121643463D01*
X125093586Y-121765366D01*
X125093582Y-121765376D01*
X125066325Y-121867101D01*
X125066323Y-121867110D01*
X125049100Y-121997938D01*
X125049100Y-122401000D01*
X125029415Y-122468039D01*
X124976611Y-122513794D01*
X124925100Y-122525000D01*
X124444100Y-122525000D01*
X124377061Y-122505315D01*
X124331306Y-122452511D01*
X124320100Y-122401000D01*
X124320100Y-121997938D01*
X124311703Y-121934157D01*
X124302876Y-121867107D01*
X124275617Y-121765374D01*
X124225117Y-121643457D01*
X124225111Y-121643446D01*
X124172459Y-121552249D01*
X124172458Y-121552247D01*
X124092123Y-121447553D01*
X124092117Y-121447546D01*
X124027619Y-121383048D01*
X123994134Y-121321725D01*
X123991300Y-121295367D01*
X123991300Y-118613676D01*
X123988488Y-118603181D01*
X123951999Y-118467002D01*
X123876075Y-118335498D01*
X123768702Y-118228125D01*
X117254102Y-111713525D01*
X117254100Y-111713524D01*
X117254098Y-111713522D01*
X117122600Y-111637602D01*
X117122599Y-111637601D01*
X117122598Y-111637601D01*
X116975924Y-111598300D01*
X116975923Y-111598300D01*
X113113530Y-111598300D01*
X113046491Y-111578615D01*
X113025849Y-111561981D01*
X113013352Y-111549484D01*
X113013348Y-111549481D01*
X112881459Y-111461355D01*
X112881446Y-111461348D01*
X112734898Y-111400647D01*
X112734889Y-111400644D01*
X112579319Y-111369700D01*
X112579315Y-111369700D01*
X112420685Y-111369700D01*
X112420680Y-111369700D01*
X112265110Y-111400644D01*
X112265101Y-111400647D01*
X112118553Y-111461348D01*
X112118540Y-111461355D01*
X111986651Y-111549481D01*
X111986647Y-111549484D01*
X111874484Y-111661647D01*
X111874481Y-111661651D01*
X111786355Y-111793540D01*
X111786348Y-111793553D01*
X111725647Y-111940101D01*
X111725644Y-111940110D01*
X111704087Y-112048491D01*
X111671702Y-112110402D01*
X111610987Y-112144976D01*
X111582470Y-112148300D01*
X109517530Y-112148300D01*
X109450491Y-112128615D01*
X109404736Y-112075811D01*
X109395913Y-112048491D01*
X109374355Y-111940110D01*
X109374352Y-111940101D01*
X109371868Y-111934105D01*
X109334356Y-111843540D01*
X109313651Y-111793553D01*
X109313644Y-111793540D01*
X109225518Y-111661651D01*
X109225515Y-111661647D01*
X109113352Y-111549484D01*
X109113348Y-111549481D01*
X108981459Y-111461355D01*
X108981446Y-111461348D01*
X108834898Y-111400647D01*
X108834889Y-111400644D01*
X108679319Y-111369700D01*
X108679315Y-111369700D01*
X108520685Y-111369700D01*
X108520680Y-111369700D01*
X108365110Y-111400644D01*
X108365101Y-111400647D01*
X108218553Y-111461348D01*
X108218540Y-111461355D01*
X108086651Y-111549481D01*
X108086647Y-111549484D01*
X107974484Y-111661647D01*
X107974481Y-111661651D01*
X107886355Y-111793540D01*
X107886348Y-111793553D01*
X107825647Y-111940101D01*
X107825644Y-111940110D01*
X107794700Y-112095680D01*
X107794700Y-112254319D01*
X107825644Y-112409889D01*
X107825647Y-112409898D01*
X107886348Y-112556446D01*
X107886355Y-112556459D01*
X107974481Y-112688348D01*
X107974484Y-112688352D01*
X108086647Y-112800515D01*
X108086651Y-112800518D01*
X108218540Y-112888644D01*
X108218553Y-112888651D01*
X108328464Y-112934176D01*
X108365103Y-112949353D01*
X108365105Y-112949353D01*
X108365110Y-112949355D01*
X108520680Y-112980299D01*
X108520684Y-112980300D01*
X108520685Y-112980300D01*
X108538361Y-112980300D01*
X108567801Y-112988944D01*
X108597788Y-112995468D01*
X108602803Y-112999222D01*
X108605400Y-112999985D01*
X108626042Y-113016619D01*
X108710096Y-113100673D01*
X108743581Y-113161996D01*
X108738597Y-113231688D01*
X108710097Y-113276035D01*
X108624481Y-113361651D01*
X108536355Y-113493540D01*
X108536348Y-113493553D01*
X108475647Y-113640101D01*
X108475644Y-113640110D01*
X108444700Y-113795680D01*
X108444700Y-113954319D01*
X108475644Y-114109889D01*
X108475647Y-114109898D01*
X108536348Y-114256446D01*
X108536355Y-114256459D01*
X108624481Y-114388348D01*
X108624484Y-114388352D01*
X108736647Y-114500515D01*
X108736651Y-114500518D01*
X108868540Y-114588644D01*
X108868553Y-114588651D01*
X108897515Y-114600647D01*
X109015103Y-114649353D01*
X109063936Y-114659066D01*
X109125845Y-114691450D01*
X109127425Y-114693002D01*
X110088525Y-115654102D01*
X110195898Y-115761475D01*
X110327402Y-115837399D01*
X110474076Y-115876700D01*
X110484528Y-115876700D01*
X110513457Y-115885194D01*
X110542988Y-115891345D01*
X110546647Y-115894940D01*
X110551567Y-115896385D01*
X110571311Y-115919170D01*
X110592829Y-115940311D01*
X110593963Y-115945313D01*
X110597322Y-115949189D01*
X110601613Y-115979036D01*
X110608286Y-116008450D01*
X110606778Y-116014957D01*
X110607266Y-116018347D01*
X110601089Y-116043002D01*
X110600144Y-116045604D01*
X110550647Y-116165103D01*
X110543212Y-116202476D01*
X110539993Y-116211348D01*
X110524664Y-116232207D01*
X110512662Y-116255151D01*
X110502936Y-116261775D01*
X110498619Y-116267651D01*
X110488771Y-116271423D01*
X110470885Y-116283607D01*
X110343549Y-116336350D01*
X110343540Y-116336355D01*
X110211651Y-116424481D01*
X110211647Y-116424484D01*
X110099484Y-116536647D01*
X110099481Y-116536651D01*
X110011355Y-116668540D01*
X110011348Y-116668553D01*
X109955454Y-116803497D01*
X109911613Y-116857901D01*
X109845319Y-116879966D01*
X109793442Y-116870607D01*
X109749106Y-116852243D01*
X109684897Y-116825647D01*
X109684893Y-116825646D01*
X109684889Y-116825644D01*
X109529319Y-116794700D01*
X109529315Y-116794700D01*
X109370685Y-116794700D01*
X109370680Y-116794700D01*
X109215110Y-116825644D01*
X109215101Y-116825647D01*
X109068553Y-116886348D01*
X109068540Y-116886355D01*
X108936651Y-116974481D01*
X108936647Y-116974484D01*
X108824484Y-117086647D01*
X108824481Y-117086651D01*
X108736355Y-117218540D01*
X108736348Y-117218553D01*
X108675647Y-117365101D01*
X108675645Y-117365110D01*
X108673736Y-117374705D01*
X108641347Y-117436614D01*
X108580630Y-117471185D01*
X108510860Y-117467441D01*
X108504668Y-117465068D01*
X108409498Y-117425647D01*
X108409489Y-117425644D01*
X108253919Y-117394700D01*
X108253915Y-117394700D01*
X108095285Y-117394700D01*
X108095280Y-117394700D01*
X107939710Y-117425644D01*
X107939701Y-117425647D01*
X107793153Y-117486348D01*
X107793140Y-117486355D01*
X107661251Y-117574481D01*
X107661247Y-117574484D01*
X107549084Y-117686647D01*
X107549081Y-117686651D01*
X107460955Y-117818540D01*
X107460948Y-117818553D01*
X107400247Y-117965101D01*
X107400244Y-117965110D01*
X107369300Y-118120680D01*
X107369300Y-118279319D01*
X107400244Y-118434889D01*
X107400247Y-118434898D01*
X107460948Y-118581446D01*
X107460955Y-118581459D01*
X107549080Y-118713347D01*
X107549081Y-118713348D01*
X107549082Y-118713349D01*
X107561580Y-118725847D01*
X107595065Y-118787167D01*
X107597900Y-118813529D01*
X107597900Y-119348110D01*
X107578215Y-119415149D01*
X107525411Y-119460904D01*
X107456253Y-119470848D01*
X107392697Y-119441823D01*
X107370798Y-119417002D01*
X107350515Y-119386647D01*
X107238352Y-119274484D01*
X107238348Y-119274481D01*
X107106459Y-119186355D01*
X107106446Y-119186348D01*
X106959898Y-119125647D01*
X106959889Y-119125644D01*
X106804319Y-119094700D01*
X106804315Y-119094700D01*
X106645685Y-119094700D01*
X106645680Y-119094700D01*
X106490110Y-119125644D01*
X106490101Y-119125647D01*
X106343553Y-119186348D01*
X106343540Y-119186355D01*
X106211651Y-119274481D01*
X106211647Y-119274484D01*
X106099484Y-119386647D01*
X106099481Y-119386651D01*
X106011355Y-119518540D01*
X106011348Y-119518553D01*
X105950647Y-119665101D01*
X105950644Y-119665110D01*
X105919700Y-119820680D01*
X105919700Y-119979319D01*
X105950644Y-120134889D01*
X105950647Y-120134898D01*
X106011348Y-120281446D01*
X106011355Y-120281459D01*
X106099480Y-120413347D01*
X106099481Y-120413348D01*
X106099482Y-120413349D01*
X106111980Y-120425847D01*
X106126686Y-120452778D01*
X106143277Y-120478594D01*
X106144168Y-120484792D01*
X106145465Y-120487167D01*
X106148300Y-120513529D01*
X106148300Y-120669960D01*
X106128615Y-120736999D01*
X106111981Y-120757641D01*
X105760841Y-121108781D01*
X105699518Y-121142266D01*
X105673160Y-121145100D01*
X105581938Y-121145100D01*
X105451110Y-121162323D01*
X105451101Y-121162325D01*
X105349376Y-121189582D01*
X105349366Y-121189586D01*
X105227463Y-121240080D01*
X105227446Y-121240088D01*
X105136249Y-121292740D01*
X105136247Y-121292741D01*
X105031553Y-121373076D01*
X105031546Y-121373082D01*
X104957082Y-121447546D01*
X104957076Y-121447553D01*
X104876741Y-121552247D01*
X104876740Y-121552249D01*
X104824088Y-121643446D01*
X104824080Y-121643463D01*
X104773586Y-121765366D01*
X104773582Y-121765376D01*
X104746325Y-121867101D01*
X104746323Y-121867110D01*
X104729100Y-121997938D01*
X104729100Y-122401000D01*
X104709415Y-122468039D01*
X104656611Y-122513794D01*
X104605100Y-122525000D01*
X104124100Y-122525000D01*
X104057061Y-122505315D01*
X104011306Y-122452511D01*
X104000100Y-122401000D01*
X104000100Y-121997938D01*
X103991703Y-121934157D01*
X103982876Y-121867107D01*
X103955617Y-121765374D01*
X103905117Y-121643457D01*
X103905111Y-121643446D01*
X103852459Y-121552249D01*
X103852458Y-121552247D01*
X103772123Y-121447553D01*
X103772117Y-121447546D01*
X103707619Y-121383048D01*
X103674134Y-121321725D01*
X103671300Y-121295367D01*
X103671300Y-115818678D01*
X103671300Y-115818676D01*
X103631999Y-115672002D01*
X103631363Y-115670901D01*
X103556077Y-115540501D01*
X103556072Y-115540495D01*
X102929104Y-114913527D01*
X102929098Y-114913522D01*
X102797600Y-114837602D01*
X102797599Y-114837601D01*
X102797598Y-114837601D01*
X102650924Y-114798300D01*
X102650923Y-114798300D01*
X97738530Y-114798300D01*
X97671491Y-114778615D01*
X97650849Y-114761981D01*
X97638352Y-114749484D01*
X97638348Y-114749481D01*
X97506459Y-114661355D01*
X97506446Y-114661348D01*
X97359898Y-114600647D01*
X97359889Y-114600644D01*
X97204319Y-114569700D01*
X97204315Y-114569700D01*
X97045685Y-114569700D01*
X97045680Y-114569700D01*
X96890110Y-114600644D01*
X96890101Y-114600647D01*
X96743553Y-114661348D01*
X96743540Y-114661355D01*
X96611651Y-114749481D01*
X96611647Y-114749484D01*
X96499484Y-114861647D01*
X96499481Y-114861651D01*
X96411355Y-114993540D01*
X96411352Y-114993546D01*
X96378931Y-115071817D01*
X96335089Y-115126220D01*
X96288563Y-115145980D01*
X96265107Y-115150645D01*
X96265098Y-115150648D01*
X96118553Y-115211348D01*
X96118540Y-115211355D01*
X95986651Y-115299481D01*
X95986647Y-115299484D01*
X95874484Y-115411647D01*
X95874481Y-115411651D01*
X95786355Y-115543540D01*
X95786348Y-115543553D01*
X95725647Y-115690101D01*
X95725644Y-115690110D01*
X95694700Y-115845680D01*
X95694700Y-116004319D01*
X95725644Y-116159889D01*
X95725647Y-116159898D01*
X95786348Y-116306446D01*
X95786355Y-116306459D01*
X95874481Y-116438348D01*
X95874484Y-116438352D01*
X95986647Y-116550515D01*
X95986651Y-116550518D01*
X96118540Y-116638644D01*
X96118553Y-116638651D01*
X96228464Y-116684176D01*
X96265103Y-116699353D01*
X96265105Y-116699353D01*
X96265110Y-116699355D01*
X96420680Y-116730299D01*
X96420684Y-116730300D01*
X96420685Y-116730300D01*
X96438361Y-116730300D01*
X96467801Y-116738944D01*
X96497788Y-116745468D01*
X96502803Y-116749222D01*
X96505400Y-116749985D01*
X96526042Y-116766619D01*
X96536981Y-116777558D01*
X96570466Y-116838881D01*
X96573300Y-116865239D01*
X96573300Y-117345700D01*
X96553615Y-117412739D01*
X96500811Y-117458494D01*
X96449300Y-117469700D01*
X96345680Y-117469700D01*
X96190110Y-117500644D01*
X96190101Y-117500647D01*
X96043553Y-117561348D01*
X96043540Y-117561355D01*
X95911651Y-117649481D01*
X95911647Y-117649484D01*
X95799484Y-117761647D01*
X95799481Y-117761651D01*
X95711355Y-117893540D01*
X95711348Y-117893553D01*
X95650647Y-118040101D01*
X95650644Y-118040110D01*
X95619700Y-118195680D01*
X95619700Y-118213361D01*
X95600015Y-118280400D01*
X95583381Y-118301042D01*
X95013527Y-118870895D01*
X95013522Y-118870901D01*
X94937602Y-119002398D01*
X94937602Y-119002399D01*
X94937601Y-119002401D01*
X94937601Y-119002402D01*
X94912870Y-119094700D01*
X94898300Y-119149076D01*
X94898300Y-121294967D01*
X94878615Y-121362006D01*
X94861981Y-121382648D01*
X94797082Y-121447546D01*
X94797076Y-121447553D01*
X94716741Y-121552247D01*
X94716740Y-121552249D01*
X94664088Y-121643446D01*
X94664080Y-121643463D01*
X94613586Y-121765366D01*
X94613582Y-121765376D01*
X94586325Y-121867101D01*
X94586323Y-121867110D01*
X94569100Y-121997938D01*
X94569100Y-122401000D01*
X94549415Y-122468039D01*
X94496611Y-122513794D01*
X94445100Y-122525000D01*
X93963600Y-122525000D01*
X93896561Y-122505315D01*
X93850806Y-122452511D01*
X93839600Y-122401000D01*
X93839600Y-121997938D01*
X93822393Y-121867240D01*
X93822391Y-121867231D01*
X93795132Y-121765501D01*
X93795130Y-121765494D01*
X93744686Y-121643713D01*
X93744678Y-121643696D01*
X93692026Y-121552499D01*
X93692025Y-121552497D01*
X93611770Y-121447906D01*
X93611764Y-121447899D01*
X93537300Y-121373435D01*
X93537293Y-121373429D01*
X93432702Y-121293174D01*
X93432700Y-121293173D01*
X93341503Y-121240521D01*
X93341481Y-121240510D01*
X93219696Y-121190066D01*
X93184600Y-121180662D01*
X93184600Y-122525000D01*
X92684600Y-122525000D01*
X92684600Y-121180662D01*
X92684599Y-121180662D01*
X92649503Y-121190066D01*
X92527718Y-121240510D01*
X92527696Y-121240521D01*
X92436499Y-121293173D01*
X92436497Y-121293174D01*
X92331906Y-121373429D01*
X92331899Y-121373435D01*
X92257435Y-121447899D01*
X92257429Y-121447906D01*
X92177174Y-121552497D01*
X92177173Y-121552499D01*
X92124521Y-121643696D01*
X92124513Y-121643713D01*
X92074069Y-121765494D01*
X92074067Y-121765501D01*
X92046808Y-121867231D01*
X92046806Y-121867240D01*
X92029600Y-121997938D01*
X92029600Y-122401000D01*
X92009915Y-122468039D01*
X91957111Y-122513794D01*
X91905600Y-122525000D01*
X91423600Y-122525000D01*
X91356561Y-122505315D01*
X91310806Y-122452511D01*
X91299600Y-122401000D01*
X91299600Y-121997938D01*
X91282393Y-121867240D01*
X91282391Y-121867231D01*
X91255132Y-121765501D01*
X91255130Y-121765494D01*
X91204686Y-121643713D01*
X91204678Y-121643696D01*
X91152026Y-121552499D01*
X91152025Y-121552497D01*
X91071770Y-121447906D01*
X91071764Y-121447899D01*
X90997300Y-121373435D01*
X90997293Y-121373429D01*
X90892702Y-121293174D01*
X90892700Y-121293173D01*
X90801503Y-121240521D01*
X90801481Y-121240510D01*
X90679696Y-121190066D01*
X90644600Y-121180662D01*
X90644600Y-122525000D01*
X90144600Y-122525000D01*
X90144600Y-121180662D01*
X90144599Y-121180662D01*
X90109503Y-121190066D01*
X89987718Y-121240510D01*
X89987696Y-121240521D01*
X89896499Y-121293173D01*
X89896497Y-121293174D01*
X89791906Y-121373429D01*
X89791899Y-121373435D01*
X89717435Y-121447899D01*
X89717429Y-121447906D01*
X89637174Y-121552497D01*
X89637173Y-121552499D01*
X89584521Y-121643696D01*
X89584513Y-121643713D01*
X89534069Y-121765494D01*
X89534067Y-121765501D01*
X89506808Y-121867231D01*
X89506806Y-121867240D01*
X89489600Y-121997938D01*
X89489600Y-122401000D01*
X89469915Y-122468039D01*
X89417111Y-122513794D01*
X89365600Y-122525000D01*
X88884100Y-122525000D01*
X88817061Y-122505315D01*
X88771306Y-122452511D01*
X88760100Y-122401000D01*
X88760100Y-121997938D01*
X88751703Y-121934157D01*
X88742876Y-121867107D01*
X88715617Y-121765374D01*
X88665117Y-121643457D01*
X88665111Y-121643446D01*
X88612459Y-121552249D01*
X88612458Y-121552247D01*
X88532123Y-121447553D01*
X88532117Y-121447546D01*
X88457653Y-121373082D01*
X88457646Y-121373076D01*
X88352952Y-121292741D01*
X88352950Y-121292740D01*
X88261753Y-121240088D01*
X88261745Y-121240084D01*
X88261743Y-121240083D01*
X88258831Y-121238877D01*
X88198979Y-121214085D01*
X88139826Y-121189583D01*
X88139824Y-121189582D01*
X88139823Y-121189582D01*
X88038098Y-121162325D01*
X88038089Y-121162323D01*
X87907262Y-121145100D01*
X87907261Y-121145100D01*
X87801939Y-121145100D01*
X87801938Y-121145100D01*
X87772018Y-121149039D01*
X87755833Y-121150100D01*
X86339100Y-121150100D01*
X86272061Y-121130415D01*
X86226306Y-121077611D01*
X86215100Y-121026100D01*
X86215100Y-119538962D01*
X86234785Y-119471923D01*
X86251419Y-119451281D01*
X91965881Y-113736819D01*
X92027204Y-113703334D01*
X92053562Y-113700500D01*
X101038693Y-113700500D01*
X101038694Y-113700499D01*
X101212666Y-113665895D01*
X101305595Y-113627402D01*
X101376547Y-113598013D01*
X101491957Y-113520898D01*
X101524036Y-113499464D01*
X104386680Y-110636818D01*
X104448003Y-110603334D01*
X104474361Y-110600500D01*
X140863693Y-110600500D01*
X140863694Y-110600499D01*
X140921682Y-110588964D01*
X141037658Y-110565896D01*
X141037661Y-110565894D01*
X141037666Y-110565894D01*
X141201547Y-110498013D01*
X141349035Y-110399464D01*
X141474464Y-110274035D01*
X141573013Y-110126547D01*
X141640894Y-109962666D01*
X141645916Y-109937422D01*
X141675499Y-109788695D01*
X141675500Y-109788693D01*
X141675500Y-109611306D01*
X141675499Y-109611304D01*
X141640896Y-109437341D01*
X141640893Y-109437332D01*
X141573016Y-109273459D01*
X141573009Y-109273446D01*
X141474464Y-109125965D01*
X141474461Y-109125961D01*
X141349038Y-109000538D01*
X141349034Y-109000535D01*
X141201553Y-108901990D01*
X141201540Y-108901983D01*
X141037667Y-108834106D01*
X141037658Y-108834103D01*
X140863694Y-108799500D01*
X140863691Y-108799500D01*
X130298362Y-108799500D01*
X130231323Y-108779815D01*
X130185568Y-108727011D01*
X130175624Y-108657853D01*
X130204649Y-108594297D01*
X130210681Y-108587819D01*
X131724463Y-107074036D01*
X131724465Y-107074033D01*
X131725148Y-107073012D01*
X131823013Y-106926547D01*
X131890894Y-106762666D01*
X131903052Y-106701547D01*
X131925499Y-106588695D01*
X131925500Y-106588693D01*
X131925500Y-106086306D01*
X131925499Y-106086304D01*
X131890896Y-105912341D01*
X131890893Y-105912332D01*
X131879494Y-105884813D01*
X131856505Y-105829310D01*
X131823016Y-105748459D01*
X131823009Y-105748446D01*
X131724464Y-105600965D01*
X131724461Y-105600961D01*
X131599038Y-105475538D01*
X131599034Y-105475535D01*
X131451553Y-105376990D01*
X131451540Y-105376983D01*
X131287667Y-105309106D01*
X131287658Y-105309103D01*
X131113694Y-105274500D01*
X131113691Y-105274500D01*
X130936309Y-105274500D01*
X130936306Y-105274500D01*
X130762341Y-105309103D01*
X130762332Y-105309106D01*
X130598459Y-105376983D01*
X130598446Y-105376990D01*
X130450965Y-105475535D01*
X130450961Y-105475538D01*
X130325538Y-105600961D01*
X130325535Y-105600965D01*
X130226990Y-105748446D01*
X130226983Y-105748459D01*
X130159106Y-105912332D01*
X130159103Y-105912341D01*
X130124500Y-106086302D01*
X130124403Y-106087293D01*
X130124207Y-106087778D01*
X130123311Y-106092283D01*
X130122456Y-106092113D01*
X130098241Y-106152080D01*
X130088681Y-106162818D01*
X127488319Y-108763181D01*
X127426996Y-108796666D01*
X127400638Y-108799500D01*
X103961306Y-108799500D01*
X103787341Y-108834103D01*
X103787332Y-108834106D01*
X103623459Y-108901983D01*
X103623446Y-108901990D01*
X103475966Y-109000534D01*
X103425966Y-109050535D01*
X103375965Y-109100536D01*
X100613319Y-111863181D01*
X100551996Y-111896666D01*
X100525638Y-111899500D01*
X91540503Y-111899500D01*
X91366541Y-111934103D01*
X91366529Y-111934106D01*
X91284592Y-111968045D01*
X91284593Y-111968046D01*
X91202655Y-112001985D01*
X91114240Y-112061063D01*
X91114239Y-112061064D01*
X91055161Y-112100537D01*
X85402280Y-117753418D01*
X85340957Y-117786903D01*
X85271265Y-117781919D01*
X85226918Y-117753418D01*
X83874039Y-116400538D01*
X83874038Y-116400537D01*
X83847552Y-116382840D01*
X83783591Y-116340103D01*
X83726547Y-116301987D01*
X83641773Y-116266873D01*
X83636857Y-116264836D01*
X83636848Y-116264832D01*
X83562666Y-116234105D01*
X83562658Y-116234103D01*
X83388696Y-116199500D01*
X83388692Y-116199500D01*
X83388691Y-116199500D01*
X74724361Y-116199500D01*
X74657322Y-116179815D01*
X74636680Y-116163181D01*
X73736819Y-115263319D01*
X73703334Y-115201996D01*
X73700500Y-115175638D01*
X73700500Y-112067722D01*
X82539500Y-112067722D01*
X82539500Y-112382277D01*
X82574716Y-112694827D01*
X82574718Y-112694843D01*
X82644710Y-113001499D01*
X82644711Y-113001501D01*
X82748598Y-113298395D01*
X82885072Y-113581786D01*
X82885074Y-113581789D01*
X83052423Y-113848123D01*
X83248539Y-114094044D01*
X83470956Y-114316461D01*
X83716877Y-114512577D01*
X83957039Y-114663481D01*
X83983213Y-114679927D01*
X84072804Y-114723072D01*
X84266606Y-114816402D01*
X84563500Y-114920289D01*
X84870160Y-114990282D01*
X85182723Y-115025499D01*
X85182724Y-115025500D01*
X85182727Y-115025500D01*
X85497276Y-115025500D01*
X85497276Y-115025499D01*
X85809840Y-114990282D01*
X86116500Y-114920289D01*
X86413394Y-114816402D01*
X86696789Y-114679926D01*
X86963123Y-114512577D01*
X87209044Y-114316461D01*
X87431461Y-114094044D01*
X87627577Y-113848123D01*
X87794926Y-113581789D01*
X87931402Y-113298394D01*
X88035289Y-113001500D01*
X88105282Y-112694840D01*
X88140500Y-112382273D01*
X88140500Y-112067727D01*
X88105282Y-111755160D01*
X88035289Y-111448500D01*
X87931402Y-111151606D01*
X87794926Y-110868211D01*
X87627577Y-110601877D01*
X87431461Y-110355956D01*
X87209044Y-110133539D01*
X87200276Y-110126547D01*
X87146589Y-110083733D01*
X86963123Y-109937423D01*
X86696789Y-109770074D01*
X86696786Y-109770072D01*
X86413395Y-109633598D01*
X86116501Y-109529711D01*
X86116499Y-109529710D01*
X85809843Y-109459718D01*
X85809827Y-109459716D01*
X85497277Y-109424500D01*
X85497273Y-109424500D01*
X85182727Y-109424500D01*
X85182722Y-109424500D01*
X84870172Y-109459716D01*
X84870156Y-109459718D01*
X84563500Y-109529710D01*
X84563498Y-109529711D01*
X84266604Y-109633598D01*
X83983213Y-109770072D01*
X83716878Y-109937422D01*
X83470956Y-110133538D01*
X83248538Y-110355956D01*
X83052422Y-110601878D01*
X82885072Y-110868213D01*
X82748598Y-111151604D01*
X82644711Y-111448498D01*
X82644710Y-111448500D01*
X82574718Y-111755156D01*
X82574716Y-111755172D01*
X82539500Y-112067722D01*
X73700500Y-112067722D01*
X73700500Y-105861306D01*
X73700499Y-105861304D01*
X73665896Y-105687341D01*
X73665893Y-105687332D01*
X73598016Y-105523459D01*
X73598009Y-105523446D01*
X73499464Y-105375965D01*
X73499461Y-105375961D01*
X73374038Y-105250538D01*
X73374034Y-105250535D01*
X73226553Y-105151990D01*
X73226540Y-105151983D01*
X73062667Y-105084106D01*
X73062658Y-105084103D01*
X72888694Y-105049500D01*
X72888691Y-105049500D01*
X72711309Y-105049500D01*
X72711306Y-105049500D01*
X72537341Y-105084103D01*
X72537332Y-105084106D01*
X72373459Y-105151983D01*
X72373446Y-105151990D01*
X72225965Y-105250535D01*
X72225961Y-105250538D01*
X72100538Y-105375961D01*
X72100535Y-105375965D01*
X72001990Y-105523446D01*
X72001983Y-105523459D01*
X71934106Y-105687332D01*
X71934103Y-105687341D01*
X71899500Y-105861304D01*
X71899500Y-115688696D01*
X71934103Y-115862658D01*
X71934105Y-115862666D01*
X71959718Y-115924501D01*
X72001985Y-116026544D01*
X72042026Y-116086470D01*
X72042027Y-116086471D01*
X72042030Y-116086475D01*
X72072448Y-116131999D01*
X72100537Y-116174038D01*
X72100538Y-116174039D01*
X73600536Y-117674035D01*
X73663668Y-117737167D01*
X73725966Y-117799465D01*
X73755054Y-117818901D01*
X73873453Y-117898013D01*
X74011758Y-117955300D01*
X74011761Y-117955301D01*
X74011762Y-117955302D01*
X74035424Y-117965103D01*
X74037334Y-117965894D01*
X74037338Y-117965894D01*
X74037339Y-117965895D01*
X74211305Y-118000500D01*
X74211308Y-118000500D01*
X74211309Y-118000500D01*
X82875638Y-118000500D01*
X82942677Y-118020185D01*
X82963319Y-118036819D01*
X84377781Y-119451280D01*
X84411266Y-119512603D01*
X84414100Y-119538961D01*
X84414100Y-121951833D01*
X84413039Y-121968018D01*
X84409100Y-121997938D01*
X84409100Y-122401000D01*
X84389415Y-122468039D01*
X84336611Y-122513794D01*
X84285100Y-122525000D01*
X83804100Y-122525000D01*
X83795414Y-122522449D01*
X83786453Y-122523738D01*
X83762412Y-122512759D01*
X83737061Y-122505315D01*
X83731133Y-122498474D01*
X83722897Y-122494713D01*
X83708607Y-122472478D01*
X83691306Y-122452511D01*
X83689018Y-122441996D01*
X83685123Y-122435935D01*
X83680100Y-122401000D01*
X83680100Y-122228661D01*
X83682483Y-122204469D01*
X83700500Y-122113892D01*
X83700500Y-121936508D01*
X83700500Y-120011309D01*
X83699109Y-120004315D01*
X83665895Y-119837334D01*
X83609277Y-119700647D01*
X83609277Y-119700646D01*
X83598016Y-119673458D01*
X83598009Y-119673446D01*
X83499465Y-119525966D01*
X83437376Y-119463877D01*
X83374035Y-119400536D01*
X83252814Y-119279315D01*
X82874041Y-118900540D01*
X82874034Y-118900534D01*
X82726548Y-118801988D01*
X82562666Y-118734105D01*
X82562658Y-118734103D01*
X82388696Y-118699500D01*
X82388692Y-118699500D01*
X82211308Y-118699500D01*
X82211303Y-118699500D01*
X82037341Y-118734103D01*
X82037333Y-118734105D01*
X81873451Y-118801988D01*
X81725965Y-118900534D01*
X81725958Y-118900540D01*
X81600540Y-119025958D01*
X81600534Y-119025965D01*
X81501988Y-119173451D01*
X81434105Y-119337333D01*
X81434103Y-119337341D01*
X81399500Y-119511303D01*
X81399500Y-119688696D01*
X81434103Y-119862658D01*
X81434105Y-119862666D01*
X81501988Y-120026548D01*
X81600534Y-120174034D01*
X81600535Y-120174035D01*
X81600536Y-120174036D01*
X81863182Y-120436681D01*
X81896666Y-120498002D01*
X81899500Y-120524361D01*
X81899500Y-121801607D01*
X81895275Y-121833701D01*
X81886325Y-121867100D01*
X81886323Y-121867110D01*
X81869100Y-121997938D01*
X81869100Y-122401000D01*
X81849415Y-122468039D01*
X81796611Y-122513794D01*
X81745100Y-122525000D01*
X80913100Y-122525000D01*
X80846061Y-122505315D01*
X80800306Y-122452511D01*
X80789100Y-122401000D01*
X80789100Y-121675756D01*
X80789100Y-121675754D01*
X80760675Y-121514550D01*
X80704689Y-121360731D01*
X80622844Y-121218970D01*
X80622377Y-121218414D01*
X80564496Y-121149434D01*
X80517625Y-121093575D01*
X80430752Y-121020680D01*
X80392233Y-120988358D01*
X80349153Y-120963486D01*
X80307516Y-120939447D01*
X80250473Y-120906513D01*
X80250470Y-120906512D01*
X80250469Y-120906511D01*
X80096650Y-120850525D01*
X80096645Y-120850524D01*
X79935446Y-120822100D01*
X79893162Y-120822100D01*
X69681175Y-120822100D01*
X69664431Y-120820964D01*
X69655501Y-120819747D01*
X69591733Y-120791190D01*
X69584564Y-120784564D01*
X69364887Y-120564887D01*
X69331402Y-120503564D01*
X69330488Y-120498941D01*
X69327433Y-120481782D01*
X69325513Y-120460047D01*
X69325513Y-109054744D01*
X69325515Y-109054098D01*
X69325975Y-108965609D01*
X69325975Y-108965608D01*
X69315439Y-108904102D01*
X69295573Y-108788121D01*
X69282298Y-108751156D01*
X69282298Y-108751155D01*
X69275000Y-108730835D01*
X69275000Y-108725000D01*
X69271729Y-108721729D01*
X69234710Y-108618649D01*
X69234709Y-108618648D01*
X69234708Y-108618644D01*
X69167755Y-108501693D01*
X69145247Y-108462375D01*
X69029923Y-108324080D01*
X69029919Y-108324077D01*
X69029920Y-108324077D01*
X68892265Y-108207997D01*
X68892263Y-108207996D01*
X68736485Y-108117676D01*
X68736483Y-108117675D01*
X68736480Y-108117673D01*
X68653810Y-108087469D01*
X68653810Y-108087470D01*
X68628063Y-108078063D01*
X68625000Y-108075000D01*
X68619677Y-108075000D01*
X68599068Y-108067470D01*
X68599067Y-108067469D01*
X68567351Y-108055882D01*
X68390036Y-108024505D01*
X68347721Y-108024491D01*
X68347499Y-108024477D01*
X68339562Y-108024477D01*
X63625839Y-108024477D01*
X63558800Y-108004792D01*
X63538158Y-107988158D01*
X63111106Y-107561106D01*
X63077621Y-107499783D01*
X63074788Y-107473418D01*
X63079262Y-77161309D01*
X74824500Y-77161309D01*
X74824500Y-90588695D01*
X74859103Y-90762658D01*
X74859106Y-90762667D01*
X74926983Y-90926540D01*
X74926990Y-90926553D01*
X75025535Y-91074034D01*
X75025538Y-91074038D01*
X75150961Y-91199461D01*
X75150965Y-91199464D01*
X75298446Y-91298009D01*
X75298459Y-91298016D01*
X75374033Y-91329319D01*
X75462334Y-91365894D01*
X75462336Y-91365894D01*
X75462341Y-91365896D01*
X75636304Y-91400499D01*
X75636307Y-91400500D01*
X75636309Y-91400500D01*
X75813693Y-91400500D01*
X75813694Y-91400499D01*
X75871682Y-91388964D01*
X75987658Y-91365896D01*
X75987661Y-91365894D01*
X75987666Y-91365894D01*
X76151547Y-91298013D01*
X76299035Y-91199464D01*
X76424464Y-91074035D01*
X76523013Y-90926547D01*
X76590894Y-90762666D01*
X76592360Y-90755300D01*
X76625499Y-90588695D01*
X76625500Y-90588693D01*
X76625500Y-77674361D01*
X76645185Y-77607322D01*
X76661819Y-77586680D01*
X77486680Y-76761819D01*
X77548003Y-76728334D01*
X77574361Y-76725500D01*
X78264242Y-76725500D01*
X78331281Y-76745185D01*
X78351923Y-76761819D01*
X78420213Y-76830109D01*
X78592179Y-76955048D01*
X78592181Y-76955049D01*
X78592184Y-76955051D01*
X78601493Y-76959794D01*
X78652290Y-77007766D01*
X78669087Y-77075587D01*
X78646552Y-77141722D01*
X78601505Y-77180760D01*
X78592446Y-77185376D01*
X78592440Y-77185380D01*
X78538282Y-77224727D01*
X78538282Y-77224728D01*
X79170591Y-77857037D01*
X79107007Y-77874075D01*
X78992993Y-77939901D01*
X78899901Y-78032993D01*
X78834075Y-78147007D01*
X78817037Y-78210591D01*
X78184728Y-77578282D01*
X78184727Y-77578282D01*
X78145380Y-77632439D01*
X78048904Y-77821782D01*
X77983242Y-78023869D01*
X77983242Y-78023872D01*
X77950000Y-78233753D01*
X77950000Y-78446246D01*
X77983242Y-78656127D01*
X77983242Y-78656130D01*
X78048904Y-78858217D01*
X78145375Y-79047550D01*
X78184728Y-79101716D01*
X78817037Y-78469408D01*
X78834075Y-78532993D01*
X78899901Y-78647007D01*
X78992993Y-78740099D01*
X79107007Y-78805925D01*
X79170590Y-78822962D01*
X78538282Y-79455269D01*
X78538282Y-79455270D01*
X78592452Y-79494626D01*
X78592451Y-79494626D01*
X78601495Y-79499234D01*
X78652292Y-79547208D01*
X78669087Y-79615029D01*
X78646550Y-79681164D01*
X78601499Y-79720202D01*
X78592182Y-79724949D01*
X78420213Y-79849890D01*
X78269890Y-80000213D01*
X78144951Y-80172179D01*
X78048444Y-80361585D01*
X77982753Y-80563760D01*
X77949500Y-80773713D01*
X77949500Y-80986286D01*
X77979658Y-81176700D01*
X77982754Y-81196243D01*
X78046242Y-81391639D01*
X78048444Y-81398414D01*
X78144951Y-81587820D01*
X78269890Y-81759786D01*
X78420213Y-81910109D01*
X78592182Y-82035050D01*
X78600946Y-82039516D01*
X78651742Y-82087491D01*
X78668536Y-82155312D01*
X78645998Y-82221447D01*
X78600946Y-82260484D01*
X78592182Y-82264949D01*
X78420213Y-82389890D01*
X78269890Y-82540213D01*
X78144951Y-82712179D01*
X78048444Y-82901585D01*
X77982753Y-83103760D01*
X77949500Y-83313713D01*
X77949500Y-83526286D01*
X77982540Y-83734897D01*
X77982754Y-83736243D01*
X78037684Y-83905300D01*
X78048444Y-83938414D01*
X78144951Y-84127820D01*
X78269890Y-84299786D01*
X78420213Y-84450109D01*
X78592182Y-84575050D01*
X78600946Y-84579516D01*
X78651742Y-84627491D01*
X78668536Y-84695312D01*
X78645998Y-84761447D01*
X78600946Y-84800484D01*
X78592182Y-84804949D01*
X78420213Y-84929890D01*
X78269890Y-85080213D01*
X78144951Y-85252179D01*
X78048444Y-85441585D01*
X77982753Y-85643760D01*
X77949500Y-85853713D01*
X77949500Y-86066286D01*
X77980759Y-86263651D01*
X77982754Y-86276243D01*
X78042938Y-86461470D01*
X78048444Y-86478414D01*
X78144951Y-86667820D01*
X78269890Y-86839786D01*
X78383430Y-86953326D01*
X78416915Y-87014649D01*
X78411931Y-87084341D01*
X78370059Y-87140274D01*
X78339083Y-87157189D01*
X78207669Y-87206203D01*
X78207664Y-87206206D01*
X78092455Y-87292452D01*
X78092452Y-87292455D01*
X78006206Y-87407664D01*
X78006202Y-87407671D01*
X77955908Y-87542517D01*
X77949501Y-87602116D01*
X77949500Y-87602135D01*
X77949500Y-89397870D01*
X77949501Y-89397876D01*
X77955908Y-89457483D01*
X78006202Y-89592328D01*
X78006206Y-89592335D01*
X78092452Y-89707544D01*
X78092455Y-89707547D01*
X78207664Y-89793793D01*
X78207671Y-89793797D01*
X78342517Y-89844091D01*
X78342516Y-89844091D01*
X78349444Y-89844835D01*
X78402127Y-89850500D01*
X80197872Y-89850499D01*
X80257483Y-89844091D01*
X80392331Y-89793796D01*
X80507546Y-89707546D01*
X80593796Y-89592331D01*
X80644091Y-89457483D01*
X80650500Y-89397873D01*
X80650499Y-88991437D01*
X80670183Y-88924399D01*
X80686813Y-88903762D01*
X85648958Y-83941619D01*
X85710281Y-83908134D01*
X85736639Y-83905300D01*
X85754316Y-83905300D01*
X85754317Y-83905299D01*
X85807309Y-83894759D01*
X85909889Y-83874355D01*
X85909892Y-83874353D01*
X85909897Y-83874353D01*
X86056453Y-83813648D01*
X86188349Y-83725518D01*
X86298965Y-83614901D01*
X86360286Y-83581418D01*
X86429978Y-83586402D01*
X86474326Y-83614903D01*
X86661981Y-83802558D01*
X86695466Y-83863881D01*
X86698300Y-83890239D01*
X86698300Y-84936470D01*
X86678615Y-85003509D01*
X86661981Y-85024151D01*
X86649484Y-85036647D01*
X86649481Y-85036651D01*
X86561355Y-85168540D01*
X86561348Y-85168553D01*
X86500647Y-85315101D01*
X86500644Y-85315110D01*
X86469700Y-85470680D01*
X86469700Y-85629319D01*
X86500644Y-85784889D01*
X86500647Y-85784898D01*
X86561348Y-85931446D01*
X86561355Y-85931459D01*
X86649481Y-86063348D01*
X86649484Y-86063352D01*
X86761647Y-86175515D01*
X86761651Y-86175518D01*
X86893540Y-86263644D01*
X86893553Y-86263651D01*
X87003464Y-86309176D01*
X87040103Y-86324353D01*
X87040105Y-86324353D01*
X87040110Y-86324355D01*
X87195680Y-86355299D01*
X87195684Y-86355300D01*
X87195685Y-86355300D01*
X87354316Y-86355300D01*
X87354317Y-86355299D01*
X87406175Y-86344984D01*
X87509889Y-86324355D01*
X87509892Y-86324353D01*
X87509897Y-86324353D01*
X87656453Y-86263648D01*
X87788349Y-86175518D01*
X87900518Y-86063349D01*
X87988648Y-85931453D01*
X88049353Y-85784897D01*
X88080300Y-85629315D01*
X88080300Y-85470685D01*
X88072228Y-85430104D01*
X88049355Y-85315110D01*
X88049352Y-85315101D01*
X87988651Y-85168553D01*
X87988644Y-85168540D01*
X87900518Y-85036651D01*
X87900515Y-85036647D01*
X87888019Y-85024151D01*
X87854534Y-84962828D01*
X87851700Y-84936470D01*
X87851700Y-83524078D01*
X87851700Y-83524076D01*
X87812399Y-83377402D01*
X87808065Y-83369896D01*
X87736477Y-83245901D01*
X87736472Y-83245895D01*
X86304104Y-81813527D01*
X86304098Y-81813522D01*
X86172600Y-81737602D01*
X86172599Y-81737601D01*
X86172598Y-81737601D01*
X86025924Y-81698300D01*
X86025923Y-81698300D01*
X80985239Y-81698300D01*
X80918200Y-81678615D01*
X80897558Y-81661981D01*
X80625503Y-81389926D01*
X80592018Y-81328603D01*
X80595252Y-81263929D01*
X80617246Y-81196243D01*
X80650500Y-80986287D01*
X80650500Y-80773713D01*
X80617246Y-80563757D01*
X80551557Y-80361588D01*
X80455051Y-80172184D01*
X80455049Y-80172181D01*
X80455048Y-80172179D01*
X80330109Y-80000213D01*
X80179786Y-79849890D01*
X80007817Y-79724949D01*
X79998504Y-79720204D01*
X79947707Y-79672230D01*
X79930912Y-79604409D01*
X79953449Y-79538274D01*
X79998507Y-79499232D01*
X80007555Y-79494622D01*
X80061716Y-79455270D01*
X80061717Y-79455270D01*
X79429408Y-78822962D01*
X79492993Y-78805925D01*
X79607007Y-78740099D01*
X79700099Y-78647007D01*
X79765925Y-78532993D01*
X79782962Y-78469408D01*
X80415270Y-79101717D01*
X80415270Y-79101716D01*
X80454622Y-79047554D01*
X80551095Y-78858217D01*
X80616757Y-78656130D01*
X80616757Y-78656127D01*
X80650000Y-78446246D01*
X80650000Y-78233753D01*
X80616757Y-78023872D01*
X80616757Y-78023869D01*
X80551095Y-77821782D01*
X80500378Y-77722244D01*
X80500377Y-77722242D01*
X80475835Y-77674076D01*
X90648300Y-77674076D01*
X90648300Y-89549076D01*
X90648300Y-89700924D01*
X90686953Y-89845180D01*
X90687602Y-89847600D01*
X90687602Y-89847601D01*
X90763522Y-89979098D01*
X90763527Y-89979104D01*
X90833381Y-90048958D01*
X90866866Y-90110281D01*
X90869700Y-90136639D01*
X90869700Y-90154319D01*
X90900644Y-90309889D01*
X90900647Y-90309898D01*
X90961348Y-90456446D01*
X90961355Y-90456459D01*
X91049481Y-90588348D01*
X91049484Y-90588352D01*
X91161647Y-90700515D01*
X91161651Y-90700518D01*
X91293540Y-90788644D01*
X91293553Y-90788651D01*
X91403464Y-90834176D01*
X91440103Y-90849353D01*
X91440105Y-90849353D01*
X91440110Y-90849355D01*
X91595680Y-90880299D01*
X91595684Y-90880300D01*
X91595685Y-90880300D01*
X91754316Y-90880300D01*
X91754317Y-90880299D01*
X91813437Y-90868540D01*
X91909889Y-90849355D01*
X91909892Y-90849353D01*
X91909897Y-90849353D01*
X92056453Y-90788648D01*
X92188349Y-90700518D01*
X92300518Y-90588349D01*
X92388648Y-90456453D01*
X92423374Y-90372614D01*
X92467212Y-90318214D01*
X92513743Y-90298452D01*
X92533364Y-90294548D01*
X92634897Y-90274353D01*
X92781453Y-90213648D01*
X92913349Y-90125518D01*
X93025518Y-90013349D01*
X93113648Y-89881453D01*
X93174353Y-89734897D01*
X93178291Y-89715103D01*
X93196204Y-89625045D01*
X93205300Y-89579315D01*
X93205300Y-89420685D01*
X93200763Y-89397876D01*
X93174355Y-89265110D01*
X93174352Y-89265101D01*
X93113651Y-89118553D01*
X93113644Y-89118540D01*
X93025518Y-88986651D01*
X93025515Y-88986647D01*
X93013019Y-88974151D01*
X92979534Y-88912828D01*
X92976700Y-88886470D01*
X92976700Y-87997502D01*
X92996385Y-87930463D01*
X93049189Y-87884708D01*
X93076500Y-87875887D01*
X93209897Y-87849353D01*
X93356453Y-87788648D01*
X93488349Y-87700518D01*
X93600518Y-87588349D01*
X93688648Y-87456453D01*
X93749353Y-87309897D01*
X93752823Y-87292455D01*
X93780299Y-87154319D01*
X93780300Y-87154316D01*
X93780300Y-86995684D01*
X93780299Y-86995680D01*
X93749353Y-86840103D01*
X93749352Y-86840101D01*
X93748343Y-86837666D01*
X93707136Y-86738181D01*
X93688651Y-86693553D01*
X93688644Y-86693540D01*
X93600518Y-86561651D01*
X93600515Y-86561647D01*
X93588019Y-86549151D01*
X93554534Y-86487828D01*
X93551700Y-86461470D01*
X93551700Y-82888529D01*
X93571385Y-82821490D01*
X93588016Y-82800850D01*
X93600518Y-82788349D01*
X93688648Y-82656453D01*
X93749353Y-82509897D01*
X93750913Y-82502058D01*
X93769984Y-82406175D01*
X93780300Y-82354315D01*
X93780300Y-82195685D01*
X93773690Y-82162453D01*
X93749355Y-82040110D01*
X93749352Y-82040101D01*
X93688651Y-81893553D01*
X93688644Y-81893540D01*
X93600518Y-81761651D01*
X93600515Y-81761647D01*
X93488352Y-81649484D01*
X93488348Y-81649481D01*
X93356459Y-81561355D01*
X93356446Y-81561348D01*
X93209898Y-81500647D01*
X93209889Y-81500644D01*
X93076509Y-81474114D01*
X93048385Y-81459403D01*
X93019497Y-81446210D01*
X93017639Y-81443320D01*
X93014598Y-81441729D01*
X92998891Y-81414146D01*
X92981723Y-81387432D01*
X92981062Y-81382837D01*
X92980024Y-81381014D01*
X92976700Y-81352497D01*
X92976700Y-81122502D01*
X92996385Y-81055463D01*
X93049189Y-81009708D01*
X93076500Y-81000887D01*
X93209897Y-80974353D01*
X93356453Y-80913648D01*
X93488349Y-80825518D01*
X93600518Y-80713349D01*
X93688648Y-80581453D01*
X93749353Y-80434897D01*
X93760790Y-80377402D01*
X93780299Y-80279319D01*
X93780300Y-80279316D01*
X93780300Y-80120684D01*
X93780299Y-80120680D01*
X93749355Y-79965110D01*
X93749352Y-79965101D01*
X93688651Y-79818553D01*
X93688644Y-79818540D01*
X93600518Y-79686651D01*
X93600515Y-79686647D01*
X93488352Y-79574484D01*
X93488348Y-79574481D01*
X93356459Y-79486355D01*
X93356446Y-79486348D01*
X93209898Y-79425647D01*
X93209889Y-79425644D01*
X93054319Y-79394700D01*
X93054315Y-79394700D01*
X92895685Y-79394700D01*
X92860757Y-79401647D01*
X92766313Y-79420433D01*
X92696722Y-79414204D01*
X92641545Y-79371341D01*
X92618301Y-79305451D01*
X92634369Y-79237454D01*
X92654438Y-79211138D01*
X92923958Y-78941619D01*
X92985281Y-78908134D01*
X93011639Y-78905300D01*
X93029316Y-78905300D01*
X93029317Y-78905299D01*
X93081175Y-78894984D01*
X93184889Y-78874355D01*
X93184892Y-78874353D01*
X93184897Y-78874353D01*
X93331453Y-78813648D01*
X93463349Y-78725518D01*
X93575518Y-78613349D01*
X93663648Y-78481453D01*
X93724353Y-78334897D01*
X93725464Y-78329315D01*
X93753311Y-78189314D01*
X93755300Y-78179315D01*
X93755300Y-78020685D01*
X93748973Y-77988877D01*
X93724355Y-77865110D01*
X93724352Y-77865101D01*
X93663651Y-77718553D01*
X93663644Y-77718540D01*
X93575518Y-77586651D01*
X93575515Y-77586647D01*
X93463352Y-77474484D01*
X93463348Y-77474481D01*
X93331459Y-77386355D01*
X93331446Y-77386348D01*
X93184898Y-77325647D01*
X93184889Y-77325644D01*
X93029319Y-77294700D01*
X93029315Y-77294700D01*
X92870685Y-77294700D01*
X92852023Y-77298412D01*
X92803728Y-77308018D01*
X92734136Y-77301789D01*
X92678959Y-77258926D01*
X92655716Y-77193036D01*
X92671785Y-77125039D01*
X92691853Y-77098723D01*
X92948958Y-76841619D01*
X93010281Y-76808134D01*
X93036639Y-76805300D01*
X93054316Y-76805300D01*
X93054317Y-76805299D01*
X93106175Y-76794984D01*
X93209889Y-76774355D01*
X93209892Y-76774353D01*
X93209897Y-76774353D01*
X93356453Y-76713648D01*
X93488349Y-76625518D01*
X93600518Y-76513349D01*
X93688648Y-76381453D01*
X93749353Y-76234897D01*
X93753875Y-76212167D01*
X93778876Y-76086472D01*
X93780300Y-76079315D01*
X93780300Y-75920685D01*
X93772282Y-75880375D01*
X93749355Y-75765110D01*
X93749352Y-75765101D01*
X93742745Y-75749151D01*
X93706427Y-75661470D01*
X93688651Y-75618553D01*
X93688644Y-75618540D01*
X93600518Y-75486651D01*
X93600515Y-75486647D01*
X93488352Y-75374484D01*
X93488348Y-75374481D01*
X93356459Y-75286355D01*
X93356446Y-75286348D01*
X93209898Y-75225647D01*
X93209889Y-75225644D01*
X93054319Y-75194700D01*
X93054315Y-75194700D01*
X92895685Y-75194700D01*
X92895680Y-75194700D01*
X92740110Y-75225644D01*
X92740101Y-75225647D01*
X92593553Y-75286348D01*
X92593540Y-75286355D01*
X92461651Y-75374481D01*
X92461647Y-75374484D01*
X92349484Y-75486647D01*
X92349481Y-75486651D01*
X92261355Y-75618540D01*
X92261348Y-75618553D01*
X92200647Y-75765101D01*
X92200644Y-75765110D01*
X92169700Y-75920680D01*
X92169700Y-75938361D01*
X92150015Y-76005400D01*
X92133381Y-76026042D01*
X90763527Y-77395895D01*
X90763522Y-77395901D01*
X90687602Y-77527398D01*
X90687602Y-77527399D01*
X90687601Y-77527401D01*
X90687601Y-77527402D01*
X90648300Y-77674076D01*
X80475835Y-77674076D01*
X80454626Y-77632452D01*
X80415270Y-77578282D01*
X80415269Y-77578282D01*
X79782962Y-78210590D01*
X79765925Y-78147007D01*
X79700099Y-78032993D01*
X79607007Y-77939901D01*
X79492993Y-77874075D01*
X79429409Y-77857037D01*
X80061716Y-77224728D01*
X80007547Y-77185373D01*
X80007547Y-77185372D01*
X79998500Y-77180763D01*
X79947706Y-77132788D01*
X79930912Y-77064966D01*
X79953451Y-76998832D01*
X79998508Y-76959793D01*
X80007816Y-76955051D01*
X80102464Y-76886286D01*
X80179786Y-76830109D01*
X80179788Y-76830106D01*
X80179792Y-76830104D01*
X80330104Y-76679792D01*
X80330106Y-76679788D01*
X80330109Y-76679786D01*
X80455048Y-76507820D01*
X80455047Y-76507820D01*
X80455051Y-76507816D01*
X80551557Y-76318412D01*
X80617246Y-76116243D01*
X80650500Y-75906287D01*
X80650500Y-75693713D01*
X80617246Y-75483757D01*
X80551557Y-75281588D01*
X80455051Y-75092184D01*
X80455049Y-75092181D01*
X80455048Y-75092179D01*
X80330109Y-74920213D01*
X80179786Y-74769890D01*
X80007820Y-74644951D01*
X79818414Y-74548444D01*
X79818413Y-74548443D01*
X79818412Y-74548443D01*
X79616243Y-74482754D01*
X79616241Y-74482753D01*
X79616240Y-74482753D01*
X79441536Y-74455083D01*
X79406287Y-74449500D01*
X79193713Y-74449500D01*
X79158464Y-74455083D01*
X78983760Y-74482753D01*
X78781585Y-74548444D01*
X78592179Y-74644951D01*
X78420213Y-74769890D01*
X78420209Y-74769894D01*
X78301923Y-74888181D01*
X78240600Y-74921666D01*
X78214242Y-74924500D01*
X77061306Y-74924500D01*
X76995446Y-74937601D01*
X76995445Y-74937601D01*
X76887341Y-74959103D01*
X76887332Y-74959106D01*
X76723459Y-75026983D01*
X76723447Y-75026990D01*
X76576020Y-75125499D01*
X76575963Y-75125537D01*
X76575956Y-75125543D01*
X75025540Y-76675958D01*
X75025539Y-76675959D01*
X74993323Y-76724174D01*
X74993319Y-76724180D01*
X74990462Y-76728457D01*
X74926987Y-76823453D01*
X74896213Y-76897749D01*
X74893519Y-76904250D01*
X74893518Y-76904254D01*
X74859105Y-76987333D01*
X74859103Y-76987341D01*
X74825695Y-77155295D01*
X74825696Y-77155296D01*
X74824500Y-77161309D01*
X63079262Y-77161309D01*
X63080289Y-70202135D01*
X64949500Y-70202135D01*
X64949500Y-71997870D01*
X64949501Y-71997876D01*
X64955908Y-72057483D01*
X65006202Y-72192328D01*
X65006206Y-72192335D01*
X65092452Y-72307544D01*
X65092455Y-72307547D01*
X65207664Y-72393793D01*
X65207671Y-72393797D01*
X65342517Y-72444091D01*
X65342516Y-72444091D01*
X65349444Y-72444835D01*
X65402127Y-72450500D01*
X67197872Y-72450499D01*
X67257483Y-72444091D01*
X67392331Y-72393796D01*
X67507546Y-72307546D01*
X67593796Y-72192331D01*
X67644091Y-72057483D01*
X67650500Y-71997873D01*
X67650499Y-71034174D01*
X67650499Y-70202155D01*
X69650000Y-70202155D01*
X69650000Y-70850000D01*
X70566988Y-70850000D01*
X70534075Y-70907007D01*
X70500000Y-71034174D01*
X70500000Y-71165826D01*
X70534075Y-71292993D01*
X70566988Y-71350000D01*
X69650000Y-71350000D01*
X69650000Y-71997844D01*
X69656401Y-72057372D01*
X69656403Y-72057379D01*
X69706645Y-72192086D01*
X69706649Y-72192093D01*
X69792809Y-72307187D01*
X69792812Y-72307190D01*
X69907906Y-72393350D01*
X69907913Y-72393354D01*
X70042620Y-72443596D01*
X70042627Y-72443598D01*
X70102155Y-72449999D01*
X70102172Y-72450000D01*
X70750000Y-72450000D01*
X70750000Y-71533012D01*
X70807007Y-71565925D01*
X70934174Y-71600000D01*
X71065826Y-71600000D01*
X71192993Y-71565925D01*
X71250000Y-71533012D01*
X71250000Y-72450000D01*
X71897828Y-72450000D01*
X71897844Y-72449999D01*
X71957372Y-72443598D01*
X71957379Y-72443596D01*
X72092086Y-72393354D01*
X72092093Y-72393350D01*
X72207187Y-72307190D01*
X72207190Y-72307187D01*
X72293350Y-72192093D01*
X72293354Y-72192086D01*
X72343596Y-72057379D01*
X72343598Y-72057372D01*
X72349999Y-71997844D01*
X72350000Y-71997827D01*
X72350000Y-71350000D01*
X71433012Y-71350000D01*
X71465925Y-71292993D01*
X71500000Y-71165826D01*
X71500000Y-71034174D01*
X71465925Y-70907007D01*
X71433012Y-70850000D01*
X72350000Y-70850000D01*
X72350000Y-70202172D01*
X72349999Y-70202155D01*
X72343598Y-70142627D01*
X72343596Y-70142620D01*
X72293354Y-70007913D01*
X72293350Y-70007906D01*
X72207190Y-69892812D01*
X72207187Y-69892809D01*
X72092093Y-69806649D01*
X72092086Y-69806645D01*
X72062973Y-69795787D01*
X71957379Y-69756403D01*
X71957372Y-69756401D01*
X71897844Y-69750000D01*
X71250000Y-69750000D01*
X71250000Y-70666988D01*
X71192993Y-70634075D01*
X71065826Y-70600000D01*
X70934174Y-70600000D01*
X70807007Y-70634075D01*
X70750000Y-70666988D01*
X70750000Y-69750000D01*
X70102155Y-69750000D01*
X70042627Y-69756401D01*
X70042620Y-69756403D01*
X69907913Y-69806645D01*
X69907906Y-69806649D01*
X69792812Y-69892809D01*
X69792809Y-69892812D01*
X69706649Y-70007906D01*
X69706645Y-70007913D01*
X69656403Y-70142620D01*
X69656401Y-70142627D01*
X69650000Y-70202155D01*
X67650499Y-70202155D01*
X67650499Y-70202129D01*
X67650498Y-70202123D01*
X67650497Y-70202116D01*
X67644091Y-70142517D01*
X67593884Y-70007906D01*
X67593797Y-70007671D01*
X67593793Y-70007664D01*
X67507547Y-69892455D01*
X67507544Y-69892452D01*
X67392335Y-69806206D01*
X67392328Y-69806202D01*
X67257482Y-69755908D01*
X67257483Y-69755908D01*
X67197883Y-69749501D01*
X67197881Y-69749500D01*
X67197873Y-69749500D01*
X67197864Y-69749500D01*
X65402129Y-69749500D01*
X65402123Y-69749501D01*
X65342516Y-69755908D01*
X65207671Y-69806202D01*
X65207664Y-69806206D01*
X65092455Y-69892452D01*
X65092452Y-69892455D01*
X65006206Y-70007664D01*
X65006202Y-70007671D01*
X64955908Y-70142517D01*
X64950266Y-70195000D01*
X64949501Y-70202123D01*
X64949500Y-70202135D01*
X63080289Y-70202135D01*
X63080365Y-69684477D01*
X106709794Y-69684477D01*
X106709794Y-69703314D01*
X106709794Y-69865523D01*
X106714060Y-69892455D01*
X106738116Y-70044342D01*
X106794060Y-70216523D01*
X106794062Y-70216526D01*
X106876255Y-70377840D01*
X106982672Y-70524309D01*
X107110691Y-70652328D01*
X107257160Y-70758745D01*
X107418474Y-70840938D01*
X107418476Y-70840939D01*
X107504566Y-70868911D01*
X107590659Y-70896884D01*
X107769477Y-70925206D01*
X107769478Y-70925206D01*
X107950522Y-70925206D01*
X107950523Y-70925206D01*
X108129341Y-70896884D01*
X108301526Y-70840938D01*
X108462840Y-70758745D01*
X108609309Y-70652328D01*
X108737328Y-70524309D01*
X108843745Y-70377840D01*
X108925938Y-70216526D01*
X108981884Y-70044341D01*
X109010206Y-69865523D01*
X109010206Y-69684477D01*
X120699794Y-69684477D01*
X120699794Y-69703314D01*
X120699794Y-69865523D01*
X120704060Y-69892455D01*
X120728116Y-70044342D01*
X120784060Y-70216523D01*
X120784062Y-70216526D01*
X120866255Y-70377840D01*
X120972672Y-70524309D01*
X121100691Y-70652328D01*
X121247160Y-70758745D01*
X121408474Y-70840938D01*
X121408476Y-70840939D01*
X121494566Y-70868911D01*
X121580659Y-70896884D01*
X121759477Y-70925206D01*
X121759478Y-70925206D01*
X121940522Y-70925206D01*
X121940523Y-70925206D01*
X122119341Y-70896884D01*
X122291526Y-70840938D01*
X122452840Y-70758745D01*
X122599309Y-70652328D01*
X122727328Y-70524309D01*
X122833745Y-70377840D01*
X122915938Y-70216526D01*
X122971884Y-70044341D01*
X123000206Y-69865523D01*
X123000206Y-69684477D01*
X122971884Y-69505659D01*
X122943911Y-69419566D01*
X122915939Y-69333476D01*
X122915937Y-69333473D01*
X122882374Y-69267600D01*
X122833745Y-69172160D01*
X122727328Y-69025691D01*
X122599309Y-68897672D01*
X122452840Y-68791255D01*
X122291526Y-68709062D01*
X122291523Y-68709060D01*
X122119342Y-68653116D01*
X121971075Y-68629633D01*
X121940523Y-68624794D01*
X121759477Y-68624794D01*
X121728925Y-68629633D01*
X121580657Y-68653116D01*
X121408476Y-68709060D01*
X121408473Y-68709062D01*
X121247159Y-68791255D01*
X121100689Y-68897673D01*
X120972673Y-69025689D01*
X120866255Y-69172159D01*
X120784062Y-69333473D01*
X120784060Y-69333476D01*
X120728116Y-69505657D01*
X120699794Y-69684477D01*
X109010206Y-69684477D01*
X108981884Y-69505659D01*
X108953911Y-69419566D01*
X108925939Y-69333476D01*
X108925937Y-69333473D01*
X108892374Y-69267600D01*
X108843745Y-69172160D01*
X108737328Y-69025691D01*
X108609309Y-68897672D01*
X108462840Y-68791255D01*
X108301526Y-68709062D01*
X108301523Y-68709060D01*
X108129342Y-68653116D01*
X107981075Y-68629633D01*
X107950523Y-68624794D01*
X107769477Y-68624794D01*
X107738925Y-68629633D01*
X107590657Y-68653116D01*
X107418476Y-68709060D01*
X107418473Y-68709062D01*
X107257159Y-68791255D01*
X107110689Y-68897673D01*
X106982673Y-69025689D01*
X106876255Y-69172159D01*
X106794062Y-69333473D01*
X106794060Y-69333476D01*
X106738116Y-69505657D01*
X106709794Y-69684477D01*
X63080365Y-69684477D01*
X63080493Y-68817616D01*
X63080500Y-68817595D01*
X63080500Y-68776069D01*
X63080501Y-68776064D01*
X63081096Y-68763946D01*
X63081667Y-68758141D01*
X63096726Y-68720840D01*
X63100196Y-68709033D01*
X63102191Y-68707304D01*
X63107823Y-68693355D01*
X63117373Y-68682626D01*
X63712612Y-68087387D01*
X63773931Y-68053905D01*
X63788131Y-68051668D01*
X63793951Y-68051095D01*
X63806091Y-68050500D01*
X63847595Y-68050500D01*
X157252405Y-68050500D01*
X157274138Y-68050500D01*
X157341177Y-68070185D01*
G37*
G04 #@! TD.AperFunction*
G04 #@! TA.AperFunction,Conductor*
G36*
X126895815Y-120091085D02*
G01*
X126943426Y-120142222D01*
X126948241Y-120154299D01*
X126948316Y-120154269D01*
X127011348Y-120306446D01*
X127011355Y-120306459D01*
X127099481Y-120438348D01*
X127099484Y-120438352D01*
X127211648Y-120550516D01*
X127211651Y-120550518D01*
X127266777Y-120587352D01*
X127271685Y-120590631D01*
X127290476Y-120606053D01*
X127886845Y-121202422D01*
X127920330Y-121263745D01*
X127915346Y-121333437D01*
X127886845Y-121377784D01*
X127817082Y-121447546D01*
X127817076Y-121447553D01*
X127736741Y-121552247D01*
X127736740Y-121552249D01*
X127684088Y-121643446D01*
X127684080Y-121643463D01*
X127633586Y-121765366D01*
X127633582Y-121765376D01*
X127606325Y-121867101D01*
X127606323Y-121867110D01*
X127589100Y-121997938D01*
X127589100Y-122401000D01*
X127569415Y-122468039D01*
X127516611Y-122513794D01*
X127465100Y-122525000D01*
X126984100Y-122525000D01*
X126917061Y-122505315D01*
X126871306Y-122452511D01*
X126860100Y-122401000D01*
X126860100Y-121997938D01*
X126851703Y-121934157D01*
X126842876Y-121867107D01*
X126815617Y-121765374D01*
X126765117Y-121643457D01*
X126765111Y-121643446D01*
X126712459Y-121552249D01*
X126712458Y-121552247D01*
X126632123Y-121447553D01*
X126632117Y-121447546D01*
X126567619Y-121383048D01*
X126534134Y-121321725D01*
X126531300Y-121295367D01*
X126531300Y-120508929D01*
X126550985Y-120441890D01*
X126567617Y-120421249D01*
X126575518Y-120413349D01*
X126663648Y-120281453D01*
X126717983Y-120150273D01*
X126761822Y-120095873D01*
X126828116Y-120073807D01*
X126895815Y-120091085D01*
G37*
G04 #@! TD.AperFunction*
G04 #@! TA.AperFunction,Conductor*
G36*
X155140910Y-90410344D02*
G01*
X155170897Y-90416868D01*
X155175912Y-90420622D01*
X155178509Y-90421385D01*
X155199151Y-90438019D01*
X155211647Y-90450515D01*
X155211651Y-90450518D01*
X155343540Y-90538644D01*
X155343553Y-90538651D01*
X155432560Y-90575518D01*
X155490103Y-90599353D01*
X155490105Y-90599353D01*
X155490110Y-90599355D01*
X155645680Y-90630299D01*
X155645684Y-90630300D01*
X155645685Y-90630300D01*
X155804316Y-90630300D01*
X155804316Y-90630299D01*
X155845002Y-90622207D01*
X155876309Y-90615980D01*
X155945900Y-90622207D01*
X156001078Y-90665070D01*
X156024322Y-90730960D01*
X156024500Y-90737597D01*
X156024500Y-95975637D01*
X156004815Y-96042676D01*
X155988181Y-96063318D01*
X146350540Y-105700958D01*
X146350534Y-105700965D01*
X146251989Y-105848449D01*
X146240261Y-105876764D01*
X146196419Y-105931167D01*
X146130125Y-105953231D01*
X146062425Y-105935951D01*
X146014815Y-105884813D01*
X146001700Y-105829310D01*
X146001700Y-101213529D01*
X146021385Y-101146490D01*
X146038016Y-101125850D01*
X146050518Y-101113349D01*
X146138648Y-100981453D01*
X146139535Y-100979313D01*
X146159836Y-100930300D01*
X146199353Y-100834897D01*
X146202087Y-100821155D01*
X146230299Y-100679319D01*
X146230300Y-100679316D01*
X146230300Y-100520684D01*
X146230299Y-100520680D01*
X146199355Y-100365110D01*
X146199352Y-100365101D01*
X146197196Y-100359897D01*
X146161817Y-100274482D01*
X146138651Y-100218553D01*
X146138644Y-100218540D01*
X146050518Y-100086651D01*
X146050515Y-100086647D01*
X145938352Y-99974484D01*
X145938348Y-99974481D01*
X145806459Y-99886355D01*
X145806446Y-99886348D01*
X145659898Y-99825647D01*
X145659889Y-99825644D01*
X145504319Y-99794700D01*
X145504315Y-99794700D01*
X145503162Y-99794700D01*
X145502579Y-99794528D01*
X145498254Y-99794103D01*
X145498334Y-99793282D01*
X145436123Y-99775015D01*
X145390368Y-99722211D01*
X145380424Y-99653053D01*
X145409449Y-99589497D01*
X145415481Y-99583019D01*
X145699462Y-99299038D01*
X145699462Y-99299037D01*
X145699464Y-99299036D01*
X145773922Y-99187601D01*
X145798013Y-99151547D01*
X145824584Y-99087399D01*
X145865895Y-98987666D01*
X145900500Y-98813692D01*
X145900500Y-98636308D01*
X145900500Y-90811309D01*
X145900500Y-90811306D01*
X145900499Y-90811304D01*
X145865896Y-90637341D01*
X145865893Y-90637332D01*
X145850162Y-90599353D01*
X145839308Y-90573151D01*
X145831840Y-90503683D01*
X145863115Y-90441204D01*
X145923204Y-90405552D01*
X145953870Y-90401700D01*
X155111470Y-90401700D01*
X155140910Y-90410344D01*
G37*
G04 #@! TD.AperFunction*
G04 #@! TA.AperFunction,Conductor*
G36*
X117056903Y-89626368D02*
G01*
X117083087Y-89658081D01*
X117138525Y-89754102D01*
X117138527Y-89754104D01*
X120436981Y-93052558D01*
X120470466Y-93113881D01*
X120473300Y-93140239D01*
X120473300Y-94286470D01*
X120453615Y-94353509D01*
X120436981Y-94374151D01*
X120424484Y-94386647D01*
X120424481Y-94386651D01*
X120336355Y-94518540D01*
X120336348Y-94518553D01*
X120275647Y-94665101D01*
X120275644Y-94665110D01*
X120244700Y-94820680D01*
X120244700Y-94979319D01*
X120275644Y-95134889D01*
X120275647Y-95134898D01*
X120336348Y-95281446D01*
X120336355Y-95281459D01*
X120419176Y-95405409D01*
X120440054Y-95472087D01*
X120421569Y-95539467D01*
X120369590Y-95586157D01*
X120316074Y-95598300D01*
X119490239Y-95598300D01*
X119423200Y-95578615D01*
X119402558Y-95561981D01*
X116888019Y-93047442D01*
X116854534Y-92986119D01*
X116851700Y-92959761D01*
X116851700Y-89720081D01*
X116871385Y-89653042D01*
X116924189Y-89607287D01*
X116993347Y-89597343D01*
X117056903Y-89626368D01*
G37*
G04 #@! TD.AperFunction*
G04 #@! TA.AperFunction,Conductor*
G36*
X143292539Y-81696385D02*
G01*
X143338294Y-81749189D01*
X143349500Y-81800700D01*
X143349500Y-83938696D01*
X143384103Y-84112658D01*
X143384105Y-84112666D01*
X143412556Y-84181353D01*
X143412559Y-84181360D01*
X143414453Y-84185931D01*
X143451987Y-84276547D01*
X143487246Y-84329315D01*
X143491262Y-84335326D01*
X143491266Y-84335333D01*
X143550532Y-84424031D01*
X143550538Y-84424039D01*
X147500960Y-88374461D01*
X147500964Y-88374464D01*
X147648446Y-88473009D01*
X147648455Y-88473014D01*
X147685579Y-88488391D01*
X147812334Y-88540895D01*
X147986303Y-88575499D01*
X147986307Y-88575500D01*
X147986308Y-88575500D01*
X147986309Y-88575500D01*
X155100638Y-88575500D01*
X155167677Y-88595185D01*
X155188319Y-88611819D01*
X155455783Y-88879283D01*
X155489268Y-88940606D01*
X155484284Y-89010298D01*
X155442412Y-89066231D01*
X155415555Y-89081525D01*
X155343550Y-89111350D01*
X155343540Y-89111355D01*
X155211651Y-89199481D01*
X155211647Y-89199484D01*
X155199151Y-89211981D01*
X155137828Y-89245466D01*
X155111470Y-89248300D01*
X128240239Y-89248300D01*
X128173200Y-89228615D01*
X128152558Y-89211981D01*
X121503958Y-82563381D01*
X121470473Y-82502058D01*
X121475457Y-82432366D01*
X121517329Y-82376433D01*
X121582793Y-82352016D01*
X121591639Y-82351700D01*
X140805470Y-82351700D01*
X140872509Y-82371385D01*
X140893151Y-82388019D01*
X140911647Y-82406515D01*
X140911651Y-82406518D01*
X141043540Y-82494644D01*
X141043553Y-82494651D01*
X141144230Y-82536352D01*
X141190103Y-82555353D01*
X141190105Y-82555353D01*
X141190110Y-82555355D01*
X141345680Y-82586299D01*
X141345684Y-82586300D01*
X141345685Y-82586300D01*
X141504316Y-82586300D01*
X141504317Y-82586299D01*
X141556175Y-82575984D01*
X141659889Y-82555355D01*
X141659892Y-82555353D01*
X141659897Y-82555353D01*
X141788564Y-82502058D01*
X141806446Y-82494651D01*
X141806446Y-82494650D01*
X141806453Y-82494648D01*
X141938349Y-82406518D01*
X142050518Y-82294349D01*
X142138648Y-82162453D01*
X142199353Y-82015897D01*
X142211603Y-81954315D01*
X142230299Y-81860319D01*
X142230300Y-81860316D01*
X142230300Y-81800700D01*
X142249985Y-81733661D01*
X142302789Y-81687906D01*
X142354300Y-81676700D01*
X143225500Y-81676700D01*
X143292539Y-81696385D01*
G37*
G04 #@! TD.AperFunction*
G04 #@! TA.AperFunction,Conductor*
G36*
X108926800Y-78396385D02*
G01*
X108947442Y-78413019D01*
X110936981Y-80402558D01*
X110970466Y-80463881D01*
X110973300Y-80490239D01*
X110973300Y-82870700D01*
X110953615Y-82937739D01*
X110900811Y-82983494D01*
X110849300Y-82994700D01*
X110770680Y-82994700D01*
X110615110Y-83025644D01*
X110615101Y-83025647D01*
X110468553Y-83086348D01*
X110468540Y-83086355D01*
X110336651Y-83174481D01*
X110336647Y-83174484D01*
X110224484Y-83286647D01*
X110224481Y-83286651D01*
X110143303Y-83408143D01*
X110089691Y-83452948D01*
X110064393Y-83460869D01*
X109990108Y-83475645D01*
X109990098Y-83475648D01*
X109843553Y-83536348D01*
X109843540Y-83536355D01*
X109711651Y-83624481D01*
X109711647Y-83624484D01*
X109599484Y-83736647D01*
X109599481Y-83736651D01*
X109511355Y-83868540D01*
X109511348Y-83868553D01*
X109450647Y-84015101D01*
X109450644Y-84015110D01*
X109419700Y-84170680D01*
X109419700Y-84329319D01*
X109450644Y-84484889D01*
X109450647Y-84484898D01*
X109511348Y-84631446D01*
X109511355Y-84631459D01*
X109585319Y-84742153D01*
X109606197Y-84808831D01*
X109606217Y-84811044D01*
X109606217Y-87905895D01*
X109586532Y-87972934D01*
X109533728Y-88018689D01*
X109506408Y-88027512D01*
X109390110Y-88050644D01*
X109390101Y-88050647D01*
X109243553Y-88111348D01*
X109243540Y-88111355D01*
X109111651Y-88199481D01*
X109111647Y-88199484D01*
X109054297Y-88256835D01*
X108992974Y-88290320D01*
X108923282Y-88285336D01*
X108867349Y-88243464D01*
X108856131Y-88225449D01*
X108855431Y-88224076D01*
X108833996Y-88182006D01*
X108833994Y-88182003D01*
X108833993Y-88182001D01*
X108727558Y-88035505D01*
X108727554Y-88035500D01*
X108617883Y-87925829D01*
X108584398Y-87864506D01*
X108589382Y-87794814D01*
X108631254Y-87738881D01*
X108636664Y-87735052D01*
X108688349Y-87700518D01*
X108800518Y-87588349D01*
X108888648Y-87456453D01*
X108949353Y-87309897D01*
X108952823Y-87292455D01*
X108980299Y-87154319D01*
X108980300Y-87154316D01*
X108980300Y-86995684D01*
X108980299Y-86995680D01*
X108949353Y-86840103D01*
X108949352Y-86840101D01*
X108948343Y-86837666D01*
X108907136Y-86738181D01*
X108888651Y-86693553D01*
X108888644Y-86693540D01*
X108800518Y-86561651D01*
X108800515Y-86561647D01*
X108788019Y-86549151D01*
X108754534Y-86487828D01*
X108751700Y-86461470D01*
X108751700Y-85288529D01*
X108771385Y-85221490D01*
X108788016Y-85200850D01*
X108800518Y-85188349D01*
X108888648Y-85056453D01*
X108889665Y-85053999D01*
X108941069Y-84929896D01*
X108949353Y-84909897D01*
X108980300Y-84754315D01*
X108980300Y-84595685D01*
X108976196Y-84575051D01*
X108949355Y-84440110D01*
X108949352Y-84440101D01*
X108888651Y-84293553D01*
X108888644Y-84293540D01*
X108800518Y-84161651D01*
X108800515Y-84161647D01*
X108688352Y-84049484D01*
X108688348Y-84049481D01*
X108556459Y-83961355D01*
X108556446Y-83961348D01*
X108456848Y-83920094D01*
X108402444Y-83876253D01*
X108380379Y-83809959D01*
X108380300Y-83805533D01*
X108380300Y-83795684D01*
X108380299Y-83795680D01*
X108349355Y-83640110D01*
X108349352Y-83640101D01*
X108288651Y-83493553D01*
X108288644Y-83493540D01*
X108200518Y-83361651D01*
X108200515Y-83361647D01*
X108088352Y-83249484D01*
X108088348Y-83249481D01*
X107956459Y-83161355D01*
X107956447Y-83161349D01*
X107949550Y-83158492D01*
X107895147Y-83114650D01*
X107873084Y-83048355D01*
X107890365Y-82980656D01*
X107909315Y-82956260D01*
X108148960Y-82716616D01*
X108210281Y-82683134D01*
X108236639Y-82680300D01*
X108254316Y-82680300D01*
X108254317Y-82680299D01*
X108306175Y-82669984D01*
X108409889Y-82649355D01*
X108409892Y-82649353D01*
X108409897Y-82649353D01*
X108556453Y-82588648D01*
X108688349Y-82500518D01*
X108800518Y-82388349D01*
X108888648Y-82256453D01*
X108949353Y-82109897D01*
X108963235Y-82040110D01*
X108969984Y-82006175D01*
X108980300Y-81954315D01*
X108980300Y-81795685D01*
X108973530Y-81761651D01*
X108949355Y-81640110D01*
X108949352Y-81640101D01*
X108888651Y-81493553D01*
X108888644Y-81493540D01*
X108800518Y-81361651D01*
X108800515Y-81361647D01*
X108688352Y-81249484D01*
X108688348Y-81249481D01*
X108556459Y-81161355D01*
X108556446Y-81161348D01*
X108409898Y-81100647D01*
X108409889Y-81100644D01*
X108254319Y-81069700D01*
X108254315Y-81069700D01*
X108095685Y-81069700D01*
X108095680Y-81069700D01*
X107940110Y-81100644D01*
X107940101Y-81100647D01*
X107793553Y-81161348D01*
X107793540Y-81161355D01*
X107661651Y-81249481D01*
X107661647Y-81249484D01*
X107549484Y-81361647D01*
X107549481Y-81361651D01*
X107461355Y-81493540D01*
X107461348Y-81493553D01*
X107400647Y-81640101D01*
X107400644Y-81640110D01*
X107369700Y-81795680D01*
X107369700Y-81813361D01*
X107350015Y-81880400D01*
X107333381Y-81901042D01*
X106713381Y-82521042D01*
X106652058Y-82554527D01*
X106582366Y-82549543D01*
X106526433Y-82507671D01*
X106502016Y-82442207D01*
X106501700Y-82433361D01*
X106501700Y-80524078D01*
X106501700Y-80524076D01*
X106462399Y-80377402D01*
X106446641Y-80350109D01*
X106386477Y-80245901D01*
X106386472Y-80245895D01*
X105977758Y-79837181D01*
X105944273Y-79775858D01*
X105949257Y-79706166D01*
X105991129Y-79650233D01*
X106056593Y-79625816D01*
X106065439Y-79625500D01*
X106897150Y-79625500D01*
X106964189Y-79645185D01*
X107009944Y-79697989D01*
X107018766Y-79725304D01*
X107025645Y-79759889D01*
X107025647Y-79759897D01*
X107025647Y-79759898D01*
X107086348Y-79906446D01*
X107086355Y-79906459D01*
X107174481Y-80038348D01*
X107174484Y-80038352D01*
X107286647Y-80150515D01*
X107286651Y-80150518D01*
X107418540Y-80238644D01*
X107418553Y-80238651D01*
X107516729Y-80279316D01*
X107565103Y-80299353D01*
X107565105Y-80299353D01*
X107565110Y-80299355D01*
X107720680Y-80330299D01*
X107720684Y-80330300D01*
X107720685Y-80330300D01*
X107879316Y-80330300D01*
X107879317Y-80330299D01*
X107931175Y-80319984D01*
X108034889Y-80299355D01*
X108034892Y-80299353D01*
X108034897Y-80299353D01*
X108181453Y-80238648D01*
X108313349Y-80150518D01*
X108425518Y-80038349D01*
X108513648Y-79906453D01*
X108574353Y-79759897D01*
X108582249Y-79720204D01*
X108605299Y-79604319D01*
X108605300Y-79604316D01*
X108605300Y-79445684D01*
X108605299Y-79445680D01*
X108574355Y-79290110D01*
X108574352Y-79290101D01*
X108511317Y-79137919D01*
X108512870Y-79137275D01*
X108500500Y-79087889D01*
X108500500Y-78812111D01*
X108512874Y-78762727D01*
X108511317Y-78762082D01*
X108542936Y-78685743D01*
X108574353Y-78609897D01*
X108575089Y-78606197D01*
X108600886Y-78476509D01*
X108615596Y-78448385D01*
X108628790Y-78419497D01*
X108631679Y-78417639D01*
X108633271Y-78414598D01*
X108660853Y-78398891D01*
X108687568Y-78381723D01*
X108692162Y-78381062D01*
X108693986Y-78380024D01*
X108722503Y-78376700D01*
X108859761Y-78376700D01*
X108926800Y-78396385D01*
G37*
G04 #@! TD.AperFunction*
G04 #@! TA.AperFunction,Conductor*
G36*
X115256903Y-81297926D02*
G01*
X115263381Y-81303958D01*
X116986981Y-83027558D01*
X117020466Y-83088881D01*
X117023300Y-83115239D01*
X117023300Y-84054918D01*
X117003615Y-84121957D01*
X116950811Y-84167712D01*
X116881653Y-84177656D01*
X116818097Y-84148631D01*
X116791913Y-84116919D01*
X116784484Y-84104052D01*
X116736475Y-84020898D01*
X116629102Y-83913525D01*
X115991619Y-83276042D01*
X115958134Y-83214719D01*
X115955300Y-83188361D01*
X115955300Y-83170684D01*
X115955299Y-83170680D01*
X115924355Y-83015110D01*
X115924352Y-83015101D01*
X115923903Y-83014018D01*
X115902606Y-82962601D01*
X115863651Y-82868553D01*
X115863644Y-82868540D01*
X115775518Y-82736651D01*
X115775515Y-82736647D01*
X115663352Y-82624484D01*
X115663348Y-82624481D01*
X115531459Y-82536355D01*
X115531446Y-82536348D01*
X115384898Y-82475647D01*
X115384889Y-82475644D01*
X115229319Y-82444700D01*
X115229315Y-82444700D01*
X115175700Y-82444700D01*
X115108661Y-82425015D01*
X115062906Y-82372211D01*
X115051700Y-82320700D01*
X115051700Y-81391639D01*
X115071385Y-81324600D01*
X115124189Y-81278845D01*
X115193347Y-81268901D01*
X115256903Y-81297926D01*
G37*
G04 #@! TD.AperFunction*
G04 #@! TA.AperFunction,Conductor*
G36*
X106901800Y-72671385D02*
G01*
X106922442Y-72688019D01*
X108246042Y-74011619D01*
X108279527Y-74072942D01*
X108274543Y-74142634D01*
X108232671Y-74198567D01*
X108167207Y-74222984D01*
X108158361Y-74223300D01*
X105536924Y-74223300D01*
X105385076Y-74223300D01*
X105238402Y-74262601D01*
X105238401Y-74262601D01*
X105238399Y-74262602D01*
X105238398Y-74262602D01*
X105106901Y-74338522D01*
X105106895Y-74338527D01*
X104526042Y-74919381D01*
X104464719Y-74952866D01*
X104459879Y-74953819D01*
X104449204Y-74955700D01*
X104420685Y-74955700D01*
X104265103Y-74986647D01*
X104258829Y-74989245D01*
X104246018Y-74991503D01*
X104218408Y-74988420D01*
X104190628Y-74988668D01*
X104184167Y-74984597D01*
X104176580Y-74983750D01*
X104155021Y-74966232D01*
X104131515Y-74951420D01*
X104128281Y-74944502D01*
X104122356Y-74939688D01*
X104113690Y-74913294D01*
X104101924Y-74888125D01*
X104100868Y-74874238D01*
X104100562Y-74873304D01*
X104100744Y-74872601D01*
X104100500Y-74869384D01*
X104100500Y-73362111D01*
X104112874Y-73312727D01*
X104111317Y-73312082D01*
X104150273Y-73218031D01*
X104174353Y-73159897D01*
X104186139Y-73100647D01*
X104205299Y-73004319D01*
X104205300Y-73004316D01*
X104205300Y-72845686D01*
X104203443Y-72836352D01*
X104196191Y-72799890D01*
X104202420Y-72730299D01*
X104245283Y-72675122D01*
X104311173Y-72651878D01*
X104317809Y-72651700D01*
X106834761Y-72651700D01*
X106901800Y-72671385D01*
G37*
G04 #@! TD.AperFunction*
G04 #@! TA.AperFunction,Conductor*
G36*
X102549230Y-72671385D02*
G01*
X102594985Y-72724189D01*
X102604929Y-72793347D01*
X102603809Y-72799890D01*
X102596557Y-72836352D01*
X102594700Y-72845686D01*
X102594700Y-73004319D01*
X102625644Y-73159889D01*
X102625647Y-73159898D01*
X102688683Y-73312082D01*
X102687125Y-73312727D01*
X102699500Y-73362111D01*
X102699500Y-74708384D01*
X102679815Y-74775423D01*
X102627011Y-74821178D01*
X102557853Y-74831122D01*
X102539505Y-74827045D01*
X102534890Y-74825645D01*
X102379319Y-74794700D01*
X102379315Y-74794700D01*
X102220685Y-74794700D01*
X102220680Y-74794700D01*
X102065110Y-74825644D01*
X102065110Y-74825645D01*
X102065107Y-74825646D01*
X102065103Y-74825647D01*
X102025680Y-74841976D01*
X101956213Y-74849444D01*
X101893734Y-74818168D01*
X101858082Y-74758079D01*
X101856614Y-74751605D01*
X101849354Y-74715110D01*
X101849353Y-74715103D01*
X101820295Y-74644951D01*
X101788651Y-74568553D01*
X101788644Y-74568540D01*
X101700518Y-74436651D01*
X101700515Y-74436647D01*
X101588352Y-74324484D01*
X101588348Y-74324481D01*
X101456459Y-74236355D01*
X101456446Y-74236348D01*
X101309898Y-74175647D01*
X101309889Y-74175644D01*
X101154319Y-74144700D01*
X101154315Y-74144700D01*
X100995685Y-74144700D01*
X100995680Y-74144700D01*
X100840110Y-74175644D01*
X100840101Y-74175647D01*
X100693553Y-74236348D01*
X100693537Y-74236357D01*
X100671148Y-74251317D01*
X100604471Y-74272194D01*
X100537091Y-74253709D01*
X100490401Y-74201729D01*
X100480642Y-74172405D01*
X100454327Y-74040110D01*
X100449353Y-74015103D01*
X100410562Y-73921452D01*
X100388651Y-73868553D01*
X100388644Y-73868540D01*
X100300518Y-73736651D01*
X100300515Y-73736647D01*
X100211319Y-73647451D01*
X100177834Y-73586128D01*
X100175000Y-73559770D01*
X100175000Y-73400000D01*
X99638381Y-72863381D01*
X99604896Y-72802058D01*
X99609880Y-72732366D01*
X99651752Y-72676433D01*
X99717216Y-72652016D01*
X99726062Y-72651700D01*
X102482191Y-72651700D01*
X102549230Y-72671385D01*
G37*
G04 #@! TD.AperFunction*
G04 #@! TA.AperFunction,Conductor*
G36*
X149552356Y-72498803D02*
G01*
X149585841Y-72560126D01*
X149584926Y-72574831D01*
X149587497Y-72574555D01*
X149596401Y-72657373D01*
X149596403Y-72657380D01*
X149646645Y-72792086D01*
X149646649Y-72792093D01*
X149732809Y-72907187D01*
X149732812Y-72907190D01*
X149847906Y-72993350D01*
X149847913Y-72993354D01*
X149979470Y-73042422D01*
X150035404Y-73084293D01*
X150059821Y-73149758D01*
X150044969Y-73218031D01*
X150023819Y-73246285D01*
X149909889Y-73360215D01*
X149784949Y-73532182D01*
X149780484Y-73540946D01*
X149732509Y-73591742D01*
X149664688Y-73608536D01*
X149598553Y-73585998D01*
X149559516Y-73540946D01*
X149555050Y-73532182D01*
X149430109Y-73360213D01*
X149279786Y-73209890D01*
X149107817Y-73084949D01*
X149098504Y-73080204D01*
X149047707Y-73032230D01*
X149030912Y-72964409D01*
X149053449Y-72898274D01*
X149098507Y-72859232D01*
X149107555Y-72854622D01*
X149161716Y-72815270D01*
X149161717Y-72815270D01*
X148529408Y-72182962D01*
X148592993Y-72165925D01*
X148707007Y-72100099D01*
X148800099Y-72007007D01*
X148865925Y-71892993D01*
X148882962Y-71829408D01*
X149552356Y-72498803D01*
G37*
G04 #@! TD.AperFunction*
M02*
