M48
; DRILL file {KiCad 9.0.7} date 2026-02-16T06:45:11+0900
; FORMAT={-:-/ absolute / metric / decimal}
; #@! TF.CreationDate,2026-02-16T06:45:11+09:00
; #@! TF.GenerationSoftware,Kicad,Pcbnew,9.0.7
; #@! TF.FileFunction,MixedPlating,1,2
FMAT,2
METRIC
; #@! TA.AperFunction,Plated,PTH,ViaDrill
T1C0.300
; #@! TA.AperFunction,Plated,PTH,ComponentDrill
T2C0.900
; #@! TA.AperFunction,Plated,PTH,ComponentDrill
T3C1.000
; #@! TA.AperFunction,NonPlated,NPTH,ComponentDrill
T4C5.000
%
G90
G05
T1
X63.9Y-68.875
X63.925Y-78.075
X63.925Y-85.55
X63.925Y-92.9
X63.925Y-100.125
X63.975Y-107.05
X68.7Y-78.075
X68.725Y-85.55
X68.725Y-104.85
X68.75Y-68.85
X68.75Y-92.925
X68.75Y-100.125
X70.125Y-120.0
X72.375Y-117.5
X72.8Y-105.95
X73.9Y-99.275
X73.925Y-92.95
X74.05Y-84.625
X74.425Y-109.425
X74.45Y-114.925
X74.475Y-105.85
X75.725Y-90.5
X76.2Y-68.875
X80.05Y-71.1
X81.275Y-114.925
X81.275Y-121.15
X81.3Y-109.45
X81.5Y-76.4
X81.5Y-81.225
X82.3Y-119.6
X82.7Y-94.875
X82.7Y-97.025
X82.7Y-100.85
X82.725Y-102.85
X83.0Y-83.5
X84.075Y-121.125
X85.675Y-83.1
X85.975Y-106.2
X86.85Y-120.575
X87.275Y-85.55
X87.675Y-105.725
X87.8Y-96.975
X89.125Y-120.575
X89.175Y-109.45
X90.35Y-104.6
X91.025Y-91.75
X91.05Y-97.95
X91.6Y-121.125
X91.675Y-90.075
X91.8Y-86.175
X91.925Y-104.05
X92.175Y-114.8
X92.4Y-89.5
X92.95Y-78.1
X92.975Y-76.0
X92.975Y-80.2
X92.975Y-82.275
X92.975Y-87.075
X93.55Y-72.1
X94.075Y-109.45
X94.175Y-121.1
X94.5Y-101.85
X95.85Y-114.825
X96.425Y-118.275
X96.5Y-115.925
X96.825Y-121.1
X97.125Y-115.375
X97.15Y-100.1
X97.15Y-118.975
X97.225Y-79.625
X97.225Y-82.375
X97.225Y-88.525
X97.275Y-91.725
X97.8Y-100.8
X97.8Y-116.575
X98.314Y-119.81
X98.45Y-100.1
X98.45Y-115.925
X98.525Y-77.45
X99.1Y-100.8
X99.1Y-117.15
X99.125Y-120.475
X99.175Y-77.975
X99.675Y-74.25
X99.75Y-100.1
X99.75Y-116.575
X99.85Y-78.525
X100.4Y-100.8
X100.425Y-72.975
X100.475Y-79.075
X101.05Y-79.625
X101.05Y-100.1
X101.075Y-74.95
X101.625Y-80.175
X101.7Y-100.8
X101.85Y-121.1
X102.2Y-80.725
X102.3Y-75.6
X102.775Y-81.275
X102.95Y-106.3
X102.975Y-104.6
X103.0Y-100.8
X103.4Y-72.925
X103.425Y-81.825
X103.95Y-68.725
X103.95Y-109.8
X103.95Y-114.2
X104.025Y-82.375
X104.325Y-121.1
X104.5Y-75.761
X104.525Y-77.125
X104.575Y-82.925
X104.6Y-85.575
X104.7Y-93.875
X105.05Y-72.925
X105.125Y-76.275
X105.232Y-77.693
X106.15Y-100.125
X106.625Y-91.25
X106.725Y-119.9
X107.475Y-76.775
X107.5Y-75.475
X107.575Y-83.875
X107.575Y-86.175
X107.8Y-78.375
X107.8Y-79.525
X107.8Y-80.625
X108.0Y-106.275
X108.175Y-118.2
X108.175Y-81.875
X108.175Y-84.675
X108.175Y-87.075
X108.6Y-112.175
X109.25Y-100.8
X109.25Y-113.875
X109.325Y-72.475
X109.45Y-115.925
X109.45Y-117.6
X109.45Y-119.9
X109.625Y-88.825
X109.625Y-89.95
X109.65Y-92.15
X109.65Y-92.95
X109.65Y-93.75
X109.65Y-96.325
X109.9Y-100.1
X109.9Y-113.3
X110.225Y-84.25
X110.55Y-113.875
X110.725Y-117.05
X110.85Y-82.025
X110.85Y-83.8
X111.05Y-76.675
X111.2Y-113.3
X111.325Y-116.4
X111.325Y-119.9
X111.85Y-113.875
X112.225Y-121.1
X112.5Y-112.175
X113.55Y-114.45
X113.775Y-79.88
X113.8Y-97.7
X113.8Y-98.75
X113.8Y-99.8
X113.8Y-100.8
X113.825Y-95.575
X113.825Y-96.625
X114.225Y-119.9
X114.475Y-80.425
X114.95Y-68.675
X115.137Y-85.662
X115.15Y-83.25
X115.15Y-84.55
X115.55Y-73.875
X115.9Y-100.875
X115.975Y-109.7
X116.1Y-74.5
X116.725Y-75.15
X116.725Y-83.275
X116.875Y-98.85
X116.925Y-119.9
X117.25Y-91.25
X117.275Y-75.75
X117.85Y-76.35
X118.325Y-119.9
X118.4Y-76.925
X119.0Y-77.55
X119.0Y-78.45
X119.0Y-79.325
X119.2Y-74.275
X119.345Y-81.0
X119.5Y-94.9
X119.525Y-119.9
X119.85Y-106.25
X120.375Y-72.475
X121.05Y-94.9
X121.7Y-95.475
X121.925Y-119.9
X122.075Y-90.425
X122.35Y-94.9
X123.0Y-95.475
X123.625Y-94.9
X124.025Y-91.25
X124.075Y-68.7
X124.3Y-95.475
X124.65Y-121.1
X124.95Y-79.294
X124.95Y-98.95
X125.55Y-80.025
X125.6Y-98.35
X125.625Y-92.15
X125.625Y-92.95
X125.625Y-93.75
X125.95Y-119.9
X126.2Y-77.275
X126.2Y-78.25
X126.2Y-79.3
X126.25Y-111.925
X127.125Y-121.075
X127.325Y-71.7
X127.45Y-76.275
X127.45Y-77.7
X127.725Y-119.925
X127.8Y-109.7
X127.9Y-100.9
X128.5Y-73.55
X128.575Y-77.7
X128.975Y-115.7
X129.625Y-77.7
X129.625Y-121.05
X129.8Y-73.925
X130.275Y-113.85
X130.65Y-94.975
X130.975Y-112.225
X131.025Y-106.175
X131.05Y-114.675
X131.05Y-119.925
X131.25Y-77.125
X131.35Y-74.175
X132.075Y-112.9
X132.225Y-98.95
X132.225Y-121.05
X133.05Y-106.2
X133.175Y-112.225
X133.275Y-86.7
X134.75Y-121.05
X134.875Y-75.625
X134.9Y-78.775
X134.925Y-90.425
X134.95Y-93.75
X135.05Y-119.925
X135.6Y-92.95
X136.25Y-92.15
X136.475Y-78.775
X136.5Y-75.08
X136.9Y-96.175
X136.975Y-117.831
X136.975Y-119.2
X137.55Y-96.775
X138.2Y-97.375
X138.8Y-86.7
X138.85Y-111.95
X139.4Y-68.65
X140.35Y-91.45
X140.375Y-83.65
X140.775Y-100.925
X140.775Y-109.7
X140.9Y-88.925
X141.425Y-81.781
X142.3Y-111.625
X142.45Y-121.05
X142.675Y-79.275
X144.25Y-81.8
X145.0Y-88.925
X145.0Y-90.9
X145.025Y-114.9
X145.05Y-121.05
X145.15Y-79.3
X145.425Y-100.6
X145.675Y-68.625
X146.125Y-79.3
X146.625Y-104.025
X147.05Y-106.275
X150.125Y-120.0
X151.0Y-99.7
X151.025Y-110.325
X151.025Y-114.9
X151.8Y-91.025
X153.275Y-86.2
X153.8Y-75.075
X153.85Y-80.225
X154.15Y-88.95
X155.725Y-89.825
X156.2Y-75.075
X156.2Y-80.225
X156.725Y-68.7
X156.85Y-86.95
X157.1Y-99.7
X157.1Y-105.225
X157.1Y-114.9
X157.125Y-110.35
X157.15Y-120.075
T2
X96.5Y-72.095
X96.5Y-74.635
X96.5Y-77.175
X142.9Y-71.695
X142.9Y-74.235
X142.9Y-76.775
T3
X66.3Y-71.1
X71.0Y-71.1
X79.3Y-75.8
X79.3Y-78.34
X79.3Y-80.88
X79.3Y-83.42
X79.3Y-85.96
X79.3Y-88.5
X148.4Y-71.7
X148.4Y-74.24
X148.4Y-76.78
X148.4Y-79.32
X148.4Y-81.86
X148.4Y-84.4
X150.94Y-71.7
X150.94Y-74.24
X150.94Y-76.78
X150.94Y-79.32
X150.94Y-81.86
X150.94Y-84.4
T4
X85.34Y-112.225
X141.22Y-117.178
M30
